<?xml version="1.0" encoding="utf-8" standalone="no"?>
<!DOCTYPE svg PUBLIC "-//W3C//DTD SVG 1.1//EN"
  "http://www.w3.org/Graphics/SVG/1.1/DTD/svg11.dtd">
<svg xmlns:xlink="http://www.w3.org/1999/xlink" width="252pt" height="230.4pt" viewBox="0 0 252 230.4" xmlns="http://www.w3.org/2000/svg" version="1.1">
 <metadata>
  <rdf:RDF xmlns:dc="http://purl.org/dc/elements/1.1/" xmlns:cc="http://creativecommons.org/ns#" xmlns:rdf="http://www.w3.org/1999/02/22-rdf-syntax-ns#">
   <cc:Work>
    <dc:type rdf:resource="http://purl.org/dc/dcmitype/StillImage"/>
    <dc:date>2025-03-05T02:56:39.347570</dc:date>
    <dc:format>image/svg+xml</dc:format>
    <dc:creator>
     <cc:Agent>
      <dc:title>Matplotlib v3.5.3, https://matplotlib.org/</dc:title>
     </cc:Agent>
    </dc:creator>
   </cc:Work>
  </rdf:RDF>
 </metadata>
 <defs>
  <style type="text/css">*{stroke-linejoin: round; stroke-linecap: butt}</style>
 </defs>
 <g id="figure_1">
  <g id="patch_1">
   <path d="M 0 230.4 
L 252 230.4 
L 252 0 
L 0 0 
z
" style="fill: #ffffff"/>
  </g>
  <g id="axes_1">
   <g id="patch_2">
    <path d="M 52.004202 179.30029 
L 241.2 179.30029 
L 241.2 10.8 
L 52.004202 10.8 
z
" style="fill: #ffffff"/>
   </g>
   <g id="patch_3">
    <path d="M 60.604011 179.30029 
L 67.770518 179.30029 
L 67.770518 118.123687 
L 60.604011 118.123687 
z
" clip-path="url(#p6226b9692e)" style="fill: #1f77b4"/>
   </g>
   <g id="patch_4">
    <path d="M 96.436548 179.30029 
L 103.603056 179.30029 
L 103.603056 143.088354 
L 96.436548 143.088354 
z
" clip-path="url(#p6226b9692e)" style="fill: #1f77b4"/>
   </g>
   <g id="patch_5">
    <path d="M 132.269086 179.30029 
L 139.435593 179.30029 
L 139.435593 143.558177 
L 132.269086 143.558177 
z
" clip-path="url(#p6226b9692e)" style="fill: #1f77b4"/>
   </g>
   <g id="patch_6">
    <path d="M 168.101623 179.30029 
L 175.268131 179.30029 
L 175.268131 140.988389 
L 168.101623 140.988389 
z
" clip-path="url(#p6226b9692e)" style="fill: #1f77b4"/>
   </g>
   <g id="patch_7">
    <path d="M 203.934161 179.30029 
L 211.100668 179.30029 
L 211.100668 139.742647 
L 203.934161 139.742647 
z
" clip-path="url(#p6226b9692e)" style="fill: #1f77b4"/>
   </g>
   <g id="patch_8">
    <path d="M 67.770518 179.30029 
L 74.937026 179.30029 
L 74.937026 91.781585 
L 67.770518 91.781585 
z
" clip-path="url(#p6226b9692e)" style="fill: #ff7f0e"/>
   </g>
   <g id="patch_9">
    <path d="M 103.603056 179.30029 
L 110.769563 179.30029 
L 110.769563 131.268043 
L 103.603056 131.268043 
z
" clip-path="url(#p6226b9692e)" style="fill: #ff7f0e"/>
   </g>
   <g id="patch_10">
    <path d="M 139.435593 179.30029 
L 146.602101 179.30029 
L 146.602101 131.42821 
L 139.435593 131.42821 
z
" clip-path="url(#p6226b9692e)" style="fill: #ff7f0e"/>
   </g>
   <g id="patch_11">
    <path d="M 175.268131 179.30029 
L 182.434638 179.30029 
L 182.434638 122.437513 
L 175.268131 122.437513 
z
" clip-path="url(#p6226b9692e)" style="fill: #ff7f0e"/>
   </g>
   <g id="patch_12">
    <path d="M 211.100668 179.30029 
L 218.267176 179.30029 
L 218.267176 121.885827 
L 211.100668 121.885827 
z
" clip-path="url(#p6226b9692e)" style="fill: #ff7f0e"/>
   </g>
   <g id="patch_13">
    <path d="M 74.937026 179.30029 
L 82.103533 179.30029 
L 82.103533 35.48829 
L 74.937026 35.48829 
z
" clip-path="url(#p6226b9692e)" style="fill: #2ca02c"/>
   </g>
   <g id="patch_14">
    <path d="M 110.769563 179.30029 
L 117.936071 179.30029 
L 117.936071 42.599697 
L 110.769563 42.599697 
z
" clip-path="url(#p6226b9692e)" style="fill: #2ca02c"/>
   </g>
   <g id="patch_15">
    <path d="M 146.602101 179.30029 
L 153.768608 179.30029 
L 153.768608 42.411056 
L 146.602101 42.411056 
z
" clip-path="url(#p6226b9692e)" style="fill: #2ca02c"/>
   </g>
   <g id="patch_16">
    <path d="M 182.434638 179.30029 
L 189.601146 179.30029 
L 189.601146 39.140094 
L 182.434638 39.140094 
z
" clip-path="url(#p6226b9692e)" style="fill: #2ca02c"/>
   </g>
   <g id="patch_17">
    <path d="M 218.267176 179.30029 
L 225.433683 179.30029 
L 225.433683 98.166902 
L 218.267176 98.166902 
z
" clip-path="url(#p6226b9692e)" style="fill: #2ca02c"/>
   </g>
   <g id="patch_18">
    <path d="M 82.103533 179.30029 
L 89.270041 179.30029 
L 89.270041 18.823823 
L 82.103533 18.823823 
z
" clip-path="url(#p6226b9692e)" style="fill: #d62728"/>
   </g>
   <g id="patch_19">
    <path d="M 117.936071 179.30029 
L 125.102578 179.30029 
L 125.102578 36.463528 
L 117.936071 36.463528 
z
" clip-path="url(#p6226b9692e)" style="fill: #d62728"/>
   </g>
   <g id="patch_20">
    <path d="M 153.768608 179.30029 
L 160.935116 179.30029 
L 160.935116 30.725997 
L 153.768608 30.725997 
z
" clip-path="url(#p6226b9692e)" style="fill: #d62728"/>
   </g>
   <g id="patch_21">
    <path d="M 189.601146 179.30029 
L 196.767653 179.30029 
L 196.767653 24.539999 
L 189.601146 24.539999 
z
" clip-path="url(#p6226b9692e)" style="fill: #d62728"/>
   </g>
   <g id="patch_22">
    <path d="M 225.433683 179.30029 
L 232.600191 179.30029 
L 232.600191 87.207933 
L 225.433683 87.207933 
z
" clip-path="url(#p6226b9692e)" style="fill: #d62728"/>
   </g>
   <g id="matplotlib.axis_1">
    <g id="xtick_1">
     <g id="line2d_1">
      <defs>
       <path id="mc823601a29" d="M 0 0 
L 0 3.5 
" style="stroke: #000000; stroke-width: 0.8"/>
      </defs>
      <g>
       <use xlink:href="#mc823601a29" x="74.937026" y="179.30029" style="stroke: #000000; stroke-width: 0.8"/>
      </g>
     </g>
     <g id="text_1">
      <!-- Nearest interpolation -->
      <g transform="translate(11.101033 214.541659)rotate(-20)scale(0.08 -0.08)">
       <defs>
        <path id="TimesNewRomanPSMT-4e" d="M -84 4238 
L 1066 4238 
L 3656 1059 
L 3656 3503 
Q 3656 3894 3569 3991 
Q 3453 4122 3203 4122 
L 3056 4122 
L 3056 4238 
L 4531 4238 
L 4531 4122 
L 4381 4122 
Q 4113 4122 4000 3959 
Q 3931 3859 3931 3503 
L 3931 -69 
L 3819 -69 
L 1025 3344 
L 1025 734 
Q 1025 344 1109 247 
Q 1228 116 1475 116 
L 1625 116 
L 1625 0 
L 150 0 
L 150 116 
L 297 116 
Q 569 116 681 278 
Q 750 378 750 734 
L 750 3681 
Q 566 3897 470 3965 
Q 375 4034 191 4094 
Q 100 4122 -84 4122 
L -84 4238 
z
" transform="scale(0.015625)"/>
        <path id="TimesNewRomanPSMT-65" d="M 681 1784 
Q 678 1147 991 784 
Q 1303 422 1725 422 
Q 2006 422 2214 576 
Q 2422 731 2563 1106 
L 2659 1044 
Q 2594 616 2278 264 
Q 1963 -88 1488 -88 
Q 972 -88 605 314 
Q 238 716 238 1394 
Q 238 2128 614 2539 
Q 991 2950 1559 2950 
Q 2041 2950 2350 2633 
Q 2659 2316 2659 1784 
L 681 1784 
z
M 681 1966 
L 2006 1966 
Q 1991 2241 1941 2353 
Q 1863 2528 1708 2628 
Q 1553 2728 1384 2728 
Q 1125 2728 920 2526 
Q 716 2325 681 1966 
z
" transform="scale(0.015625)"/>
        <path id="TimesNewRomanPSMT-61" d="M 1822 413 
Q 1381 72 1269 19 
Q 1100 -59 909 -59 
Q 613 -59 420 144 
Q 228 347 228 678 
Q 228 888 322 1041 
Q 450 1253 767 1440 
Q 1084 1628 1822 1897 
L 1822 2009 
Q 1822 2438 1686 2597 
Q 1550 2756 1291 2756 
Q 1094 2756 978 2650 
Q 859 2544 859 2406 
L 866 2225 
Q 866 2081 792 2003 
Q 719 1925 600 1925 
Q 484 1925 411 2006 
Q 338 2088 338 2228 
Q 338 2497 613 2722 
Q 888 2947 1384 2947 
Q 1766 2947 2009 2819 
Q 2194 2722 2281 2516 
Q 2338 2381 2338 1966 
L 2338 994 
Q 2338 584 2353 492 
Q 2369 400 2405 369 
Q 2441 338 2488 338 
Q 2538 338 2575 359 
Q 2641 400 2828 588 
L 2828 413 
Q 2478 -56 2159 -56 
Q 2006 -56 1915 50 
Q 1825 156 1822 413 
z
M 1822 616 
L 1822 1706 
Q 1350 1519 1213 1441 
Q 966 1303 859 1153 
Q 753 1003 753 825 
Q 753 600 887 451 
Q 1022 303 1197 303 
Q 1434 303 1822 616 
z
" transform="scale(0.015625)"/>
        <path id="TimesNewRomanPSMT-72" d="M 1038 2947 
L 1038 2303 
Q 1397 2947 1775 2947 
Q 1947 2947 2059 2842 
Q 2172 2738 2172 2600 
Q 2172 2478 2090 2393 
Q 2009 2309 1897 2309 
Q 1788 2309 1652 2417 
Q 1516 2525 1450 2525 
Q 1394 2525 1328 2463 
Q 1188 2334 1038 2041 
L 1038 669 
Q 1038 431 1097 309 
Q 1138 225 1241 169 
Q 1344 113 1538 113 
L 1538 0 
L 72 0 
L 72 113 
Q 291 113 397 181 
Q 475 231 506 341 
Q 522 394 522 644 
L 522 1753 
Q 522 2253 501 2348 
Q 481 2444 426 2487 
Q 372 2531 291 2531 
Q 194 2531 72 2484 
L 41 2597 
L 906 2947 
L 1038 2947 
z
" transform="scale(0.015625)"/>
        <path id="TimesNewRomanPSMT-73" d="M 2050 2947 
L 2050 1972 
L 1947 1972 
Q 1828 2431 1642 2597 
Q 1456 2763 1169 2763 
Q 950 2763 815 2647 
Q 681 2531 681 2391 
Q 681 2216 781 2091 
Q 878 1963 1175 1819 
L 1631 1597 
Q 2266 1288 2266 781 
Q 2266 391 1970 151 
Q 1675 -88 1309 -88 
Q 1047 -88 709 6 
Q 606 38 541 38 
Q 469 38 428 -44 
L 325 -44 
L 325 978 
L 428 978 
Q 516 541 762 319 
Q 1009 97 1316 97 
Q 1531 97 1667 223 
Q 1803 350 1803 528 
Q 1803 744 1651 891 
Q 1500 1038 1047 1263 
Q 594 1488 453 1669 
Q 313 1847 313 2119 
Q 313 2472 555 2709 
Q 797 2947 1181 2947 
Q 1350 2947 1591 2875 
Q 1750 2828 1803 2828 
Q 1853 2828 1881 2850 
Q 1909 2872 1947 2947 
L 2050 2947 
z
" transform="scale(0.015625)"/>
        <path id="TimesNewRomanPSMT-74" d="M 1031 3803 
L 1031 2863 
L 1700 2863 
L 1700 2644 
L 1031 2644 
L 1031 788 
Q 1031 509 1111 412 
Q 1191 316 1316 316 
Q 1419 316 1516 380 
Q 1613 444 1666 569 
L 1788 569 
Q 1678 263 1478 108 
Q 1278 -47 1066 -47 
Q 922 -47 784 33 
Q 647 113 581 261 
Q 516 409 516 719 
L 516 2644 
L 63 2644 
L 63 2747 
Q 234 2816 414 2980 
Q 594 3144 734 3369 
Q 806 3488 934 3803 
L 1031 3803 
z
" transform="scale(0.015625)"/>
        <path id="TimesNewRomanPSMT-20" transform="scale(0.015625)"/>
        <path id="TimesNewRomanPSMT-69" d="M 928 4444 
Q 1059 4444 1151 4351 
Q 1244 4259 1244 4128 
Q 1244 3997 1151 3903 
Q 1059 3809 928 3809 
Q 797 3809 703 3903 
Q 609 3997 609 4128 
Q 609 4259 701 4351 
Q 794 4444 928 4444 
z
M 1188 2947 
L 1188 647 
Q 1188 378 1227 289 
Q 1266 200 1342 156 
Q 1419 113 1622 113 
L 1622 0 
L 231 0 
L 231 113 
Q 441 113 512 153 
Q 584 194 626 287 
Q 669 381 669 647 
L 669 1750 
Q 669 2216 641 2353 
Q 619 2453 572 2492 
Q 525 2531 444 2531 
Q 356 2531 231 2484 
L 188 2597 
L 1050 2947 
L 1188 2947 
z
" transform="scale(0.015625)"/>
        <path id="TimesNewRomanPSMT-6e" d="M 1034 2341 
Q 1538 2947 1994 2947 
Q 2228 2947 2397 2830 
Q 2566 2713 2666 2444 
Q 2734 2256 2734 1869 
L 2734 647 
Q 2734 375 2778 278 
Q 2813 200 2889 156 
Q 2966 113 3172 113 
L 3172 0 
L 1756 0 
L 1756 113 
L 1816 113 
Q 2016 113 2095 173 
Q 2175 234 2206 353 
Q 2219 400 2219 647 
L 2219 1819 
Q 2219 2209 2117 2386 
Q 2016 2563 1775 2563 
Q 1403 2563 1034 2156 
L 1034 647 
Q 1034 356 1069 288 
Q 1113 197 1189 155 
Q 1266 113 1500 113 
L 1500 0 
L 84 0 
L 84 113 
L 147 113 
Q 366 113 442 223 
Q 519 334 519 647 
L 519 1709 
Q 519 2225 495 2337 
Q 472 2450 423 2490 
Q 375 2531 294 2531 
Q 206 2531 84 2484 
L 38 2597 
L 900 2947 
L 1034 2947 
L 1034 2341 
z
" transform="scale(0.015625)"/>
        <path id="TimesNewRomanPSMT-70" d="M -6 2578 
L 875 2934 
L 994 2934 
L 994 2266 
Q 1216 2644 1439 2795 
Q 1663 2947 1909 2947 
Q 2341 2947 2628 2609 
Q 2981 2197 2981 1534 
Q 2981 794 2556 309 
Q 2206 -88 1675 -88 
Q 1444 -88 1275 -22 
Q 1150 25 994 166 
L 994 -706 
Q 994 -1000 1030 -1079 
Q 1066 -1159 1155 -1206 
Q 1244 -1253 1478 -1253 
L 1478 -1369 
L -22 -1369 
L -22 -1253 
L 56 -1253 
Q 228 -1256 350 -1188 
Q 409 -1153 442 -1076 
Q 475 -1000 475 -688 
L 475 2019 
Q 475 2297 450 2372 
Q 425 2447 370 2484 
Q 316 2522 222 2522 
Q 147 2522 31 2478 
L -6 2578 
z
M 994 2081 
L 994 1013 
Q 994 666 1022 556 
Q 1066 375 1236 237 
Q 1406 100 1666 100 
Q 1978 100 2172 344 
Q 2425 663 2425 1241 
Q 2425 1897 2138 2250 
Q 1938 2494 1663 2494 
Q 1513 2494 1366 2419 
Q 1253 2363 994 2081 
z
" transform="scale(0.015625)"/>
        <path id="TimesNewRomanPSMT-6f" d="M 1600 2947 
Q 2250 2947 2644 2453 
Q 2978 2031 2978 1484 
Q 2978 1100 2793 706 
Q 2609 313 2286 112 
Q 1963 -88 1566 -88 
Q 919 -88 538 428 
Q 216 863 216 1403 
Q 216 1797 411 2186 
Q 606 2575 925 2761 
Q 1244 2947 1600 2947 
z
M 1503 2744 
Q 1338 2744 1170 2645 
Q 1003 2547 900 2300 
Q 797 2053 797 1666 
Q 797 1041 1045 587 
Q 1294 134 1700 134 
Q 2003 134 2200 384 
Q 2397 634 2397 1244 
Q 2397 2006 2069 2444 
Q 1847 2744 1503 2744 
z
" transform="scale(0.015625)"/>
        <path id="TimesNewRomanPSMT-6c" d="M 1184 4444 
L 1184 647 
Q 1184 378 1223 290 
Q 1263 203 1344 158 
Q 1425 113 1647 113 
L 1647 0 
L 244 0 
L 244 113 
Q 441 113 512 153 
Q 584 194 625 287 
Q 666 381 666 647 
L 666 3247 
Q 666 3731 644 3842 
Q 622 3953 573 3993 
Q 525 4034 450 4034 
Q 369 4034 244 3984 
L 191 4094 
L 1044 4444 
L 1184 4444 
z
" transform="scale(0.015625)"/>
       </defs>
       <use xlink:href="#TimesNewRomanPSMT-4e"/>
       <use xlink:href="#TimesNewRomanPSMT-65" x="72.216797"/>
       <use xlink:href="#TimesNewRomanPSMT-61" x="116.601562"/>
       <use xlink:href="#TimesNewRomanPSMT-72" x="160.986328"/>
       <use xlink:href="#TimesNewRomanPSMT-65" x="194.287109"/>
       <use xlink:href="#TimesNewRomanPSMT-73" x="238.671875"/>
       <use xlink:href="#TimesNewRomanPSMT-74" x="277.587891"/>
       <use xlink:href="#TimesNewRomanPSMT-20" x="305.371094"/>
       <use xlink:href="#TimesNewRomanPSMT-69" x="330.371094"/>
       <use xlink:href="#TimesNewRomanPSMT-6e" x="358.154297"/>
       <use xlink:href="#TimesNewRomanPSMT-74" x="408.154297"/>
       <use xlink:href="#TimesNewRomanPSMT-65" x="435.9375"/>
       <use xlink:href="#TimesNewRomanPSMT-72" x="480.322266"/>
       <use xlink:href="#TimesNewRomanPSMT-70" x="513.623047"/>
       <use xlink:href="#TimesNewRomanPSMT-6f" x="563.623047"/>
       <use xlink:href="#TimesNewRomanPSMT-6c" x="613.623047"/>
       <use xlink:href="#TimesNewRomanPSMT-61" x="641.40625"/>
       <use xlink:href="#TimesNewRomanPSMT-74" x="685.791016"/>
       <use xlink:href="#TimesNewRomanPSMT-69" x="713.574219"/>
       <use xlink:href="#TimesNewRomanPSMT-6f" x="741.357422"/>
       <use xlink:href="#TimesNewRomanPSMT-6e" x="791.357422"/>
      </g>
     </g>
    </g>
    <g id="xtick_2">
     <g id="line2d_2">
      <g>
       <use xlink:href="#mc823601a29" x="110.769563" y="179.30029" style="stroke: #000000; stroke-width: 0.8"/>
      </g>
     </g>
     <g id="text_2">
      <!-- SRP-ILA-based method -->
      <g transform="translate(37.732806 217.890463)rotate(-20)scale(0.08 -0.08)">
       <defs>
        <path id="TimesNewRomanPSMT-53" d="M 2934 4334 
L 2934 2869 
L 2819 2869 
Q 2763 3291 2617 3541 
Q 2472 3791 2203 3937 
Q 1934 4084 1647 4084 
Q 1322 4084 1109 3886 
Q 897 3688 897 3434 
Q 897 3241 1031 3081 
Q 1225 2847 1953 2456 
Q 2547 2138 2764 1967 
Q 2981 1797 3098 1565 
Q 3216 1334 3216 1081 
Q 3216 600 2842 251 
Q 2469 -97 1881 -97 
Q 1697 -97 1534 -69 
Q 1438 -53 1133 45 
Q 828 144 747 144 
Q 669 144 623 97 
Q 578 50 556 -97 
L 441 -97 
L 441 1356 
L 556 1356 
Q 638 900 775 673 
Q 913 447 1195 297 
Q 1478 147 1816 147 
Q 2206 147 2432 353 
Q 2659 559 2659 841 
Q 2659 997 2573 1156 
Q 2488 1316 2306 1453 
Q 2184 1547 1640 1851 
Q 1097 2156 867 2337 
Q 638 2519 519 2737 
Q 400 2956 400 3219 
Q 400 3675 750 4004 
Q 1100 4334 1641 4334 
Q 1978 4334 2356 4169 
Q 2531 4091 2603 4091 
Q 2684 4091 2736 4139 
Q 2788 4188 2819 4334 
L 2934 4334 
z
" transform="scale(0.015625)"/>
        <path id="TimesNewRomanPSMT-52" d="M 4325 0 
L 3194 0 
L 1759 1981 
Q 1600 1975 1500 1975 
Q 1459 1975 1412 1976 
Q 1366 1978 1316 1981 
L 1316 750 
Q 1316 350 1403 253 
Q 1522 116 1759 116 
L 1925 116 
L 1925 0 
L 109 0 
L 109 116 
L 269 116 
Q 538 116 653 291 
Q 719 388 719 750 
L 719 3488 
Q 719 3888 631 3984 
Q 509 4122 269 4122 
L 109 4122 
L 109 4238 
L 1653 4238 
Q 2328 4238 2648 4139 
Q 2969 4041 3192 3777 
Q 3416 3513 3416 3147 
Q 3416 2756 3161 2468 
Q 2906 2181 2372 2063 
L 3247 847 
Q 3547 428 3762 290 
Q 3978 153 4325 116 
L 4325 0 
z
M 1316 2178 
Q 1375 2178 1419 2176 
Q 1463 2175 1491 2175 
Q 2097 2175 2405 2437 
Q 2713 2700 2713 3106 
Q 2713 3503 2464 3751 
Q 2216 4000 1806 4000 
Q 1625 4000 1316 3941 
L 1316 2178 
z
" transform="scale(0.015625)"/>
        <path id="TimesNewRomanPSMT-50" d="M 1313 1984 
L 1313 750 
Q 1313 350 1400 253 
Q 1519 116 1759 116 
L 1922 116 
L 1922 0 
L 106 0 
L 106 116 
L 266 116 
Q 534 116 650 291 
Q 713 388 713 750 
L 713 3488 
Q 713 3888 628 3984 
Q 506 4122 266 4122 
L 106 4122 
L 106 4238 
L 1659 4238 
Q 2228 4238 2556 4120 
Q 2884 4003 3109 3725 
Q 3334 3447 3334 3066 
Q 3334 2547 2992 2222 
Q 2650 1897 2025 1897 
Q 1872 1897 1694 1919 
Q 1516 1941 1313 1984 
z
M 1313 2163 
Q 1478 2131 1606 2115 
Q 1734 2100 1825 2100 
Q 2150 2100 2386 2351 
Q 2622 2603 2622 3003 
Q 2622 3278 2509 3514 
Q 2397 3750 2190 3867 
Q 1984 3984 1722 3984 
Q 1563 3984 1313 3925 
L 1313 2163 
z
" transform="scale(0.015625)"/>
        <path id="TimesNewRomanPSMT-2d" d="M 259 1672 
L 1875 1672 
L 1875 1200 
L 259 1200 
L 259 1672 
z
" transform="scale(0.015625)"/>
        <path id="TimesNewRomanPSMT-49" d="M 1975 116 
L 1975 0 
L 159 0 
L 159 116 
L 309 116 
Q 572 116 691 269 
Q 766 369 766 750 
L 766 3488 
Q 766 3809 725 3913 
Q 694 3991 597 4047 
Q 459 4122 309 4122 
L 159 4122 
L 159 4238 
L 1975 4238 
L 1975 4122 
L 1822 4122 
Q 1563 4122 1444 3969 
Q 1366 3869 1366 3488 
L 1366 750 
Q 1366 428 1406 325 
Q 1438 247 1538 191 
Q 1672 116 1822 116 
L 1975 116 
z
" transform="scale(0.015625)"/>
        <path id="TimesNewRomanPSMT-4c" d="M 3669 1172 
L 3772 1150 
L 3409 0 
L 128 0 
L 128 116 
L 288 116 
Q 556 116 672 291 
Q 738 391 738 753 
L 738 3488 
Q 738 3884 650 3984 
Q 528 4122 288 4122 
L 128 4122 
L 128 4238 
L 2047 4238 
L 2047 4122 
Q 1709 4125 1573 4059 
Q 1438 3994 1388 3894 
Q 1338 3794 1338 3416 
L 1338 753 
Q 1338 494 1388 397 
Q 1425 331 1503 300 
Q 1581 269 1991 269 
L 2300 269 
Q 2788 269 2984 341 
Q 3181 413 3343 595 
Q 3506 778 3669 1172 
z
" transform="scale(0.015625)"/>
        <path id="TimesNewRomanPSMT-41" d="M 2928 1419 
L 1288 1419 
L 1000 750 
Q 894 503 894 381 
Q 894 284 986 211 
Q 1078 138 1384 116 
L 1384 0 
L 50 0 
L 50 116 
Q 316 163 394 238 
Q 553 388 747 847 
L 2238 4334 
L 2347 4334 
L 3822 809 
Q 4000 384 4145 257 
Q 4291 131 4550 116 
L 4550 0 
L 2878 0 
L 2878 116 
Q 3131 128 3220 200 
Q 3309 272 3309 375 
Q 3309 513 3184 809 
L 2928 1419 
z
M 2841 1650 
L 2122 3363 
L 1384 1650 
L 2841 1650 
z
" transform="scale(0.015625)"/>
        <path id="TimesNewRomanPSMT-62" d="M 984 2369 
Q 1400 2947 1881 2947 
Q 2322 2947 2650 2570 
Q 2978 2194 2978 1541 
Q 2978 778 2472 313 
Q 2038 -88 1503 -88 
Q 1253 -88 995 3 
Q 738 94 469 275 
L 469 3241 
Q 469 3728 445 3840 
Q 422 3953 372 3993 
Q 322 4034 247 4034 
Q 159 4034 28 3984 
L -16 4094 
L 844 4444 
L 984 4444 
L 984 2369 
z
M 984 2169 
L 984 456 
Q 1144 300 1314 220 
Q 1484 141 1663 141 
Q 1947 141 2192 453 
Q 2438 766 2438 1363 
Q 2438 1913 2192 2208 
Q 1947 2503 1634 2503 
Q 1469 2503 1303 2419 
Q 1178 2356 984 2169 
z
" transform="scale(0.015625)"/>
        <path id="TimesNewRomanPSMT-64" d="M 2222 322 
Q 2013 103 1813 7 
Q 1613 -88 1381 -88 
Q 913 -88 563 304 
Q 213 697 213 1313 
Q 213 1928 600 2439 
Q 988 2950 1597 2950 
Q 1975 2950 2222 2709 
L 2222 3238 
Q 2222 3728 2198 3840 
Q 2175 3953 2125 3993 
Q 2075 4034 2000 4034 
Q 1919 4034 1784 3984 
L 1744 4094 
L 2597 4444 
L 2738 4444 
L 2738 1134 
Q 2738 631 2761 520 
Q 2784 409 2836 365 
Q 2888 322 2956 322 
Q 3041 322 3181 375 
L 3216 266 
L 2366 -88 
L 2222 -88 
L 2222 322 
z
M 2222 541 
L 2222 2016 
Q 2203 2228 2109 2403 
Q 2016 2578 1861 2667 
Q 1706 2756 1559 2756 
Q 1284 2756 1069 2509 
Q 784 2184 784 1559 
Q 784 928 1059 592 
Q 1334 256 1672 256 
Q 1956 256 2222 541 
z
" transform="scale(0.015625)"/>
        <path id="TimesNewRomanPSMT-6d" d="M 1050 2338 
Q 1363 2650 1419 2697 
Q 1559 2816 1721 2881 
Q 1884 2947 2044 2947 
Q 2313 2947 2506 2790 
Q 2700 2634 2766 2338 
Q 3088 2713 3309 2830 
Q 3531 2947 3766 2947 
Q 3994 2947 4170 2830 
Q 4347 2713 4450 2447 
Q 4519 2266 4519 1878 
L 4519 647 
Q 4519 378 4559 278 
Q 4591 209 4675 161 
Q 4759 113 4950 113 
L 4950 0 
L 3538 0 
L 3538 113 
L 3597 113 
Q 3781 113 3884 184 
Q 3956 234 3988 344 
Q 4000 397 4000 647 
L 4000 1878 
Q 4000 2228 3916 2372 
Q 3794 2572 3525 2572 
Q 3359 2572 3192 2489 
Q 3025 2406 2788 2181 
L 2781 2147 
L 2788 2013 
L 2788 647 
Q 2788 353 2820 281 
Q 2853 209 2943 161 
Q 3034 113 3253 113 
L 3253 0 
L 1806 0 
L 1806 113 
Q 2044 113 2133 169 
Q 2222 225 2256 338 
Q 2272 391 2272 647 
L 2272 1878 
Q 2272 2228 2169 2381 
Q 2031 2581 1784 2581 
Q 1616 2581 1450 2491 
Q 1191 2353 1050 2181 
L 1050 647 
Q 1050 366 1089 281 
Q 1128 197 1204 155 
Q 1281 113 1516 113 
L 1516 0 
L 100 0 
L 100 113 
Q 297 113 375 155 
Q 453 197 493 289 
Q 534 381 534 647 
L 534 1741 
Q 534 2213 506 2350 
Q 484 2453 437 2492 
Q 391 2531 309 2531 
Q 222 2531 100 2484 
L 53 2597 
L 916 2947 
L 1050 2947 
L 1050 2338 
z
" transform="scale(0.015625)"/>
        <path id="TimesNewRomanPSMT-68" d="M 1041 4444 
L 1041 2350 
Q 1388 2731 1591 2839 
Q 1794 2947 1997 2947 
Q 2241 2947 2416 2812 
Q 2591 2678 2675 2391 
Q 2734 2191 2734 1659 
L 2734 647 
Q 2734 375 2778 275 
Q 2809 200 2884 156 
Q 2959 113 3159 113 
L 3159 0 
L 1753 0 
L 1753 113 
L 1819 113 
Q 2019 113 2097 173 
Q 2175 234 2206 353 
Q 2216 403 2216 647 
L 2216 1659 
Q 2216 2128 2167 2275 
Q 2119 2422 2012 2495 
Q 1906 2569 1756 2569 
Q 1603 2569 1437 2487 
Q 1272 2406 1041 2159 
L 1041 647 
Q 1041 353 1073 281 
Q 1106 209 1195 161 
Q 1284 113 1503 113 
L 1503 0 
L 84 0 
L 84 113 
Q 275 113 384 172 
Q 447 203 484 290 
Q 522 378 522 647 
L 522 3238 
Q 522 3728 498 3840 
Q 475 3953 426 3993 
Q 378 4034 297 4034 
Q 231 4034 84 3984 
L 41 4094 
L 897 4444 
L 1041 4444 
z
" transform="scale(0.015625)"/>
       </defs>
       <use xlink:href="#TimesNewRomanPSMT-53"/>
       <use xlink:href="#TimesNewRomanPSMT-52" x="55.615234"/>
       <use xlink:href="#TimesNewRomanPSMT-50" x="122.314453"/>
       <use xlink:href="#TimesNewRomanPSMT-2d" x="177.929688"/>
       <use xlink:href="#TimesNewRomanPSMT-49" x="211.230469"/>
       <use xlink:href="#TimesNewRomanPSMT-4c" x="244.53125"/>
       <use xlink:href="#TimesNewRomanPSMT-41" x="305.615234"/>
       <use xlink:href="#TimesNewRomanPSMT-2d" x="377.832031"/>
       <use xlink:href="#TimesNewRomanPSMT-62" x="411.132812"/>
       <use xlink:href="#TimesNewRomanPSMT-61" x="461.132812"/>
       <use xlink:href="#TimesNewRomanPSMT-73" x="505.517578"/>
       <use xlink:href="#TimesNewRomanPSMT-65" x="544.433594"/>
       <use xlink:href="#TimesNewRomanPSMT-64" x="588.818359"/>
       <use xlink:href="#TimesNewRomanPSMT-20" x="638.818359"/>
       <use xlink:href="#TimesNewRomanPSMT-6d" x="663.818359"/>
       <use xlink:href="#TimesNewRomanPSMT-65" x="741.601562"/>
       <use xlink:href="#TimesNewRomanPSMT-74" x="785.986328"/>
       <use xlink:href="#TimesNewRomanPSMT-68" x="813.769531"/>
       <use xlink:href="#TimesNewRomanPSMT-6f" x="863.769531"/>
       <use xlink:href="#TimesNewRomanPSMT-64" x="913.769531"/>
      </g>
     </g>
    </g>
    <g id="xtick_3">
     <g id="line2d_3">
      <g>
       <use xlink:href="#mc823601a29" x="146.602101" y="179.30029" style="stroke: #000000; stroke-width: 0.8"/>
      </g>
     </g>
     <g id="text_3">
      <!-- SRPCNN-based method -->
      <g transform="translate(72.71962 218.198282)rotate(-20)scale(0.08 -0.08)">
       <defs>
        <path id="TimesNewRomanPSMT-43" d="M 3853 4334 
L 3950 2894 
L 3853 2894 
Q 3659 3541 3300 3825 
Q 2941 4109 2438 4109 
Q 2016 4109 1675 3895 
Q 1334 3681 1139 3212 
Q 944 2744 944 2047 
Q 944 1472 1128 1050 
Q 1313 628 1683 403 
Q 2053 178 2528 178 
Q 2941 178 3256 354 
Q 3572 531 3950 1056 
L 4047 994 
Q 3728 428 3303 165 
Q 2878 -97 2294 -97 
Q 1241 -97 663 684 
Q 231 1266 231 2053 
Q 231 2688 515 3219 
Q 800 3750 1298 4042 
Q 1797 4334 2388 4334 
Q 2847 4334 3294 4109 
Q 3425 4041 3481 4041 
Q 3566 4041 3628 4100 
Q 3709 4184 3744 4334 
L 3853 4334 
z
" transform="scale(0.015625)"/>
       </defs>
       <use xlink:href="#TimesNewRomanPSMT-53"/>
       <use xlink:href="#TimesNewRomanPSMT-52" x="55.615234"/>
       <use xlink:href="#TimesNewRomanPSMT-50" x="122.314453"/>
       <use xlink:href="#TimesNewRomanPSMT-43" x="177.929688"/>
       <use xlink:href="#TimesNewRomanPSMT-4e" x="244.628906"/>
       <use xlink:href="#TimesNewRomanPSMT-4e" x="316.845703"/>
       <use xlink:href="#TimesNewRomanPSMT-2d" x="389.0625"/>
       <use xlink:href="#TimesNewRomanPSMT-62" x="422.363281"/>
       <use xlink:href="#TimesNewRomanPSMT-61" x="472.363281"/>
       <use xlink:href="#TimesNewRomanPSMT-73" x="516.748047"/>
       <use xlink:href="#TimesNewRomanPSMT-65" x="555.664062"/>
       <use xlink:href="#TimesNewRomanPSMT-64" x="600.048828"/>
       <use xlink:href="#TimesNewRomanPSMT-20" x="650.048828"/>
       <use xlink:href="#TimesNewRomanPSMT-6d" x="675.048828"/>
       <use xlink:href="#TimesNewRomanPSMT-65" x="752.832031"/>
       <use xlink:href="#TimesNewRomanPSMT-74" x="797.216797"/>
       <use xlink:href="#TimesNewRomanPSMT-68" x="825"/>
       <use xlink:href="#TimesNewRomanPSMT-6f" x="875"/>
       <use xlink:href="#TimesNewRomanPSMT-64" x="925"/>
      </g>
     </g>
    </g>
    <g id="xtick_4">
     <g id="line2d_4">
      <g>
       <use xlink:href="#mc823601a29" x="182.434638" y="179.30029" style="stroke: #000000; stroke-width: 0.8"/>
      </g>
     </g>
     <g id="text_4">
      <!-- Generator-only method -->
      <g transform="translate(111.645663 217.07047)rotate(-20)scale(0.08 -0.08)">
       <defs>
        <path id="TimesNewRomanPSMT-47" d="M 3928 4334 
L 4038 2997 
L 3928 2997 
Q 3763 3497 3500 3750 
Q 3122 4116 2528 4116 
Q 1719 4116 1297 3475 
Q 944 2934 944 2188 
Q 944 1581 1178 1081 
Q 1413 581 1792 348 
Q 2172 116 2572 116 
Q 2806 116 3025 175 
Q 3244 234 3447 350 
L 3447 1575 
Q 3447 1894 3398 1992 
Q 3350 2091 3248 2142 
Q 3147 2194 2891 2194 
L 2891 2313 
L 4531 2313 
L 4531 2194 
L 4453 2194 
Q 4209 2194 4119 2031 
Q 4056 1916 4056 1575 
L 4056 278 
Q 3697 84 3347 -6 
Q 2997 -97 2569 -97 
Q 1341 -97 703 691 
Q 225 1281 225 2053 
Q 225 2613 494 3125 
Q 813 3734 1369 4063 
Q 1834 4334 2469 4334 
Q 2700 4334 2889 4296 
Q 3078 4259 3425 4131 
Q 3600 4066 3659 4066 
Q 3719 4066 3761 4120 
Q 3803 4175 3813 4334 
L 3928 4334 
z
" transform="scale(0.015625)"/>
        <path id="TimesNewRomanPSMT-79" d="M 38 2863 
L 1372 2863 
L 1372 2747 
L 1306 2747 
Q 1166 2747 1095 2686 
Q 1025 2625 1025 2534 
Q 1025 2413 1128 2197 
L 1825 753 
L 2466 2334 
Q 2519 2463 2519 2588 
Q 2519 2644 2497 2672 
Q 2472 2706 2419 2726 
Q 2366 2747 2231 2747 
L 2231 2863 
L 3163 2863 
L 3163 2747 
Q 3047 2734 2984 2696 
Q 2922 2659 2847 2556 
Q 2819 2513 2741 2316 
L 1575 -541 
Q 1406 -956 1132 -1168 
Q 859 -1381 606 -1381 
Q 422 -1381 303 -1275 
Q 184 -1169 184 -1031 
Q 184 -900 270 -820 
Q 356 -741 506 -741 
Q 609 -741 788 -809 
Q 913 -856 944 -856 
Q 1038 -856 1148 -759 
Q 1259 -663 1372 -384 
L 1575 113 
L 547 2272 
Q 500 2369 397 2513 
Q 319 2622 269 2659 
Q 197 2709 38 2747 
L 38 2863 
z
" transform="scale(0.015625)"/>
       </defs>
       <use xlink:href="#TimesNewRomanPSMT-47"/>
       <use xlink:href="#TimesNewRomanPSMT-65" x="72.216797"/>
       <use xlink:href="#TimesNewRomanPSMT-6e" x="116.601562"/>
       <use xlink:href="#TimesNewRomanPSMT-65" x="166.601562"/>
       <use xlink:href="#TimesNewRomanPSMT-72" x="210.986328"/>
       <use xlink:href="#TimesNewRomanPSMT-61" x="244.287109"/>
       <use xlink:href="#TimesNewRomanPSMT-74" x="288.671875"/>
       <use xlink:href="#TimesNewRomanPSMT-6f" x="316.455078"/>
       <use xlink:href="#TimesNewRomanPSMT-72" x="366.455078"/>
       <use xlink:href="#TimesNewRomanPSMT-2d" x="397.755859"/>
       <use xlink:href="#TimesNewRomanPSMT-6f" x="431.056641"/>
       <use xlink:href="#TimesNewRomanPSMT-6e" x="481.056641"/>
       <use xlink:href="#TimesNewRomanPSMT-6c" x="531.056641"/>
       <use xlink:href="#TimesNewRomanPSMT-79" x="558.839844"/>
       <use xlink:href="#TimesNewRomanPSMT-20" x="608.839844"/>
       <use xlink:href="#TimesNewRomanPSMT-6d" x="633.839844"/>
       <use xlink:href="#TimesNewRomanPSMT-65" x="711.623047"/>
       <use xlink:href="#TimesNewRomanPSMT-74" x="756.007812"/>
       <use xlink:href="#TimesNewRomanPSMT-68" x="783.791016"/>
       <use xlink:href="#TimesNewRomanPSMT-6f" x="833.791016"/>
       <use xlink:href="#TimesNewRomanPSMT-64" x="883.791016"/>
      </g>
     </g>
    </g>
    <g id="xtick_5">
     <g id="line2d_5">
      <g>
       <use xlink:href="#mc823601a29" x="218.267176" y="179.30029" style="stroke: #000000; stroke-width: 0.8"/>
      </g>
     </g>
     <g id="text_5">
      <!-- The proposed system -->
      <g transform="translate(153.787062 214.774232)rotate(-20)scale(0.08 -0.08)">
       <defs>
        <path id="TimesNewRomanPSMT-54" d="M 3703 4238 
L 3750 3244 
L 3631 3244 
Q 3597 3506 3538 3619 
Q 3441 3800 3280 3886 
Q 3119 3972 2856 3972 
L 2259 3972 
L 2259 734 
Q 2259 344 2344 247 
Q 2463 116 2709 116 
L 2856 116 
L 2856 0 
L 1059 0 
L 1059 116 
L 1209 116 
Q 1478 116 1591 278 
Q 1659 378 1659 734 
L 1659 3972 
L 1150 3972 
Q 853 3972 728 3928 
Q 566 3869 450 3700 
Q 334 3531 313 3244 
L 194 3244 
L 244 4238 
L 3703 4238 
z
" transform="scale(0.015625)"/>
       </defs>
       <use xlink:href="#TimesNewRomanPSMT-54"/>
       <use xlink:href="#TimesNewRomanPSMT-68" x="61.083984"/>
       <use xlink:href="#TimesNewRomanPSMT-65" x="111.083984"/>
       <use xlink:href="#TimesNewRomanPSMT-20" x="155.46875"/>
       <use xlink:href="#TimesNewRomanPSMT-70" x="180.46875"/>
       <use xlink:href="#TimesNewRomanPSMT-72" x="230.46875"/>
       <use xlink:href="#TimesNewRomanPSMT-6f" x="263.769531"/>
       <use xlink:href="#TimesNewRomanPSMT-70" x="313.769531"/>
       <use xlink:href="#TimesNewRomanPSMT-6f" x="363.769531"/>
       <use xlink:href="#TimesNewRomanPSMT-73" x="413.769531"/>
       <use xlink:href="#TimesNewRomanPSMT-65" x="452.685547"/>
       <use xlink:href="#TimesNewRomanPSMT-64" x="497.070312"/>
       <use xlink:href="#TimesNewRomanPSMT-20" x="547.070312"/>
       <use xlink:href="#TimesNewRomanPSMT-73" x="572.070312"/>
       <use xlink:href="#TimesNewRomanPSMT-79" x="610.986328"/>
       <use xlink:href="#TimesNewRomanPSMT-73" x="660.986328"/>
       <use xlink:href="#TimesNewRomanPSMT-74" x="699.902344"/>
       <use xlink:href="#TimesNewRomanPSMT-65" x="727.685547"/>
       <use xlink:href="#TimesNewRomanPSMT-6d" x="772.070312"/>
      </g>
     </g>
    </g>
   </g>
   <g id="matplotlib.axis_2">
    <g id="ytick_1">
     <g id="line2d_6">
      <defs>
       <path id="mc6e65b5330" d="M 0 0 
L -3.5 0 
" style="stroke: #000000; stroke-width: 0.8"/>
      </defs>
      <g>
       <use xlink:href="#mc6e65b5330" x="52.004202" y="179.30029" style="stroke: #000000; stroke-width: 0.8"/>
      </g>
     </g>
     <g id="text_6">
      <!-- 0.0 -->
      <g transform="translate(35.004202 182.07779)scale(0.08 -0.08)">
       <defs>
        <path id="TimesNewRomanPSMT-30" d="M 231 2094 
Q 231 2819 450 3342 
Q 669 3866 1031 4122 
Q 1313 4325 1613 4325 
Q 2100 4325 2488 3828 
Q 2972 3213 2972 2159 
Q 2972 1422 2759 906 
Q 2547 391 2217 158 
Q 1888 -75 1581 -75 
Q 975 -75 572 641 
Q 231 1244 231 2094 
z
M 844 2016 
Q 844 1141 1059 588 
Q 1238 122 1591 122 
Q 1759 122 1940 273 
Q 2122 425 2216 781 
Q 2359 1319 2359 2297 
Q 2359 3022 2209 3506 
Q 2097 3866 1919 4016 
Q 1791 4119 1609 4119 
Q 1397 4119 1231 3928 
Q 1006 3669 925 3112 
Q 844 2556 844 2016 
z
" transform="scale(0.015625)"/>
        <path id="TimesNewRomanPSMT-2e" d="M 800 606 
Q 947 606 1047 504 
Q 1147 403 1147 259 
Q 1147 116 1045 14 
Q 944 -88 800 -88 
Q 656 -88 554 14 
Q 453 116 453 259 
Q 453 406 554 506 
Q 656 606 800 606 
z
" transform="scale(0.015625)"/>
       </defs>
       <use xlink:href="#TimesNewRomanPSMT-30"/>
       <use xlink:href="#TimesNewRomanPSMT-2e" x="50"/>
       <use xlink:href="#TimesNewRomanPSMT-30" x="75"/>
      </g>
     </g>
    </g>
    <g id="ytick_2">
     <g id="line2d_7">
      <g>
       <use xlink:href="#mc6e65b5330" x="52.004202" y="143.707666" style="stroke: #000000; stroke-width: 0.8"/>
      </g>
     </g>
     <g id="text_7">
      <!-- 0.1 -->
      <g transform="translate(35.004202 146.485166)scale(0.08 -0.08)">
       <defs>
        <path id="TimesNewRomanPSMT-31" d="M 750 3822 
L 1781 4325 
L 1884 4325 
L 1884 747 
Q 1884 391 1914 303 
Q 1944 216 2037 169 
Q 2131 122 2419 116 
L 2419 0 
L 825 0 
L 825 116 
Q 1125 122 1212 167 
Q 1300 213 1334 289 
Q 1369 366 1369 747 
L 1369 3034 
Q 1369 3497 1338 3628 
Q 1316 3728 1258 3775 
Q 1200 3822 1119 3822 
Q 1003 3822 797 3725 
L 750 3822 
z
" transform="scale(0.015625)"/>
       </defs>
       <use xlink:href="#TimesNewRomanPSMT-30"/>
       <use xlink:href="#TimesNewRomanPSMT-2e" x="50"/>
       <use xlink:href="#TimesNewRomanPSMT-31" x="75"/>
      </g>
     </g>
    </g>
    <g id="ytick_3">
     <g id="line2d_8">
      <g>
       <use xlink:href="#mc6e65b5330" x="52.004202" y="108.115041" style="stroke: #000000; stroke-width: 0.8"/>
      </g>
     </g>
     <g id="text_8">
      <!-- 0.2 -->
      <g transform="translate(35.004202 110.892541)scale(0.08 -0.08)">
       <defs>
        <path id="TimesNewRomanPSMT-32" d="M 2934 816 
L 2638 0 
L 138 0 
L 138 116 
Q 1241 1122 1691 1759 
Q 2141 2397 2141 2925 
Q 2141 3328 1894 3587 
Q 1647 3847 1303 3847 
Q 991 3847 742 3664 
Q 494 3481 375 3128 
L 259 3128 
Q 338 3706 661 4015 
Q 984 4325 1469 4325 
Q 1984 4325 2329 3994 
Q 2675 3663 2675 3213 
Q 2675 2891 2525 2569 
Q 2294 2063 1775 1497 
Q 997 647 803 472 
L 1909 472 
Q 2247 472 2383 497 
Q 2519 522 2628 598 
Q 2738 675 2819 816 
L 2934 816 
z
" transform="scale(0.015625)"/>
       </defs>
       <use xlink:href="#TimesNewRomanPSMT-30"/>
       <use xlink:href="#TimesNewRomanPSMT-2e" x="50"/>
       <use xlink:href="#TimesNewRomanPSMT-32" x="75"/>
      </g>
     </g>
    </g>
    <g id="ytick_4">
     <g id="line2d_9">
      <g>
       <use xlink:href="#mc6e65b5330" x="52.004202" y="72.522416" style="stroke: #000000; stroke-width: 0.8"/>
      </g>
     </g>
     <g id="text_9">
      <!-- 0.3 -->
      <g transform="translate(35.004202 75.299916)scale(0.08 -0.08)">
       <defs>
        <path id="TimesNewRomanPSMT-33" d="M 325 3431 
Q 506 3859 782 4092 
Q 1059 4325 1472 4325 
Q 1981 4325 2253 3994 
Q 2459 3747 2459 3466 
Q 2459 3003 1878 2509 
Q 2269 2356 2469 2072 
Q 2669 1788 2669 1403 
Q 2669 853 2319 450 
Q 1863 -75 997 -75 
Q 569 -75 414 31 
Q 259 138 259 259 
Q 259 350 332 419 
Q 406 488 509 488 
Q 588 488 669 463 
Q 722 447 909 348 
Q 1097 250 1169 231 
Q 1284 197 1416 197 
Q 1734 197 1970 444 
Q 2206 691 2206 1028 
Q 2206 1275 2097 1509 
Q 2016 1684 1919 1775 
Q 1784 1900 1550 2001 
Q 1316 2103 1072 2103 
L 972 2103 
L 972 2197 
Q 1219 2228 1467 2375 
Q 1716 2522 1828 2728 
Q 1941 2934 1941 3181 
Q 1941 3503 1739 3701 
Q 1538 3900 1238 3900 
Q 753 3900 428 3381 
L 325 3431 
z
" transform="scale(0.015625)"/>
       </defs>
       <use xlink:href="#TimesNewRomanPSMT-30"/>
       <use xlink:href="#TimesNewRomanPSMT-2e" x="50"/>
       <use xlink:href="#TimesNewRomanPSMT-33" x="75"/>
      </g>
     </g>
    </g>
    <g id="ytick_5">
     <g id="line2d_10">
      <g>
       <use xlink:href="#mc6e65b5330" x="52.004202" y="36.929792" style="stroke: #000000; stroke-width: 0.8"/>
      </g>
     </g>
     <g id="text_10">
      <!-- 0.4 -->
      <g transform="translate(35.004202 39.707292)scale(0.08 -0.08)">
       <defs>
        <path id="TimesNewRomanPSMT-34" d="M 2978 1563 
L 2978 1119 
L 2409 1119 
L 2409 0 
L 1894 0 
L 1894 1119 
L 100 1119 
L 100 1519 
L 2066 4325 
L 2409 4325 
L 2409 1563 
L 2978 1563 
z
M 1894 1563 
L 1894 3666 
L 406 1563 
L 1894 1563 
z
" transform="scale(0.015625)"/>
       </defs>
       <use xlink:href="#TimesNewRomanPSMT-30"/>
       <use xlink:href="#TimesNewRomanPSMT-2e" x="50"/>
       <use xlink:href="#TimesNewRomanPSMT-34" x="75"/>
      </g>
     </g>
    </g>
    <g id="text_11">
     <!-- RMSE (kW) -->
     <g transform="translate(29.079045 117.923505)rotate(-90)scale(0.09 -0.09)">
      <defs>
       <path id="TimesNewRomanPSMT-4d" d="M 2619 0 
L 981 3566 
L 981 734 
Q 981 344 1066 247 
Q 1181 116 1431 116 
L 1581 116 
L 1581 0 
L 106 0 
L 106 116 
L 256 116 
Q 525 116 638 278 
Q 706 378 706 734 
L 706 3503 
Q 706 3784 644 3909 
Q 600 4000 483 4061 
Q 366 4122 106 4122 
L 106 4238 
L 1306 4238 
L 2844 922 
L 4356 4238 
L 5556 4238 
L 5556 4122 
L 5409 4122 
Q 5138 4122 5025 3959 
Q 4956 3859 4956 3503 
L 4956 734 
Q 4956 344 5044 247 
Q 5159 116 5409 116 
L 5556 116 
L 5556 0 
L 3756 0 
L 3756 116 
L 3906 116 
Q 4178 116 4288 278 
Q 4356 378 4356 734 
L 4356 3566 
L 2722 0 
L 2619 0 
z
" transform="scale(0.015625)"/>
       <path id="TimesNewRomanPSMT-45" d="M 1338 4006 
L 1338 2331 
L 2269 2331 
Q 2631 2331 2753 2441 
Q 2916 2584 2934 2947 
L 3050 2947 
L 3050 1472 
L 2934 1472 
Q 2891 1781 2847 1869 
Q 2791 1978 2662 2040 
Q 2534 2103 2269 2103 
L 1338 2103 
L 1338 706 
Q 1338 425 1363 364 
Q 1388 303 1450 267 
Q 1513 231 1688 231 
L 2406 231 
Q 2766 231 2928 281 
Q 3091 331 3241 478 
Q 3434 672 3638 1063 
L 3763 1063 
L 3397 0 
L 131 0 
L 131 116 
L 281 116 
Q 431 116 566 188 
Q 666 238 702 338 
Q 738 438 738 747 
L 738 3500 
Q 738 3903 656 3997 
Q 544 4122 281 4122 
L 131 4122 
L 131 4238 
L 3397 4238 
L 3444 3309 
L 3322 3309 
Q 3256 3644 3176 3769 
Q 3097 3894 2941 3959 
Q 2816 4006 2500 4006 
L 1338 4006 
z
" transform="scale(0.015625)"/>
       <path id="TimesNewRomanPSMT-28" d="M 1988 -1253 
L 1988 -1369 
Q 1516 -1131 1200 -813 
Q 750 -359 506 256 
Q 263 872 263 1534 
Q 263 2503 741 3301 
Q 1219 4100 1988 4444 
L 1988 4313 
Q 1603 4100 1356 3731 
Q 1109 3363 987 2797 
Q 866 2231 866 1616 
Q 866 947 969 400 
Q 1050 -31 1165 -292 
Q 1281 -553 1476 -793 
Q 1672 -1034 1988 -1253 
z
" transform="scale(0.015625)"/>
       <path id="TimesNewRomanPSMT-6b" d="M 1047 4444 
L 1047 1597 
L 1775 2259 
Q 2006 2472 2044 2528 
Q 2069 2566 2069 2603 
Q 2069 2666 2017 2711 
Q 1966 2756 1847 2763 
L 1847 2863 
L 3091 2863 
L 3091 2763 
Q 2834 2756 2664 2684 
Q 2494 2613 2291 2428 
L 1556 1750 
L 2291 822 
Q 2597 438 2703 334 
Q 2853 188 2966 144 
Q 3044 113 3238 113 
L 3238 0 
L 1847 0 
L 1847 113 
Q 1966 116 2008 148 
Q 2050 181 2050 241 
Q 2050 313 1925 472 
L 1047 1594 
L 1047 644 
Q 1047 366 1086 278 
Q 1125 191 1197 153 
Q 1269 116 1509 113 
L 1509 0 
L 53 0 
L 53 113 
Q 272 113 381 166 
Q 447 200 481 272 
Q 528 375 528 628 
L 528 3234 
Q 528 3731 506 3842 
Q 484 3953 434 3995 
Q 384 4038 303 4038 
Q 238 4038 106 3984 
L 53 4094 
L 903 4444 
L 1047 4444 
z
" transform="scale(0.015625)"/>
       <path id="TimesNewRomanPSMT-57" d="M 5991 4238 
L 5991 4122 
Q 5825 4122 5722 4062 
Q 5619 4003 5525 3841 
Q 5463 3731 5328 3319 
L 4147 -97 
L 4022 -97 
L 3056 2613 
L 2097 -97 
L 1984 -97 
L 725 3422 
Q 584 3816 547 3888 
Q 484 4006 376 4064 
Q 269 4122 84 4122 
L 84 4238 
L 1653 4238 
L 1653 4122 
L 1578 4122 
Q 1413 4122 1325 4047 
Q 1238 3972 1238 3866 
Q 1238 3756 1375 3363 
L 2209 984 
L 2913 3006 
L 2788 3363 
L 2688 3647 
Q 2622 3803 2541 3922 
Q 2500 3981 2441 4022 
Q 2363 4078 2284 4103 
Q 2225 4122 2097 4122 
L 2097 4238 
L 3747 4238 
L 3747 4122 
L 3634 4122 
Q 3459 4122 3378 4047 
Q 3297 3972 3297 3844 
Q 3297 3684 3438 3288 
L 4250 984 
L 5056 3319 
Q 5194 3706 5194 3856 
Q 5194 3928 5148 3990 
Q 5103 4053 5034 4078 
Q 4916 4122 4725 4122 
L 4725 4238 
L 5991 4238 
z
" transform="scale(0.015625)"/>
       <path id="TimesNewRomanPSMT-29" d="M 144 4313 
L 144 4444 
Q 619 4209 934 3891 
Q 1381 3434 1625 2820 
Q 1869 2206 1869 1541 
Q 1869 572 1392 -226 
Q 916 -1025 144 -1369 
L 144 -1253 
Q 528 -1038 776 -670 
Q 1025 -303 1145 264 
Q 1266 831 1266 1447 
Q 1266 2113 1163 2663 
Q 1084 3094 967 3353 
Q 850 3613 656 3853 
Q 463 4094 144 4313 
z
" transform="scale(0.015625)"/>
      </defs>
      <use xlink:href="#TimesNewRomanPSMT-52"/>
      <use xlink:href="#TimesNewRomanPSMT-4d" x="66.699219"/>
      <use xlink:href="#TimesNewRomanPSMT-53" x="155.615234"/>
      <use xlink:href="#TimesNewRomanPSMT-45" x="211.230469"/>
      <use xlink:href="#TimesNewRomanPSMT-20" x="272.314453"/>
      <use xlink:href="#TimesNewRomanPSMT-28" x="297.314453"/>
      <use xlink:href="#TimesNewRomanPSMT-6b" x="330.615234"/>
      <use xlink:href="#TimesNewRomanPSMT-57" x="380.615234"/>
      <use xlink:href="#TimesNewRomanPSMT-29" x="475"/>
     </g>
    </g>
   </g>
   <g id="patch_23">
    <path d="M 52.004202 179.30029 
L 52.004202 10.8 
" style="fill: none; stroke: #000000; stroke-width: 0.8; stroke-linejoin: miter; stroke-linecap: square"/>
   </g>
   <g id="patch_24">
    <path d="M 241.2 179.30029 
L 241.2 10.8 
" style="fill: none; stroke: #000000; stroke-width: 0.8; stroke-linejoin: miter; stroke-linecap: square"/>
   </g>
   <g id="patch_25">
    <path d="M 52.004202 179.30029 
L 241.2 179.30029 
" style="fill: none; stroke: #000000; stroke-width: 0.8; stroke-linejoin: miter; stroke-linecap: square"/>
   </g>
   <g id="patch_26">
    <path d="M 52.004202 10.8 
L 241.2 10.8 
" style="fill: none; stroke: #000000; stroke-width: 0.8; stroke-linejoin: miter; stroke-linecap: square"/>
   </g>
   <g id="legend_1">
    <g id="patch_27">
     <path d="M 112.83126 103.335078 
L 179.54126 103.335078 
Q 180.94126 103.335078 180.94126 101.935078 
L 180.94126 61.195078 
Q 180.94126 59.795078 179.54126 59.795078 
L 112.83126 59.795078 
Q 111.43126 59.795078 111.43126 61.195078 
L 111.43126 101.935078 
Q 111.43126 103.335078 112.83126 103.335078 
z
" style="fill: #ffffff; opacity: 0.8; stroke: #cccccc; stroke-linejoin: miter"/>
    </g>
    <g id="patch_28">
     <path d="M 114.23126 67.957735 
L 128.23126 67.957735 
L 128.23126 63.057735 
L 114.23126 63.057735 
z
" style="fill: #1f77b4"/>
    </g>
    <g id="text_12">
     <!-- $\omega=2, \mathcal{N}(0,0)$ -->
     <g transform="translate(133.83126 67.957735)scale(0.07 -0.07)">
      <defs>
       <path id="STIXGeneral-Italic-3c9" d="M 3021 2810 
L 3136 2810 
Q 3648 2810 3898 2598 
Q 4186 2355 4186 1824 
Q 4186 1357 3910 838 
Q 3667 390 3334 160 
Q 3002 -70 2669 -70 
Q 2438 -70 2281 3 
Q 2125 77 2064 160 
Q 2003 243 1939 384 
Q 1741 147 1533 38 
Q 1325 -70 998 -70 
Q 659 -70 416 160 
Q 173 390 173 832 
Q 173 1101 237 1350 
Q 403 1965 883 2387 
Q 1363 2810 2010 2810 
L 2125 2810 
L 2125 2707 
Q 1606 2707 1267 2291 
Q 1024 1990 867 1526 
Q 710 1062 710 666 
Q 710 64 1075 64 
Q 1286 64 1523 285 
Q 1760 506 1856 774 
Q 1837 915 1837 1101 
Q 1837 1363 1914 1651 
Q 1984 1920 2125 2105 
Q 2266 2291 2432 2291 
Q 2656 2291 2656 1997 
Q 2656 1530 2387 1062 
Q 2272 864 2189 736 
Q 2176 691 2176 602 
Q 2176 384 2288 224 
Q 2400 64 2592 64 
Q 3040 64 3341 627 
Q 3482 896 3565 1270 
Q 3648 1645 3648 1971 
Q 3648 2240 3616 2362 
Q 3565 2566 3411 2636 
Q 3258 2707 3021 2707 
L 3021 2810 
z
" transform="scale(0.015625)"/>
       <path id="STIXGeneral-Regular-3d" d="M 4077 2048 
L 307 2048 
L 307 2470 
L 4077 2470 
L 4077 2048 
z
M 4077 768 
L 307 768 
L 307 1190 
L 4077 1190 
L 4077 768 
z
" transform="scale(0.015625)"/>
       <path id="STIXGeneral-Regular-32" d="M 3034 877 
L 2688 0 
L 186 0 
L 186 77 
L 1325 1286 
Q 1773 1754 1965 2144 
Q 2157 2534 2157 2950 
Q 2157 3379 1920 3616 
Q 1683 3853 1267 3853 
Q 922 3853 720 3673 
Q 518 3494 326 3021 
L 192 3053 
Q 301 3648 630 3987 
Q 960 4326 1523 4326 
Q 2054 4326 2380 4006 
Q 2707 3686 2707 3200 
Q 2707 2477 1888 1613 
L 832 486 
L 2330 486 
Q 2541 486 2665 569 
Q 2790 653 2944 915 
L 3034 877 
z
" transform="scale(0.015625)"/>
       <path id="STIXGeneral-Regular-2c" d="M 531 -902 
L 467 -781 
Q 998 -422 998 -96 
Q 998 -13 909 -13 
Q 883 -13 822 -25 
Q 762 -38 723 -38 
Q 352 -38 352 288 
Q 352 454 457 553 
Q 563 653 736 653 
Q 954 653 1101 496 
Q 1248 339 1248 96 
Q 1248 -198 1053 -473 
Q 858 -749 531 -902 
z
" transform="scale(0.015625)"/>
       <path id="STIXNonUnicode-Italic-e23a" d="M 4294 800 
L 4301 800 
Q 5293 4070 5408 4378 
Q 5472 4538 5523 4614 
Q 5830 5088 6253 5088 
Q 6490 5088 6650 4931 
Q 6810 4774 6810 4550 
Q 6810 4378 6720 4272 
Q 6630 4166 6470 4166 
Q 6368 4166 6297 4224 
Q 6227 4282 6198 4349 
Q 6170 4416 6118 4473 
Q 6067 4531 6003 4531 
Q 5939 4531 5881 4508 
Q 5824 4486 5785 4457 
Q 5747 4429 5705 4371 
Q 5664 4314 5638 4275 
Q 5613 4237 5584 4163 
Q 5555 4090 5545 4058 
Q 5536 4026 5510 3952 
Q 5485 3878 5485 3866 
L 4262 -154 
L 4134 -154 
Q 3078 1280 2483 2893 
L 2470 2893 
Q 2406 2579 2358 2361 
Q 2310 2144 2214 1792 
Q 2118 1440 2028 1190 
Q 1939 941 1804 653 
Q 1670 365 1529 185 
Q 1389 6 1203 -115 
Q 1018 -237 813 -237 
Q 576 -237 416 -80 
Q 256 77 256 301 
Q 256 474 345 579 
Q 435 685 595 685 
Q 698 685 768 627 
Q 838 570 867 502 
Q 896 435 947 377 
Q 998 320 1062 320 
Q 1222 320 1369 480 
Q 1517 640 1638 928 
Q 1760 1216 1862 1542 
Q 1965 1869 2057 2288 
Q 2150 2707 2214 3033 
Q 2278 3360 2348 3741 
Q 2419 4122 2458 4294 
L 2630 4294 
Q 2682 4166 2874 3680 
Q 3066 3194 3142 3008 
Q 3219 2822 3392 2422 
Q 3565 2022 3683 1798 
Q 3802 1574 3968 1292 
Q 4134 1011 4294 800 
z
" transform="scale(0.015625)"/>
       <path id="STIXGeneral-Regular-28" d="M 1946 -1030 
L 1869 -1133 
Q 1126 -710 716 32 
Q 307 774 307 1613 
Q 307 3386 1888 4326 
L 1946 4224 
Q 1293 3667 1075 3126 
Q 858 2586 858 1632 
Q 858 685 1082 96 
Q 1306 -493 1946 -1030 
z
" transform="scale(0.015625)"/>
       <path id="STIXGeneral-Regular-30" d="M 3046 2112 
Q 3046 1683 2963 1302 
Q 2880 922 2717 602 
Q 2554 282 2266 96 
Q 1978 -90 1600 -90 
Q 1210 -90 915 108 
Q 621 307 461 640 
Q 301 973 227 1350 
Q 154 1728 154 2150 
Q 154 2746 301 3222 
Q 448 3699 790 4012 
Q 1133 4326 1626 4326 
Q 2253 4326 2649 3712 
Q 3046 3098 3046 2112 
z
M 2432 2080 
Q 2432 3091 2217 3625 
Q 2003 4160 1587 4160 
Q 1190 4160 979 3622 
Q 768 3085 768 2106 
Q 768 1120 979 598 
Q 1190 77 1600 77 
Q 2003 77 2217 598 
Q 2432 1120 2432 2080 
z
" transform="scale(0.015625)"/>
       <path id="STIXGeneral-Regular-29" d="M 186 4224 
L 262 4326 
Q 992 3891 1408 3148 
Q 1824 2406 1824 1581 
Q 1824 -166 243 -1133 
L 186 -1030 
Q 845 -486 1059 54 
Q 1274 595 1274 1562 
Q 1274 2534 1059 3120 
Q 845 3706 186 4224 
z
" transform="scale(0.015625)"/>
      </defs>
      <use xlink:href="#STIXGeneral-Italic-3c9" transform="translate(0 0.5)"/>
      <use xlink:href="#STIXGeneral-Regular-3d" transform="translate(83.039987 0.5)"/>
      <use xlink:href="#STIXGeneral-Regular-32" transform="translate(165.979968 0.5)"/>
      <use xlink:href="#STIXGeneral-Regular-2c" transform="translate(215.979953 0.5)"/>
      <use xlink:href="#STIXNonUnicode-Italic-e23a" transform="translate(255.419934 0.5)"/>
      <use xlink:href="#STIXGeneral-Regular-28" transform="translate(351.119916 0.5)"/>
      <use xlink:href="#STIXGeneral-Regular-30" transform="translate(384.419904 0.5)"/>
      <use xlink:href="#STIXGeneral-Regular-2c" transform="translate(434.419888 0.5)"/>
      <use xlink:href="#STIXGeneral-Regular-30" transform="translate(473.859869 0.5)"/>
      <use xlink:href="#STIXGeneral-Regular-29" transform="translate(523.859854 0.5)"/>
     </g>
    </g>
    <g id="patch_29">
     <path d="M 114.23126 78.317735 
L 128.23126 78.317735 
L 128.23126 73.417735 
L 114.23126 73.417735 
z
" style="fill: #ff7f0e"/>
    </g>
    <g id="text_13">
     <!-- $\omega=3, \mathcal{N}(0,0)$ -->
     <g transform="translate(133.83126 78.317735)scale(0.07 -0.07)">
      <defs>
       <path id="STIXGeneral-Regular-33" d="M 390 3264 
L 288 3290 
Q 435 3770 748 4048 
Q 1062 4326 1542 4326 
Q 1990 4326 2265 4083 
Q 2541 3840 2541 3450 
Q 2541 2925 1946 2566 
Q 2298 2413 2477 2227 
Q 2758 1914 2758 1402 
Q 2758 890 2464 506 
Q 2246 211 1840 60 
Q 1434 -90 979 -90 
Q 262 -90 262 275 
Q 262 378 339 442 
Q 416 506 525 506 
Q 685 506 915 339 
Q 1197 141 1466 141 
Q 1818 141 2058 425 
Q 2298 710 2298 1120 
Q 2298 1856 1632 2048 
Q 1434 2112 979 2112 
L 979 2202 
Q 1338 2323 1517 2432 
Q 2035 2726 2035 3290 
Q 2035 3610 1852 3776 
Q 1670 3942 1344 3942 
Q 768 3942 390 3264 
z
" transform="scale(0.015625)"/>
      </defs>
      <use xlink:href="#STIXGeneral-Italic-3c9" transform="translate(0 0.5)"/>
      <use xlink:href="#STIXGeneral-Regular-3d" transform="translate(83.039987 0.5)"/>
      <use xlink:href="#STIXGeneral-Regular-33" transform="translate(165.979968 0.5)"/>
      <use xlink:href="#STIXGeneral-Regular-2c" transform="translate(215.979953 0.5)"/>
      <use xlink:href="#STIXNonUnicode-Italic-e23a" transform="translate(255.419934 0.5)"/>
      <use xlink:href="#STIXGeneral-Regular-28" transform="translate(351.119916 0.5)"/>
      <use xlink:href="#STIXGeneral-Regular-30" transform="translate(384.419904 0.5)"/>
      <use xlink:href="#STIXGeneral-Regular-2c" transform="translate(434.419888 0.5)"/>
      <use xlink:href="#STIXGeneral-Regular-30" transform="translate(473.859869 0.5)"/>
      <use xlink:href="#STIXGeneral-Regular-29" transform="translate(523.859854 0.5)"/>
     </g>
    </g>
    <g id="patch_30">
     <path d="M 114.23126 88.677735 
L 128.23126 88.677735 
L 128.23126 83.777735 
L 114.23126 83.777735 
z
" style="fill: #2ca02c"/>
    </g>
    <g id="text_14">
     <!-- $\omega=2, \mathcal{N}(0,0.3)$ -->
     <g transform="translate(133.83126 88.677735)scale(0.07 -0.07)">
      <defs>
       <path id="STIXGeneral-Regular-2e" d="M 1158 275 
Q 1158 134 1052 32 
Q 947 -70 800 -70 
Q 653 -70 550 32 
Q 448 134 448 281 
Q 448 429 553 534 
Q 659 640 806 640 
Q 947 640 1052 531 
Q 1158 422 1158 275 
z
" transform="scale(0.015625)"/>
      </defs>
      <use xlink:href="#STIXGeneral-Italic-3c9" transform="translate(0 0.5)"/>
      <use xlink:href="#STIXGeneral-Regular-3d" transform="translate(83.039987 0.5)"/>
      <use xlink:href="#STIXGeneral-Regular-32" transform="translate(165.979968 0.5)"/>
      <use xlink:href="#STIXGeneral-Regular-2c" transform="translate(215.979953 0.5)"/>
      <use xlink:href="#STIXNonUnicode-Italic-e23a" transform="translate(255.419934 0.5)"/>
      <use xlink:href="#STIXGeneral-Regular-28" transform="translate(351.119916 0.5)"/>
      <use xlink:href="#STIXGeneral-Regular-30" transform="translate(384.419904 0.5)"/>
      <use xlink:href="#STIXGeneral-Regular-2c" transform="translate(434.419888 0.5)"/>
      <use xlink:href="#STIXGeneral-Regular-30" transform="translate(473.859869 0.5)"/>
      <use xlink:href="#STIXGeneral-Regular-2e" transform="translate(523.859854 0.5)"/>
      <use xlink:href="#STIXGeneral-Regular-33" transform="translate(548.859839 0.5)"/>
      <use xlink:href="#STIXGeneral-Regular-29" transform="translate(598.859824 0.5)"/>
     </g>
    </g>
    <g id="patch_31">
     <path d="M 114.23126 99.037735 
L 128.23126 99.037735 
L 128.23126 94.137735 
L 114.23126 94.137735 
z
" style="fill: #d62728"/>
    </g>
    <g id="text_15">
     <!-- $\omega=3, \mathcal{N}(0,0.3)$ -->
     <g transform="translate(133.83126 99.037735)scale(0.07 -0.07)">
      <use xlink:href="#STIXGeneral-Italic-3c9" transform="translate(0 0.5)"/>
      <use xlink:href="#STIXGeneral-Regular-3d" transform="translate(83.039987 0.5)"/>
      <use xlink:href="#STIXGeneral-Regular-33" transform="translate(165.979968 0.5)"/>
      <use xlink:href="#STIXGeneral-Regular-2c" transform="translate(215.979953 0.5)"/>
      <use xlink:href="#STIXNonUnicode-Italic-e23a" transform="translate(255.419934 0.5)"/>
      <use xlink:href="#STIXGeneral-Regular-28" transform="translate(351.119916 0.5)"/>
      <use xlink:href="#STIXGeneral-Regular-30" transform="translate(384.419904 0.5)"/>
      <use xlink:href="#STIXGeneral-Regular-2c" transform="translate(434.419888 0.5)"/>
      <use xlink:href="#STIXGeneral-Regular-30" transform="translate(473.859869 0.5)"/>
      <use xlink:href="#STIXGeneral-Regular-2e" transform="translate(523.859854 0.5)"/>
      <use xlink:href="#STIXGeneral-Regular-33" transform="translate(548.859839 0.5)"/>
      <use xlink:href="#STIXGeneral-Regular-29" transform="translate(598.859824 0.5)"/>
     </g>
    </g>
   </g>
  </g>
 </g>
 <defs>
  <clipPath id="p6226b9692e">
   <rect x="52.004202" y="10.8" width="189.195798" height="168.50029"/>
  </clipPath>
 </defs>
</svg>
