<?xml version="1.0" encoding="utf-8" standalone="no"?>
<!DOCTYPE svg PUBLIC "-//W3C//DTD SVG 1.1//EN"
  "http://www.w3.org/Graphics/SVG/1.1/DTD/svg11.dtd">
<svg xmlns:xlink="http://www.w3.org/1999/xlink" width="720pt" height="468pt" viewBox="0 0 720 468" xmlns="http://www.w3.org/2000/svg" version="1.1">
 <metadata>
  <rdf:RDF xmlns:dc="http://purl.org/dc/elements/1.1/" xmlns:cc="http://creativecommons.org/ns#" xmlns:rdf="http://www.w3.org/1999/02/22-rdf-syntax-ns#">
   <cc:Work>
    <dc:type rdf:resource="http://purl.org/dc/dcmitype/StillImage"/>
    <dc:date>2025-03-05T00:06:55.081166</dc:date>
    <dc:format>image/svg+xml</dc:format>
    <dc:creator>
     <cc:Agent>
      <dc:title>Matplotlib v3.5.3, https://matplotlib.org/</dc:title>
     </cc:Agent>
    </dc:creator>
   </cc:Work>
  </rdf:RDF>
 </metadata>
 <defs>
  <style type="text/css">*{stroke-linejoin: round; stroke-linecap: butt}</style>
 </defs>
 <g id="figure_1">
  <g id="patch_1">
   <path d="M 0 468 
L 720 468 
L 720 0 
L 0 0 
z
" style="fill: #ffffff"/>
  </g>
  <g id="axes_1">
   <g id="patch_2">
    <path d="M 57.08 411.64 
L 709.2 411.64 
L 709.2 10.8 
L 57.08 10.8 
z
" style="fill: #ffffff"/>
   </g>
   <g id="matplotlib.axis_1">
    <g id="xtick_1">
     <g id="line2d_1">
      <path d="M 57.08 411.64 
L 57.08 10.8 
" clip-path="url(#pa37fa014e8)" style="fill: none; stroke-dasharray: 2.96,1.28; stroke-dashoffset: 0; stroke: #808080; stroke-width: 0.8"/>
     </g>
     <g id="line2d_2">
      <defs>
       <path id="md7556fd944" d="M 0 0 
L 0 3.5 
" style="stroke: #000000; stroke-width: 0.8"/>
      </defs>
      <g>
       <use xlink:href="#md7556fd944" x="57.08" y="411.64" style="stroke: #000000; stroke-width: 0.8"/>
      </g>
     </g>
     <g id="text_1">
      <!-- 0 -->
      <g transform="translate(52.58 431.13875)scale(0.18 -0.18)">
       <defs>
        <path id="TimesNewRomanPSMT-30" d="M 231 2094 
Q 231 2819 450 3342 
Q 669 3866 1031 4122 
Q 1313 4325 1613 4325 
Q 2100 4325 2488 3828 
Q 2972 3213 2972 2159 
Q 2972 1422 2759 906 
Q 2547 391 2217 158 
Q 1888 -75 1581 -75 
Q 975 -75 572 641 
Q 231 1244 231 2094 
z
M 844 2016 
Q 844 1141 1059 588 
Q 1238 122 1591 122 
Q 1759 122 1940 273 
Q 2122 425 2216 781 
Q 2359 1319 2359 2297 
Q 2359 3022 2209 3506 
Q 2097 3866 1919 4016 
Q 1791 4119 1609 4119 
Q 1397 4119 1231 3928 
Q 1006 3669 925 3112 
Q 844 2556 844 2016 
z
" transform="scale(0.015625)"/>
       </defs>
       <use xlink:href="#TimesNewRomanPSMT-30"/>
      </g>
     </g>
    </g>
    <g id="xtick_2">
     <g id="line2d_3">
      <path d="M 144.029333 411.64 
L 144.029333 10.8 
" clip-path="url(#pa37fa014e8)" style="fill: none; stroke-dasharray: 2.96,1.28; stroke-dashoffset: 0; stroke: #808080; stroke-width: 0.8"/>
     </g>
     <g id="line2d_4">
      <g>
       <use xlink:href="#md7556fd944" x="144.029333" y="411.64" style="stroke: #000000; stroke-width: 0.8"/>
      </g>
     </g>
     <g id="text_2">
      <!-- 20 -->
      <g transform="translate(135.029333 431.13875)scale(0.18 -0.18)">
       <defs>
        <path id="TimesNewRomanPSMT-32" d="M 2934 816 
L 2638 0 
L 138 0 
L 138 116 
Q 1241 1122 1691 1759 
Q 2141 2397 2141 2925 
Q 2141 3328 1894 3587 
Q 1647 3847 1303 3847 
Q 991 3847 742 3664 
Q 494 3481 375 3128 
L 259 3128 
Q 338 3706 661 4015 
Q 984 4325 1469 4325 
Q 1984 4325 2329 3994 
Q 2675 3663 2675 3213 
Q 2675 2891 2525 2569 
Q 2294 2063 1775 1497 
Q 997 647 803 472 
L 1909 472 
Q 2247 472 2383 497 
Q 2519 522 2628 598 
Q 2738 675 2819 816 
L 2934 816 
z
" transform="scale(0.015625)"/>
       </defs>
       <use xlink:href="#TimesNewRomanPSMT-32"/>
       <use xlink:href="#TimesNewRomanPSMT-30" x="50"/>
      </g>
     </g>
    </g>
    <g id="xtick_3">
     <g id="line2d_5">
      <path d="M 230.978667 411.64 
L 230.978667 10.8 
" clip-path="url(#pa37fa014e8)" style="fill: none; stroke-dasharray: 2.96,1.28; stroke-dashoffset: 0; stroke: #808080; stroke-width: 0.8"/>
     </g>
     <g id="line2d_6">
      <g>
       <use xlink:href="#md7556fd944" x="230.978667" y="411.64" style="stroke: #000000; stroke-width: 0.8"/>
      </g>
     </g>
     <g id="text_3">
      <!-- 40 -->
      <g transform="translate(221.978667 431.13875)scale(0.18 -0.18)">
       <defs>
        <path id="TimesNewRomanPSMT-34" d="M 2978 1563 
L 2978 1119 
L 2409 1119 
L 2409 0 
L 1894 0 
L 1894 1119 
L 100 1119 
L 100 1519 
L 2066 4325 
L 2409 4325 
L 2409 1563 
L 2978 1563 
z
M 1894 1563 
L 1894 3666 
L 406 1563 
L 1894 1563 
z
" transform="scale(0.015625)"/>
       </defs>
       <use xlink:href="#TimesNewRomanPSMT-34"/>
       <use xlink:href="#TimesNewRomanPSMT-30" x="50"/>
      </g>
     </g>
    </g>
    <g id="xtick_4">
     <g id="line2d_7">
      <path d="M 317.928 411.64 
L 317.928 10.8 
" clip-path="url(#pa37fa014e8)" style="fill: none; stroke-dasharray: 2.96,1.28; stroke-dashoffset: 0; stroke: #808080; stroke-width: 0.8"/>
     </g>
     <g id="line2d_8">
      <g>
       <use xlink:href="#md7556fd944" x="317.928" y="411.64" style="stroke: #000000; stroke-width: 0.8"/>
      </g>
     </g>
     <g id="text_4">
      <!-- 60 -->
      <g transform="translate(308.928 431.13875)scale(0.18 -0.18)">
       <defs>
        <path id="TimesNewRomanPSMT-36" d="M 2869 4325 
L 2869 4209 
Q 2456 4169 2195 4045 
Q 1934 3922 1679 3669 
Q 1425 3416 1258 3105 
Q 1091 2794 978 2366 
Q 1428 2675 1881 2675 
Q 2316 2675 2634 2325 
Q 2953 1975 2953 1425 
Q 2953 894 2631 456 
Q 2244 -75 1606 -75 
Q 1172 -75 869 213 
Q 275 772 275 1663 
Q 275 2231 503 2743 
Q 731 3256 1154 3653 
Q 1578 4050 1965 4187 
Q 2353 4325 2688 4325 
L 2869 4325 
z
M 925 2138 
Q 869 1716 869 1456 
Q 869 1156 980 804 
Q 1091 453 1309 247 
Q 1469 100 1697 100 
Q 1969 100 2183 356 
Q 2397 613 2397 1088 
Q 2397 1622 2184 2012 
Q 1972 2403 1581 2403 
Q 1463 2403 1327 2353 
Q 1191 2303 925 2138 
z
" transform="scale(0.015625)"/>
       </defs>
       <use xlink:href="#TimesNewRomanPSMT-36"/>
       <use xlink:href="#TimesNewRomanPSMT-30" x="50"/>
      </g>
     </g>
    </g>
    <g id="xtick_5">
     <g id="line2d_9">
      <path d="M 404.877333 411.64 
L 404.877333 10.8 
" clip-path="url(#pa37fa014e8)" style="fill: none; stroke-dasharray: 2.96,1.28; stroke-dashoffset: 0; stroke: #808080; stroke-width: 0.8"/>
     </g>
     <g id="line2d_10">
      <g>
       <use xlink:href="#md7556fd944" x="404.877333" y="411.64" style="stroke: #000000; stroke-width: 0.8"/>
      </g>
     </g>
     <g id="text_5">
      <!-- 80 -->
      <g transform="translate(395.877333 431.13875)scale(0.18 -0.18)">
       <defs>
        <path id="TimesNewRomanPSMT-38" d="M 1228 2134 
Q 725 2547 579 2797 
Q 434 3047 434 3316 
Q 434 3728 753 4026 
Q 1072 4325 1600 4325 
Q 2113 4325 2425 4047 
Q 2738 3769 2738 3413 
Q 2738 3175 2569 2928 
Q 2400 2681 1866 2347 
Q 2416 1922 2594 1678 
Q 2831 1359 2831 1006 
Q 2831 559 2490 242 
Q 2150 -75 1597 -75 
Q 994 -75 656 303 
Q 388 606 388 966 
Q 388 1247 577 1523 
Q 766 1800 1228 2134 
z
M 1719 2469 
Q 2094 2806 2194 3001 
Q 2294 3197 2294 3444 
Q 2294 3772 2109 3958 
Q 1925 4144 1606 4144 
Q 1288 4144 1088 3959 
Q 888 3775 888 3528 
Q 888 3366 970 3203 
Q 1053 3041 1206 2894 
L 1719 2469 
z
M 1375 2016 
Q 1116 1797 991 1539 
Q 866 1281 866 981 
Q 866 578 1086 336 
Q 1306 94 1647 94 
Q 1984 94 2187 284 
Q 2391 475 2391 747 
Q 2391 972 2272 1150 
Q 2050 1481 1375 2016 
z
" transform="scale(0.015625)"/>
       </defs>
       <use xlink:href="#TimesNewRomanPSMT-38"/>
       <use xlink:href="#TimesNewRomanPSMT-30" x="50"/>
      </g>
     </g>
    </g>
    <g id="xtick_6">
     <g id="line2d_11">
      <path d="M 491.826667 411.64 
L 491.826667 10.8 
" clip-path="url(#pa37fa014e8)" style="fill: none; stroke-dasharray: 2.96,1.28; stroke-dashoffset: 0; stroke: #808080; stroke-width: 0.8"/>
     </g>
     <g id="line2d_12">
      <g>
       <use xlink:href="#md7556fd944" x="491.826667" y="411.64" style="stroke: #000000; stroke-width: 0.8"/>
      </g>
     </g>
     <g id="text_6">
      <!-- 100 -->
      <g transform="translate(478.326667 431.13875)scale(0.18 -0.18)">
       <defs>
        <path id="TimesNewRomanPSMT-31" d="M 750 3822 
L 1781 4325 
L 1884 4325 
L 1884 747 
Q 1884 391 1914 303 
Q 1944 216 2037 169 
Q 2131 122 2419 116 
L 2419 0 
L 825 0 
L 825 116 
Q 1125 122 1212 167 
Q 1300 213 1334 289 
Q 1369 366 1369 747 
L 1369 3034 
Q 1369 3497 1338 3628 
Q 1316 3728 1258 3775 
Q 1200 3822 1119 3822 
Q 1003 3822 797 3725 
L 750 3822 
z
" transform="scale(0.015625)"/>
       </defs>
       <use xlink:href="#TimesNewRomanPSMT-31"/>
       <use xlink:href="#TimesNewRomanPSMT-30" x="50"/>
       <use xlink:href="#TimesNewRomanPSMT-30" x="100"/>
      </g>
     </g>
    </g>
    <g id="xtick_7">
     <g id="line2d_13">
      <path d="M 578.776 411.64 
L 578.776 10.8 
" clip-path="url(#pa37fa014e8)" style="fill: none; stroke-dasharray: 2.96,1.28; stroke-dashoffset: 0; stroke: #808080; stroke-width: 0.8"/>
     </g>
     <g id="line2d_14">
      <g>
       <use xlink:href="#md7556fd944" x="578.776" y="411.64" style="stroke: #000000; stroke-width: 0.8"/>
      </g>
     </g>
     <g id="text_7">
      <!-- 120 -->
      <g transform="translate(565.276 431.13875)scale(0.18 -0.18)">
       <use xlink:href="#TimesNewRomanPSMT-31"/>
       <use xlink:href="#TimesNewRomanPSMT-32" x="50"/>
       <use xlink:href="#TimesNewRomanPSMT-30" x="100"/>
      </g>
     </g>
    </g>
    <g id="xtick_8">
     <g id="line2d_15">
      <path d="M 665.725333 411.64 
L 665.725333 10.8 
" clip-path="url(#pa37fa014e8)" style="fill: none; stroke-dasharray: 2.96,1.28; stroke-dashoffset: 0; stroke: #808080; stroke-width: 0.8"/>
     </g>
     <g id="line2d_16">
      <g>
       <use xlink:href="#md7556fd944" x="665.725333" y="411.64" style="stroke: #000000; stroke-width: 0.8"/>
      </g>
     </g>
     <g id="text_8">
      <!-- 140 -->
      <g transform="translate(652.225333 431.13875)scale(0.18 -0.18)">
       <use xlink:href="#TimesNewRomanPSMT-31"/>
       <use xlink:href="#TimesNewRomanPSMT-34" x="50"/>
       <use xlink:href="#TimesNewRomanPSMT-30" x="100"/>
      </g>
     </g>
    </g>
    <g id="text_9">
     <!-- Time index -->
     <g transform="translate(342.216719 451.487813)scale(0.18 -0.18)">
      <defs>
       <path id="TimesNewRomanPSMT-54" d="M 3703 4238 
L 3750 3244 
L 3631 3244 
Q 3597 3506 3538 3619 
Q 3441 3800 3280 3886 
Q 3119 3972 2856 3972 
L 2259 3972 
L 2259 734 
Q 2259 344 2344 247 
Q 2463 116 2709 116 
L 2856 116 
L 2856 0 
L 1059 0 
L 1059 116 
L 1209 116 
Q 1478 116 1591 278 
Q 1659 378 1659 734 
L 1659 3972 
L 1150 3972 
Q 853 3972 728 3928 
Q 566 3869 450 3700 
Q 334 3531 313 3244 
L 194 3244 
L 244 4238 
L 3703 4238 
z
" transform="scale(0.015625)"/>
       <path id="TimesNewRomanPSMT-69" d="M 928 4444 
Q 1059 4444 1151 4351 
Q 1244 4259 1244 4128 
Q 1244 3997 1151 3903 
Q 1059 3809 928 3809 
Q 797 3809 703 3903 
Q 609 3997 609 4128 
Q 609 4259 701 4351 
Q 794 4444 928 4444 
z
M 1188 2947 
L 1188 647 
Q 1188 378 1227 289 
Q 1266 200 1342 156 
Q 1419 113 1622 113 
L 1622 0 
L 231 0 
L 231 113 
Q 441 113 512 153 
Q 584 194 626 287 
Q 669 381 669 647 
L 669 1750 
Q 669 2216 641 2353 
Q 619 2453 572 2492 
Q 525 2531 444 2531 
Q 356 2531 231 2484 
L 188 2597 
L 1050 2947 
L 1188 2947 
z
" transform="scale(0.015625)"/>
       <path id="TimesNewRomanPSMT-6d" d="M 1050 2338 
Q 1363 2650 1419 2697 
Q 1559 2816 1721 2881 
Q 1884 2947 2044 2947 
Q 2313 2947 2506 2790 
Q 2700 2634 2766 2338 
Q 3088 2713 3309 2830 
Q 3531 2947 3766 2947 
Q 3994 2947 4170 2830 
Q 4347 2713 4450 2447 
Q 4519 2266 4519 1878 
L 4519 647 
Q 4519 378 4559 278 
Q 4591 209 4675 161 
Q 4759 113 4950 113 
L 4950 0 
L 3538 0 
L 3538 113 
L 3597 113 
Q 3781 113 3884 184 
Q 3956 234 3988 344 
Q 4000 397 4000 647 
L 4000 1878 
Q 4000 2228 3916 2372 
Q 3794 2572 3525 2572 
Q 3359 2572 3192 2489 
Q 3025 2406 2788 2181 
L 2781 2147 
L 2788 2013 
L 2788 647 
Q 2788 353 2820 281 
Q 2853 209 2943 161 
Q 3034 113 3253 113 
L 3253 0 
L 1806 0 
L 1806 113 
Q 2044 113 2133 169 
Q 2222 225 2256 338 
Q 2272 391 2272 647 
L 2272 1878 
Q 2272 2228 2169 2381 
Q 2031 2581 1784 2581 
Q 1616 2581 1450 2491 
Q 1191 2353 1050 2181 
L 1050 647 
Q 1050 366 1089 281 
Q 1128 197 1204 155 
Q 1281 113 1516 113 
L 1516 0 
L 100 0 
L 100 113 
Q 297 113 375 155 
Q 453 197 493 289 
Q 534 381 534 647 
L 534 1741 
Q 534 2213 506 2350 
Q 484 2453 437 2492 
Q 391 2531 309 2531 
Q 222 2531 100 2484 
L 53 2597 
L 916 2947 
L 1050 2947 
L 1050 2338 
z
" transform="scale(0.015625)"/>
       <path id="TimesNewRomanPSMT-65" d="M 681 1784 
Q 678 1147 991 784 
Q 1303 422 1725 422 
Q 2006 422 2214 576 
Q 2422 731 2563 1106 
L 2659 1044 
Q 2594 616 2278 264 
Q 1963 -88 1488 -88 
Q 972 -88 605 314 
Q 238 716 238 1394 
Q 238 2128 614 2539 
Q 991 2950 1559 2950 
Q 2041 2950 2350 2633 
Q 2659 2316 2659 1784 
L 681 1784 
z
M 681 1966 
L 2006 1966 
Q 1991 2241 1941 2353 
Q 1863 2528 1708 2628 
Q 1553 2728 1384 2728 
Q 1125 2728 920 2526 
Q 716 2325 681 1966 
z
" transform="scale(0.015625)"/>
       <path id="TimesNewRomanPSMT-20" transform="scale(0.015625)"/>
       <path id="TimesNewRomanPSMT-6e" d="M 1034 2341 
Q 1538 2947 1994 2947 
Q 2228 2947 2397 2830 
Q 2566 2713 2666 2444 
Q 2734 2256 2734 1869 
L 2734 647 
Q 2734 375 2778 278 
Q 2813 200 2889 156 
Q 2966 113 3172 113 
L 3172 0 
L 1756 0 
L 1756 113 
L 1816 113 
Q 2016 113 2095 173 
Q 2175 234 2206 353 
Q 2219 400 2219 647 
L 2219 1819 
Q 2219 2209 2117 2386 
Q 2016 2563 1775 2563 
Q 1403 2563 1034 2156 
L 1034 647 
Q 1034 356 1069 288 
Q 1113 197 1189 155 
Q 1266 113 1500 113 
L 1500 0 
L 84 0 
L 84 113 
L 147 113 
Q 366 113 442 223 
Q 519 334 519 647 
L 519 1709 
Q 519 2225 495 2337 
Q 472 2450 423 2490 
Q 375 2531 294 2531 
Q 206 2531 84 2484 
L 38 2597 
L 900 2947 
L 1034 2947 
L 1034 2341 
z
" transform="scale(0.015625)"/>
       <path id="TimesNewRomanPSMT-64" d="M 2222 322 
Q 2013 103 1813 7 
Q 1613 -88 1381 -88 
Q 913 -88 563 304 
Q 213 697 213 1313 
Q 213 1928 600 2439 
Q 988 2950 1597 2950 
Q 1975 2950 2222 2709 
L 2222 3238 
Q 2222 3728 2198 3840 
Q 2175 3953 2125 3993 
Q 2075 4034 2000 4034 
Q 1919 4034 1784 3984 
L 1744 4094 
L 2597 4444 
L 2738 4444 
L 2738 1134 
Q 2738 631 2761 520 
Q 2784 409 2836 365 
Q 2888 322 2956 322 
Q 3041 322 3181 375 
L 3216 266 
L 2366 -88 
L 2222 -88 
L 2222 322 
z
M 2222 541 
L 2222 2016 
Q 2203 2228 2109 2403 
Q 2016 2578 1861 2667 
Q 1706 2756 1559 2756 
Q 1284 2756 1069 2509 
Q 784 2184 784 1559 
Q 784 928 1059 592 
Q 1334 256 1672 256 
Q 1956 256 2222 541 
z
" transform="scale(0.015625)"/>
       <path id="TimesNewRomanPSMT-78" d="M 84 2863 
L 1431 2863 
L 1431 2747 
Q 1303 2747 1251 2703 
Q 1200 2659 1200 2588 
Q 1200 2513 1309 2356 
Q 1344 2306 1413 2200 
L 1616 1875 
L 1850 2200 
Q 2075 2509 2075 2591 
Q 2075 2656 2022 2701 
Q 1969 2747 1850 2747 
L 1850 2863 
L 2819 2863 
L 2819 2747 
Q 2666 2738 2553 2663 
Q 2400 2556 2134 2200 
L 1744 1678 
L 2456 653 
Q 2719 275 2831 198 
Q 2944 122 3122 113 
L 3122 0 
L 1772 0 
L 1772 113 
Q 1913 113 1991 175 
Q 2050 219 2050 291 
Q 2050 363 1850 653 
L 1431 1266 
L 972 653 
Q 759 369 759 316 
Q 759 241 829 180 
Q 900 119 1041 113 
L 1041 0 
L 106 0 
L 106 113 
Q 219 128 303 191 
Q 422 281 703 653 
L 1303 1450 
L 759 2238 
Q 528 2575 401 2661 
Q 275 2747 84 2747 
L 84 2863 
z
" transform="scale(0.015625)"/>
      </defs>
      <use xlink:href="#TimesNewRomanPSMT-54"/>
      <use xlink:href="#TimesNewRomanPSMT-69" x="57.583984"/>
      <use xlink:href="#TimesNewRomanPSMT-6d" x="85.367188"/>
      <use xlink:href="#TimesNewRomanPSMT-65" x="163.150391"/>
      <use xlink:href="#TimesNewRomanPSMT-20" x="207.535156"/>
      <use xlink:href="#TimesNewRomanPSMT-69" x="232.535156"/>
      <use xlink:href="#TimesNewRomanPSMT-6e" x="260.318359"/>
      <use xlink:href="#TimesNewRomanPSMT-64" x="310.318359"/>
      <use xlink:href="#TimesNewRomanPSMT-65" x="360.318359"/>
      <use xlink:href="#TimesNewRomanPSMT-78" x="404.703125"/>
     </g>
    </g>
   </g>
   <g id="matplotlib.axis_2">
    <g id="ytick_1">
     <g id="line2d_17">
      <path d="M 57.08 377.78241 
L 709.2 377.78241 
" clip-path="url(#pa37fa014e8)" style="fill: none; stroke-dasharray: 2.96,1.28; stroke-dashoffset: 0; stroke: #808080; stroke-width: 0.8"/>
     </g>
     <g id="line2d_18">
      <defs>
       <path id="m8dc1e85ab5" d="M 0 0 
L -3.5 0 
" style="stroke: #000000; stroke-width: 0.8"/>
      </defs>
      <g>
       <use xlink:href="#m8dc1e85ab5" x="57.08" y="377.78241" style="stroke: #000000; stroke-width: 0.8"/>
      </g>
     </g>
     <g id="text_10">
      <!-- 0 -->
      <g transform="translate(41.08 384.031785)scale(0.18 -0.18)">
       <use xlink:href="#TimesNewRomanPSMT-30"/>
      </g>
     </g>
    </g>
    <g id="ytick_2">
     <g id="line2d_19">
      <path d="M 57.08 310.06723 
L 709.2 310.06723 
" clip-path="url(#pa37fa014e8)" style="fill: none; stroke-dasharray: 2.96,1.28; stroke-dashoffset: 0; stroke: #808080; stroke-width: 0.8"/>
     </g>
     <g id="line2d_20">
      <g>
       <use xlink:href="#m8dc1e85ab5" x="57.08" y="310.06723" style="stroke: #000000; stroke-width: 0.8"/>
      </g>
     </g>
     <g id="text_11">
      <!-- 2 -->
      <g transform="translate(41.08 316.316605)scale(0.18 -0.18)">
       <use xlink:href="#TimesNewRomanPSMT-32"/>
      </g>
     </g>
    </g>
    <g id="ytick_3">
     <g id="line2d_21">
      <path d="M 57.08 242.35205 
L 709.2 242.35205 
" clip-path="url(#pa37fa014e8)" style="fill: none; stroke-dasharray: 2.96,1.28; stroke-dashoffset: 0; stroke: #808080; stroke-width: 0.8"/>
     </g>
     <g id="line2d_22">
      <g>
       <use xlink:href="#m8dc1e85ab5" x="57.08" y="242.35205" style="stroke: #000000; stroke-width: 0.8"/>
      </g>
     </g>
     <g id="text_12">
      <!-- 4 -->
      <g transform="translate(41.08 248.601425)scale(0.18 -0.18)">
       <use xlink:href="#TimesNewRomanPSMT-34"/>
      </g>
     </g>
    </g>
    <g id="ytick_4">
     <g id="line2d_23">
      <path d="M 57.08 174.63687 
L 709.2 174.63687 
" clip-path="url(#pa37fa014e8)" style="fill: none; stroke-dasharray: 2.96,1.28; stroke-dashoffset: 0; stroke: #808080; stroke-width: 0.8"/>
     </g>
     <g id="line2d_24">
      <g>
       <use xlink:href="#m8dc1e85ab5" x="57.08" y="174.63687" style="stroke: #000000; stroke-width: 0.8"/>
      </g>
     </g>
     <g id="text_13">
      <!-- 6 -->
      <g transform="translate(41.08 180.886245)scale(0.18 -0.18)">
       <use xlink:href="#TimesNewRomanPSMT-36"/>
      </g>
     </g>
    </g>
    <g id="ytick_5">
     <g id="line2d_25">
      <path d="M 57.08 106.92169 
L 709.2 106.92169 
" clip-path="url(#pa37fa014e8)" style="fill: none; stroke-dasharray: 2.96,1.28; stroke-dashoffset: 0; stroke: #808080; stroke-width: 0.8"/>
     </g>
     <g id="line2d_26">
      <g>
       <use xlink:href="#m8dc1e85ab5" x="57.08" y="106.92169" style="stroke: #000000; stroke-width: 0.8"/>
      </g>
     </g>
     <g id="text_14">
      <!-- 8 -->
      <g transform="translate(41.08 113.171065)scale(0.18 -0.18)">
       <use xlink:href="#TimesNewRomanPSMT-38"/>
      </g>
     </g>
    </g>
    <g id="ytick_6">
     <g id="line2d_27">
      <path d="M 57.08 39.20651 
L 709.2 39.20651 
" clip-path="url(#pa37fa014e8)" style="fill: none; stroke-dasharray: 2.96,1.28; stroke-dashoffset: 0; stroke: #808080; stroke-width: 0.8"/>
     </g>
     <g id="line2d_28">
      <g>
       <use xlink:href="#m8dc1e85ab5" x="57.08" y="39.20651" style="stroke: #000000; stroke-width: 0.8"/>
      </g>
     </g>
     <g id="text_15">
      <!-- 10 -->
      <g transform="translate(32.08 45.455885)scale(0.18 -0.18)">
       <use xlink:href="#TimesNewRomanPSMT-31"/>
       <use xlink:href="#TimesNewRomanPSMT-30" x="50"/>
      </g>
     </g>
    </g>
    <g id="text_16">
     <!-- Power [kW] -->
     <g transform="translate(24.229688 255.455)rotate(-90)scale(0.18 -0.18)">
      <defs>
       <path id="TimesNewRomanPSMT-50" d="M 1313 1984 
L 1313 750 
Q 1313 350 1400 253 
Q 1519 116 1759 116 
L 1922 116 
L 1922 0 
L 106 0 
L 106 116 
L 266 116 
Q 534 116 650 291 
Q 713 388 713 750 
L 713 3488 
Q 713 3888 628 3984 
Q 506 4122 266 4122 
L 106 4122 
L 106 4238 
L 1659 4238 
Q 2228 4238 2556 4120 
Q 2884 4003 3109 3725 
Q 3334 3447 3334 3066 
Q 3334 2547 2992 2222 
Q 2650 1897 2025 1897 
Q 1872 1897 1694 1919 
Q 1516 1941 1313 1984 
z
M 1313 2163 
Q 1478 2131 1606 2115 
Q 1734 2100 1825 2100 
Q 2150 2100 2386 2351 
Q 2622 2603 2622 3003 
Q 2622 3278 2509 3514 
Q 2397 3750 2190 3867 
Q 1984 3984 1722 3984 
Q 1563 3984 1313 3925 
L 1313 2163 
z
" transform="scale(0.015625)"/>
       <path id="TimesNewRomanPSMT-6f" d="M 1600 2947 
Q 2250 2947 2644 2453 
Q 2978 2031 2978 1484 
Q 2978 1100 2793 706 
Q 2609 313 2286 112 
Q 1963 -88 1566 -88 
Q 919 -88 538 428 
Q 216 863 216 1403 
Q 216 1797 411 2186 
Q 606 2575 925 2761 
Q 1244 2947 1600 2947 
z
M 1503 2744 
Q 1338 2744 1170 2645 
Q 1003 2547 900 2300 
Q 797 2053 797 1666 
Q 797 1041 1045 587 
Q 1294 134 1700 134 
Q 2003 134 2200 384 
Q 2397 634 2397 1244 
Q 2397 2006 2069 2444 
Q 1847 2744 1503 2744 
z
" transform="scale(0.015625)"/>
       <path id="TimesNewRomanPSMT-77" d="M 41 2863 
L 1241 2863 
L 1241 2747 
Q 1075 2734 1023 2687 
Q 972 2641 972 2553 
Q 972 2456 1025 2319 
L 1638 672 
L 2253 2013 
L 2091 2434 
Q 2016 2622 1894 2694 
Q 1825 2738 1638 2747 
L 1638 2863 
L 3000 2863 
L 3000 2747 
Q 2775 2738 2681 2666 
Q 2619 2616 2619 2506 
Q 2619 2444 2644 2378 
L 3294 734 
L 3897 2319 
Q 3959 2488 3959 2588 
Q 3959 2647 3898 2694 
Q 3838 2741 3659 2747 
L 3659 2863 
L 4563 2863 
L 4563 2747 
Q 4291 2706 4163 2378 
L 3206 -88 
L 3078 -88 
L 2363 1741 
L 1528 -88 
L 1413 -88 
L 494 2319 
Q 403 2547 315 2626 
Q 228 2706 41 2747 
L 41 2863 
z
" transform="scale(0.015625)"/>
       <path id="TimesNewRomanPSMT-72" d="M 1038 2947 
L 1038 2303 
Q 1397 2947 1775 2947 
Q 1947 2947 2059 2842 
Q 2172 2738 2172 2600 
Q 2172 2478 2090 2393 
Q 2009 2309 1897 2309 
Q 1788 2309 1652 2417 
Q 1516 2525 1450 2525 
Q 1394 2525 1328 2463 
Q 1188 2334 1038 2041 
L 1038 669 
Q 1038 431 1097 309 
Q 1138 225 1241 169 
Q 1344 113 1538 113 
L 1538 0 
L 72 0 
L 72 113 
Q 291 113 397 181 
Q 475 231 506 341 
Q 522 394 522 644 
L 522 1753 
Q 522 2253 501 2348 
Q 481 2444 426 2487 
Q 372 2531 291 2531 
Q 194 2531 72 2484 
L 41 2597 
L 906 2947 
L 1038 2947 
z
" transform="scale(0.015625)"/>
       <path id="TimesNewRomanPSMT-5b" d="M 1900 -1269 
L 525 -1269 
L 525 4334 
L 1900 4334 
L 1900 4088 
L 994 4088 
L 994 -1025 
L 1900 -1025 
L 1900 -1269 
z
" transform="scale(0.015625)"/>
       <path id="TimesNewRomanPSMT-6b" d="M 1047 4444 
L 1047 1597 
L 1775 2259 
Q 2006 2472 2044 2528 
Q 2069 2566 2069 2603 
Q 2069 2666 2017 2711 
Q 1966 2756 1847 2763 
L 1847 2863 
L 3091 2863 
L 3091 2763 
Q 2834 2756 2664 2684 
Q 2494 2613 2291 2428 
L 1556 1750 
L 2291 822 
Q 2597 438 2703 334 
Q 2853 188 2966 144 
Q 3044 113 3238 113 
L 3238 0 
L 1847 0 
L 1847 113 
Q 1966 116 2008 148 
Q 2050 181 2050 241 
Q 2050 313 1925 472 
L 1047 1594 
L 1047 644 
Q 1047 366 1086 278 
Q 1125 191 1197 153 
Q 1269 116 1509 113 
L 1509 0 
L 53 0 
L 53 113 
Q 272 113 381 166 
Q 447 200 481 272 
Q 528 375 528 628 
L 528 3234 
Q 528 3731 506 3842 
Q 484 3953 434 3995 
Q 384 4038 303 4038 
Q 238 4038 106 3984 
L 53 4094 
L 903 4444 
L 1047 4444 
z
" transform="scale(0.015625)"/>
       <path id="TimesNewRomanPSMT-57" d="M 5991 4238 
L 5991 4122 
Q 5825 4122 5722 4062 
Q 5619 4003 5525 3841 
Q 5463 3731 5328 3319 
L 4147 -97 
L 4022 -97 
L 3056 2613 
L 2097 -97 
L 1984 -97 
L 725 3422 
Q 584 3816 547 3888 
Q 484 4006 376 4064 
Q 269 4122 84 4122 
L 84 4238 
L 1653 4238 
L 1653 4122 
L 1578 4122 
Q 1413 4122 1325 4047 
Q 1238 3972 1238 3866 
Q 1238 3756 1375 3363 
L 2209 984 
L 2913 3006 
L 2788 3363 
L 2688 3647 
Q 2622 3803 2541 3922 
Q 2500 3981 2441 4022 
Q 2363 4078 2284 4103 
Q 2225 4122 2097 4122 
L 2097 4238 
L 3747 4238 
L 3747 4122 
L 3634 4122 
Q 3459 4122 3378 4047 
Q 3297 3972 3297 3844 
Q 3297 3684 3438 3288 
L 4250 984 
L 5056 3319 
Q 5194 3706 5194 3856 
Q 5194 3928 5148 3990 
Q 5103 4053 5034 4078 
Q 4916 4122 4725 4122 
L 4725 4238 
L 5991 4238 
z
" transform="scale(0.015625)"/>
       <path id="TimesNewRomanPSMT-5d" d="M 234 4334 
L 1609 4334 
L 1609 -1272 
L 234 -1272 
L 234 -1025 
L 1141 -1025 
L 1141 4088 
L 234 4088 
L 234 4334 
z
" transform="scale(0.015625)"/>
      </defs>
      <use xlink:href="#TimesNewRomanPSMT-50"/>
      <use xlink:href="#TimesNewRomanPSMT-6f" x="55.615234"/>
      <use xlink:href="#TimesNewRomanPSMT-77" x="105.615234"/>
      <use xlink:href="#TimesNewRomanPSMT-65" x="177.832031"/>
      <use xlink:href="#TimesNewRomanPSMT-72" x="222.216797"/>
      <use xlink:href="#TimesNewRomanPSMT-20" x="255.517578"/>
      <use xlink:href="#TimesNewRomanPSMT-5b" x="280.517578"/>
      <use xlink:href="#TimesNewRomanPSMT-6b" x="313.818359"/>
      <use xlink:href="#TimesNewRomanPSMT-57" x="363.818359"/>
      <use xlink:href="#TimesNewRomanPSMT-5d" x="458.203125"/>
     </g>
    </g>
   </g>
   <g id="line2d_29">
    <path d="M 57.08 375.073803 
L 61.427467 346.430282 
L 65.774933 362.918928 
L 70.1224 377.78241 
L 96.2072 377.78241 
L 100.554667 364.374804 
L 104.902133 371.721901 
L 109.2496 377.78241 
L 139.681867 377.78241 
L 144.029333 352.084499 
L 148.3768 195.730153 
L 152.724267 172.977855 
L 157.071733 269.573549 
L 161.4192 377.78241 
L 191.851467 377.78241 
L 196.198933 377.274547 
L 213.5888 372.060476 
L 222.283733 370.807747 
L 226.6312 369.114865 
L 230.978667 366.135399 
L 235.326133 366.40626 
L 239.6736 366.033826 
L 244.021067 366.507832 
L 248.368533 368.031424 
L 252.716 368.979437 
L 257.063467 370.672317 
L 261.410933 373.110064 
L 265.7584 375.412381 
L 270.105867 377.0714 
L 274.453333 377.579265 
L 278.8008 377.78241 
L 357.0552 377.78241 
L 361.402667 294.899031 
L 365.750133 146.23036 
L 370.0976 170.946385 
L 374.445067 167.289772 
L 378.792533 207.174029 
L 383.14 257.68954 
L 387.487467 267.406667 
L 391.834933 272.214443 
L 396.1824 249.021996 
L 400.529867 280.30641 
L 404.877333 324.964571 
L 409.2248 338.575321 
L 413.572267 341.25007 
L 417.919733 342.435085 
L 422.2672 342.367371 
L 426.614667 377.78241 
L 704.852533 377.78241 
L 704.852533 377.78241 
" clip-path="url(#pa37fa014e8)" style="fill: none; stroke: #000000; stroke-width: 1.5; stroke-linecap: square"/>
   </g>
   <g id="line2d_30">
    <path d="M 57.08 365.551355 
L 61.427467 365.551355 
L 70.1224 377.78241 
L 78.817333 377.78241 
L 87.512267 372.915381 
L 96.2072 372.915381 
L 104.902133 377.78241 
L 130.986933 377.78241 
L 139.681867 247.591507 
L 148.3768 247.591507 
L 157.071733 377.78241 
L 183.156533 377.78241 
L 191.851467 375.344663 
L 200.5464 375.344663 
L 209.241333 370.866996 
L 217.936267 370.866996 
L 226.6312 366.270828 
L 235.326133 366.270828 
L 244.021067 370.198311 
L 252.716 370.198311 
L 261.410933 376.961364 
L 270.105867 376.961364 
L 278.8008 377.78241 
L 339.665333 377.78241 
L 348.360267 299.173553 
L 357.0552 299.173553 
L 365.750133 200.77494 
L 374.445067 200.77494 
L 383.14 267.237375 
L 391.834933 267.237375 
L 400.529867 336.806265 
L 413.572267 336.806265 
L 422.2672 368.928648 
L 430.962133 368.928648 
L 439.657067 377.78241 
L 700.505067 377.78241 
L 700.505067 377.78241 
" clip-path="url(#pa37fa014e8)" style="fill: none; stroke-dasharray: 5.55,2.4; stroke-dashoffset: 0; stroke: #ffa500; stroke-width: 1.5"/>
   </g>
   <g id="line2d_31">
    <path d="M 57.08 357.438908 
L 61.427467 361.426007 
L 65.774933 373.98299 
L 70.1224 379.657124 
L 74.469867 379.933281 
L 78.817333 378.650565 
L 83.1648 378.8432 
L 87.512267 374.363328 
L 96.2072 371.71824 
L 100.554667 373.525276 
L 109.2496 379.181883 
L 113.597067 378.83042 
L 117.944533 382.110223 
L 122.292 380.75112 
L 126.639467 380.152493 
L 130.986933 378.722031 
L 135.3344 374.966212 
L 139.681867 381.316922 
L 144.029333 253.0953 
L 148.3768 213.461204 
L 152.724267 231.557993 
L 157.071733 288.744145 
L 161.4192 365.538694 
L 165.766667 375.326605 
L 170.114133 377.059457 
L 174.4616 380.870406 
L 178.809067 379.641795 
L 183.156533 380.25151 
L 187.504 378.097019 
L 191.851467 377.892286 
L 196.198933 375.573399 
L 200.5464 375.703328 
L 204.893867 373.162825 
L 209.241333 372.588076 
L 213.5888 373.385936 
L 222.283733 372.380712 
L 226.6312 371.6253 
L 230.978667 370.427483 
L 235.326133 368.183825 
L 239.6736 367.781309 
L 248.368533 365.424229 
L 252.716 367.689331 
L 257.063467 372.380546 
L 261.410933 374.424211 
L 265.7584 376.619156 
L 270.105867 377.253779 
L 274.453333 377.566257 
L 278.8008 377.333908 
L 283.148267 376.828606 
L 287.495733 377.152306 
L 291.8432 378.74328 
L 296.190667 378.260737 
L 300.538133 378.869736 
L 304.8856 377.840877 
L 309.233067 378.487711 
L 313.580533 378.051733 
L 317.928 378.068215 
L 322.275467 377.646142 
L 326.622933 378.951014 
L 330.9704 378.900433 
L 335.317867 380.005314 
L 339.665333 379.943456 
L 344.0128 378.51016 
L 348.360267 379.100153 
L 352.707733 372.430738 
L 357.0552 348.486166 
L 361.402667 254.931582 
L 365.750133 219.350076 
L 370.0976 207.411128 
L 374.445067 196.067252 
L 378.792533 199.214988 
L 383.14 202.699888 
L 387.487467 219.432042 
L 391.834933 228.606025 
L 396.1824 294.447387 
L 400.529867 314.42113 
L 404.877333 322.217874 
L 409.2248 336.786948 
L 413.572267 337.702554 
L 417.919733 343.277129 
L 422.2672 348.113136 
L 426.614667 376.624656 
L 430.962133 375.179508 
L 435.3096 377.102147 
L 439.657067 378.764574 
L 448.352 379.195876 
L 452.699467 378.405485 
L 457.046933 378.090531 
L 461.3944 378.752809 
L 465.741867 378.367335 
L 470.089333 379.016472 
L 474.4368 378.831655 
L 478.784267 377.39331 
L 483.131733 377.909094 
L 491.826667 378.527941 
L 496.174133 377.620417 
L 500.5216 378.050226 
L 504.869067 378.29572 
L 522.258933 378.11121 
L 526.6064 377.918951 
L 530.953867 377.583226 
L 539.6488 377.239582 
L 543.996267 377.516202 
L 557.038667 377.720903 
L 561.386133 377.878125 
L 565.7336 377.678778 
L 583.123467 377.742832 
L 591.8184 377.71541 
L 596.165867 377.924171 
L 604.8608 377.770118 
L 609.208267 377.770112 
L 613.555733 377.954769 
L 622.250667 377.77995 
L 626.598133 377.786844 
L 630.9456 377.943097 
L 639.640533 377.770733 
L 643.988 377.784789 
L 648.335467 377.949875 
L 657.0304 377.776221 
L 661.377867 377.794064 
L 665.725333 377.959213 
L 674.420267 377.773317 
L 678.767733 377.794551 
L 683.1152 377.959209 
L 691.810133 377.772877 
L 696.1576 377.792496 
L 700.505067 377.958107 
L 704.852533 377.840151 
L 704.852533 377.840151 
" clip-path="url(#pa37fa014e8)" style="fill: none; stroke-dasharray: 1.5,2.475; stroke-dashoffset: 0; stroke: #800080; stroke-width: 1.5"/>
   </g>
   <g id="line2d_32">
    <path d="M 57.08 356.616799 
L 61.427467 363.255446 
L 65.774933 371.819842 
L 74.469867 377.235598 
L 78.817333 376.062641 
L 83.1648 380.792976 
L 87.512267 377.262111 
L 91.859733 374.354551 
L 96.2072 373.802668 
L 100.554667 373.665506 
L 104.902133 370.197334 
L 109.2496 373.221304 
L 113.597067 373.14377 
L 117.944533 379.861873 
L 122.292 379.063577 
L 126.639467 379.27446 
L 130.986933 380.233337 
L 135.3344 378.27317 
L 139.681867 363.040498 
L 144.029333 268.670196 
L 148.3768 227.32137 
L 152.724267 235.38577 
L 157.071733 281.554594 
L 161.4192 360.868031 
L 165.766667 379.366379 
L 170.114133 384.1294 
L 174.4616 379.955013 
L 178.809067 373.658037 
L 183.156533 377.388794 
L 187.504 376.116114 
L 191.851467 373.399926 
L 196.198933 377.293678 
L 200.5464 372.113963 
L 204.893867 377.138178 
L 209.241333 374.438239 
L 213.5888 372.056551 
L 217.936267 372.787171 
L 222.283733 366.471612 
L 226.6312 364.814201 
L 230.978667 364.791132 
L 235.326133 366.729513 
L 239.6736 365.5444 
L 244.021067 366.537561 
L 248.368533 366.10478 
L 252.716 366.935699 
L 257.063467 372.091692 
L 261.410933 373.658642 
L 265.7584 376.136852 
L 270.105867 377.864015 
L 274.453333 376.925737 
L 278.8008 377.512075 
L 283.148267 376.224872 
L 287.495733 377.462489 
L 291.8432 377.485847 
L 296.190667 378.470858 
L 300.538133 377.882296 
L 304.8856 380.131056 
L 309.233067 377.551704 
L 313.580533 380.297353 
L 317.928 376.968087 
L 322.275467 378.907334 
L 326.622933 376.220606 
L 330.9704 377.854996 
L 335.317867 378.63855 
L 339.665333 374.460268 
L 344.0128 376.745187 
L 348.360267 378.863012 
L 352.707733 382.615255 
L 357.0552 358.370798 
L 361.402667 257.39818 
L 365.750133 204.952215 
L 370.0976 191.616133 
L 374.445067 203.29701 
L 378.792533 204.014926 
L 383.14 199.768779 
L 387.487467 209.890641 
L 391.834933 240.048996 
L 396.1824 302.37246 
L 400.529867 318.418745 
L 404.877333 303.894084 
L 409.2248 338.359295 
L 413.572267 354.855238 
L 417.919733 353.628494 
L 422.2672 362.584217 
L 426.614667 369.404569 
L 430.962133 372.478322 
L 435.3096 371.917403 
L 439.657067 376.155527 
L 444.004533 378.327719 
L 448.352 380.721458 
L 452.699467 380.025325 
L 457.046933 378.400912 
L 461.3944 377.619782 
L 465.741867 377.770657 
L 470.089333 378.431968 
L 474.4368 377.922252 
L 478.784267 379.386761 
L 483.131733 377.429881 
L 487.4792 378.953405 
L 491.826667 377.19069 
L 496.174133 377.414465 
L 500.5216 377.363483 
L 504.869067 378.811561 
L 509.216533 377.242375 
L 513.564 377.409206 
L 517.911467 377.43665 
L 522.258933 378.711927 
L 526.6064 377.965005 
L 530.953867 377.6234 
L 535.301333 377.537035 
L 539.6488 378.41136 
L 543.996267 377.763063 
L 548.343733 378.092525 
L 552.6912 377.624181 
L 557.038667 378.043395 
L 561.386133 377.82262 
L 570.081067 377.788644 
L 574.428533 378.16388 
L 578.776 377.875808 
L 583.123467 377.74246 
L 587.470933 377.928343 
L 591.8184 378.240597 
L 596.165867 377.783576 
L 604.8608 378.013786 
L 609.208267 378.160515 
L 613.555733 377.70689 
L 626.598133 378.153202 
L 630.9456 377.73376 
L 643.988 378.137181 
L 648.335467 377.7652 
L 657.0304 377.933154 
L 661.377867 378.169353 
L 665.725333 377.775936 
L 674.420267 377.936251 
L 678.767733 378.172509 
L 683.1152 377.775803 
L 691.810133 377.938316 
L 696.1576 378.169022 
L 700.505067 377.777276 
L 704.852533 377.850264 
L 704.852533 377.850264 
" clip-path="url(#pa37fa014e8)" style="fill: none; stroke-dasharray: 9.6,2.4,1.5,2.4; stroke-dashoffset: 0; stroke: #0000ff; stroke-width: 1.5"/>
   </g>
   <g id="line2d_33">
    <path d="M 57.08 352.233265 
L 61.427467 368.67446 
L 65.774933 370.790063 
L 70.1224 369.568626 
L 74.469867 378.726677 
L 78.817333 377.182987 
L 83.1648 376.622044 
L 87.512267 375.845889 
L 91.859733 374.697046 
L 96.2072 370.668612 
L 100.554667 368.339142 
L 104.902133 373.418712 
L 109.2496 373.404428 
L 113.597067 374.004416 
L 117.944533 381.200636 
L 122.292 378.968682 
L 126.639467 376.967818 
L 130.986933 372.63608 
L 135.3344 373.782211 
L 139.681867 386.949213 
L 144.029333 265.567834 
L 148.3768 209.486704 
L 152.724267 224.03098 
L 157.071733 289.993588 
L 161.4192 385.344089 
L 165.766667 377.637533 
L 170.114133 378.429332 
L 174.4616 380.844972 
L 178.809067 378.608402 
L 183.156533 374.966733 
L 187.504 376.124566 
L 191.851467 379.453606 
L 196.198933 381.718794 
L 200.5464 373.715755 
L 204.893867 373.210132 
L 209.241333 372.378718 
L 213.5888 370.016454 
L 217.936267 372.408067 
L 222.283733 370.518308 
L 226.6312 369.269702 
L 230.978667 370.041892 
L 239.6736 364.7804 
L 244.021067 362.682221 
L 248.368533 367.755326 
L 252.716 370.229419 
L 257.063467 371.516546 
L 261.410933 372.321405 
L 265.7584 376.926319 
L 270.105867 377.821387 
L 274.453333 376.948515 
L 278.8008 377.517189 
L 283.148267 378.786577 
L 287.495733 377.790337 
L 291.8432 377.104411 
L 296.190667 375.448928 
L 300.538133 378.324966 
L 304.8856 378.399187 
L 309.233067 377.650412 
L 313.580533 375.545055 
L 317.928 373.291384 
L 322.275467 374.628442 
L 326.622933 382.907389 
L 330.9704 380.395992 
L 335.317867 373.591568 
L 339.665333 372.416641 
L 344.0128 379.722699 
L 348.360267 378.691264 
L 352.707733 364.335475 
L 357.0552 345.067124 
L 361.402667 254.961772 
L 365.750133 223.690976 
L 370.0976 202.206865 
L 374.445067 192.348385 
L 378.792533 198.342084 
L 383.14 215.083005 
L 387.487467 237.051065 
L 391.834933 255.543517 
L 396.1824 276.494615 
L 400.529867 303.300271 
L 404.877333 320.17792 
L 409.2248 334.53961 
L 413.572267 347.495669 
L 417.919733 350.927691 
L 422.2672 364.99443 
L 426.614667 365.940495 
L 430.962133 372.20411 
L 435.3096 372.589767 
L 439.657067 379.901436 
L 444.004533 378.154358 
L 448.352 375.610458 
L 452.699467 375.445435 
L 457.046933 377.646765 
L 461.3944 378.317568 
L 465.741867 378.12819 
L 470.089333 376.116195 
L 474.4368 378.519054 
L 478.784267 378.712322 
L 483.131733 376.904756 
L 487.4792 375.766915 
L 491.826667 378.644485 
L 496.174133 378.062351 
L 500.5216 377.120378 
L 504.869067 377.119803 
L 509.216533 378.516002 
L 513.564 378.454665 
L 522.258933 376.86593 
L 526.6064 377.938758 
L 530.953867 378.178547 
L 535.301333 377.604786 
L 539.6488 377.423216 
L 543.996267 378.231955 
L 548.343733 378.162949 
L 552.6912 377.392101 
L 557.038667 377.25283 
L 561.386133 378.098983 
L 565.7336 378.139215 
L 570.081067 377.42746 
L 574.428533 377.391718 
L 578.776 378.136595 
L 583.123467 378.186434 
L 587.470933 377.371787 
L 591.8184 377.367836 
L 596.165867 378.122336 
L 600.513333 378.172912 
L 604.8608 377.385086 
L 609.208267 377.371618 
L 613.555733 378.124422 
L 617.9032 378.177873 
L 622.250667 377.38169 
L 626.598133 377.371501 
L 630.9456 378.123879 
L 635.293067 378.17844 
L 639.640533 377.380223 
L 643.988 377.369818 
L 648.335467 378.125022 
L 652.682933 378.177475 
L 657.0304 377.381339 
L 661.377867 377.372038 
L 665.725333 378.125898 
L 670.0728 378.173447 
L 674.420267 377.382814 
L 678.767733 377.368213 
L 683.1152 378.122061 
L 687.462667 378.175724 
L 691.810133 377.384985 
L 696.1576 377.36989 
L 700.505067 378.122983 
L 704.852533 378.178874 
L 704.852533 378.178874 
" clip-path="url(#pa37fa014e8)" style="fill: none; stroke-dasharray: 4.5,7.5,1.5,7.5; stroke-dashoffset: 0; stroke: #00ff00; stroke-width: 1.5"/>
   </g>
   <g id="line2d_34">
    <path d="M 57.08 357.845517 
L 61.427467 365.934696 
L 65.774933 366.761214 
L 70.1224 368.475535 
L 74.469867 374.118483 
L 78.817333 377.688463 
L 83.1648 376.001972 
L 87.512267 375.790733 
L 91.859733 374.956239 
L 96.2072 372.059756 
L 100.554667 371.385488 
L 104.902133 372.321342 
L 109.2496 376.682168 
L 113.597067 377.242679 
L 117.944533 378.881467 
L 122.292 378.072675 
L 126.639467 384.937088 
L 130.986933 377.190532 
L 135.3344 387.391541 
L 139.681867 362.062925 
L 144.029333 261.319999 
L 148.3768 221.237568 
L 152.724267 232.080092 
L 157.071733 277.284149 
L 161.4192 357.882423 
L 165.766667 386.08828 
L 170.114133 375.851404 
L 174.4616 379.079536 
L 178.809067 375.428374 
L 183.156533 371.924271 
L 187.504 377.474081 
L 191.851467 375.558378 
L 196.198933 373.949682 
L 200.5464 375.085833 
L 204.893867 374.349228 
L 209.241333 373.931913 
L 213.5888 371.88538 
L 217.936267 370.707149 
L 222.283733 370.817228 
L 226.6312 369.104392 
L 230.978667 367.057312 
L 235.326133 366.889314 
L 239.6736 366.920229 
L 244.021067 365.475689 
L 248.368533 367.217404 
L 252.716 370.498973 
L 257.063467 370.929421 
L 261.410933 371.207916 
L 265.7584 373.795497 
L 270.105867 375.889101 
L 274.453333 376.629204 
L 278.8008 376.494359 
L 283.148267 376.513809 
L 287.495733 377.191521 
L 296.190667 376.48196 
L 300.538133 376.255847 
L 304.8856 377.548457 
L 309.233067 377.04486 
L 313.580533 377.333581 
L 317.928 376.507186 
L 322.275467 376.766092 
L 326.622933 377.149642 
L 330.9704 382.647516 
L 335.317867 381.755507 
L 339.665333 375.223435 
L 344.0128 379.367961 
L 348.360267 387.406749 
L 352.707733 382.958115 
L 357.0552 339.62485 
L 365.750133 205.20181 
L 370.0976 185.924789 
L 374.445067 192.367952 
L 378.792533 208.399885 
L 383.14 211.28721 
L 387.487467 232.662652 
L 391.834933 260.727881 
L 396.1824 277.978672 
L 400.529867 294.127111 
L 404.877333 305.968078 
L 409.2248 329.382852 
L 413.572267 349.399223 
L 417.919733 358.602111 
L 422.2672 360.398229 
L 426.614667 367.93783 
L 430.962133 369.598633 
L 435.3096 373.624276 
L 439.657067 375.169561 
L 444.004533 375.715366 
L 448.352 375.446486 
L 452.699467 377.811589 
L 457.046933 377.777139 
L 461.3944 376.481833 
L 465.741867 376.104294 
L 470.089333 376.623531 
L 474.4368 376.792069 
L 483.131733 376.75802 
L 487.4792 375.926355 
L 491.826667 376.05446 
L 496.174133 377.060914 
L 500.5216 377.361695 
L 504.869067 376.27867 
L 509.216533 376.123754 
L 513.564 377.079654 
L 517.911467 377.200845 
L 522.258933 376.216448 
L 526.6064 376.198258 
L 530.953867 377.136014 
L 535.301333 377.233663 
L 539.6488 376.25884 
L 543.996267 376.347988 
L 548.343733 377.241119 
L 552.6912 377.343659 
L 557.038667 376.343121 
L 561.386133 376.41493 
L 565.7336 377.310827 
L 570.081067 377.423868 
L 574.428533 376.397728 
L 578.776 376.436351 
L 583.123467 377.329206 
L 587.470933 377.449057 
L 591.8184 376.413717 
L 596.165867 376.441023 
L 600.513333 377.335089 
L 604.8608 377.454508 
L 609.208267 376.418556 
L 613.555733 376.441921 
L 617.9032 377.336281 
L 622.250667 377.456007 
L 626.598133 376.420052 
L 630.9456 376.442222 
L 635.293067 377.335527 
L 639.640533 377.456403 
L 643.988 376.419315 
L 648.335467 376.441643 
L 652.682933 377.336596 
L 657.0304 377.456823 
L 661.377867 376.41918 
L 665.725333 376.441564 
L 670.0728 377.335426 
L 674.420267 377.456312 
L 678.767733 376.420078 
L 683.1152 376.441617 
L 687.462667 377.335329 
L 691.810133 377.456807 
L 696.1576 376.420179 
L 700.505067 376.442067 
L 704.852533 377.335547 
L 704.852533 377.335547 
" clip-path="url(#pa37fa014e8)" style="fill: none; stroke: #dc143c; stroke-width: 1.5; stroke-linecap: square"/>
   </g>
   <g id="patch_3">
    <path d="M 57.08 411.64 
L 57.08 10.8 
" style="fill: none; stroke: #000000; stroke-width: 0.8; stroke-linejoin: miter; stroke-linecap: square"/>
   </g>
   <g id="patch_4">
    <path d="M 709.2 411.64 
L 709.2 10.8 
" style="fill: none; stroke: #000000; stroke-width: 0.8; stroke-linejoin: miter; stroke-linecap: square"/>
   </g>
   <g id="patch_5">
    <path d="M 57.08 411.64 
L 709.2 411.64 
" style="fill: none; stroke: #000000; stroke-width: 0.8; stroke-linejoin: miter; stroke-linecap: square"/>
   </g>
   <g id="patch_6">
    <path d="M 57.08 10.8 
L 709.2 10.8 
" style="fill: none; stroke: #000000; stroke-width: 0.8; stroke-linejoin: miter; stroke-linecap: square"/>
   </g>
   <g id="legend_1">
    <g id="patch_7">
     <path d="M 69.68 177.969375 
L 302.782812 177.969375 
Q 306.382812 177.969375 306.382812 174.369375 
L 306.382812 23.4 
Q 306.382812 19.8 302.782812 19.8 
L 69.68 19.8 
Q 66.08 19.8 66.08 23.4 
L 66.08 174.369375 
Q 66.08 177.969375 69.68 177.969375 
z
" style="fill: #ffffff; opacity: 0.8; stroke: #cccccc; stroke-linejoin: miter"/>
    </g>
    <g id="line2d_35">
     <path d="M 73.28 33.3 
L 91.28 33.3 
L 109.28 33.3 
" style="fill: none; stroke: #000000; stroke-width: 1.5; stroke-linecap: square"/>
    </g>
    <g id="text_17">
     <!-- Actual load -->
     <g transform="translate(123.68 39.6)scale(0.18 -0.18)">
      <defs>
       <path id="TimesNewRomanPSMT-41" d="M 2928 1419 
L 1288 1419 
L 1000 750 
Q 894 503 894 381 
Q 894 284 986 211 
Q 1078 138 1384 116 
L 1384 0 
L 50 0 
L 50 116 
Q 316 163 394 238 
Q 553 388 747 847 
L 2238 4334 
L 2347 4334 
L 3822 809 
Q 4000 384 4145 257 
Q 4291 131 4550 116 
L 4550 0 
L 2878 0 
L 2878 116 
Q 3131 128 3220 200 
Q 3309 272 3309 375 
Q 3309 513 3184 809 
L 2928 1419 
z
M 2841 1650 
L 2122 3363 
L 1384 1650 
L 2841 1650 
z
" transform="scale(0.015625)"/>
       <path id="TimesNewRomanPSMT-63" d="M 2631 1088 
Q 2516 522 2178 217 
Q 1841 -88 1431 -88 
Q 944 -88 581 321 
Q 219 731 219 1428 
Q 219 2103 620 2525 
Q 1022 2947 1584 2947 
Q 2006 2947 2278 2723 
Q 2550 2500 2550 2259 
Q 2550 2141 2473 2067 
Q 2397 1994 2259 1994 
Q 2075 1994 1981 2113 
Q 1928 2178 1911 2362 
Q 1894 2547 1784 2644 
Q 1675 2738 1481 2738 
Q 1169 2738 978 2506 
Q 725 2200 725 1697 
Q 725 1184 976 792 
Q 1228 400 1656 400 
Q 1963 400 2206 609 
Q 2378 753 2541 1131 
L 2631 1088 
z
" transform="scale(0.015625)"/>
       <path id="TimesNewRomanPSMT-74" d="M 1031 3803 
L 1031 2863 
L 1700 2863 
L 1700 2644 
L 1031 2644 
L 1031 788 
Q 1031 509 1111 412 
Q 1191 316 1316 316 
Q 1419 316 1516 380 
Q 1613 444 1666 569 
L 1788 569 
Q 1678 263 1478 108 
Q 1278 -47 1066 -47 
Q 922 -47 784 33 
Q 647 113 581 261 
Q 516 409 516 719 
L 516 2644 
L 63 2644 
L 63 2747 
Q 234 2816 414 2980 
Q 594 3144 734 3369 
Q 806 3488 934 3803 
L 1031 3803 
z
" transform="scale(0.015625)"/>
       <path id="TimesNewRomanPSMT-75" d="M 2709 2863 
L 2709 1128 
Q 2709 631 2732 520 
Q 2756 409 2807 365 
Q 2859 322 2928 322 
Q 3025 322 3147 375 
L 3191 266 
L 2334 -88 
L 2194 -88 
L 2194 519 
Q 1825 119 1631 15 
Q 1438 -88 1222 -88 
Q 981 -88 804 51 
Q 628 191 559 409 
Q 491 628 491 1028 
L 491 2306 
Q 491 2509 447 2587 
Q 403 2666 317 2708 
Q 231 2750 6 2747 
L 6 2863 
L 1009 2863 
L 1009 947 
Q 1009 547 1148 422 
Q 1288 297 1484 297 
Q 1619 297 1789 381 
Q 1959 466 2194 703 
L 2194 2325 
Q 2194 2569 2105 2655 
Q 2016 2741 1734 2747 
L 1734 2863 
L 2709 2863 
z
" transform="scale(0.015625)"/>
       <path id="TimesNewRomanPSMT-61" d="M 1822 413 
Q 1381 72 1269 19 
Q 1100 -59 909 -59 
Q 613 -59 420 144 
Q 228 347 228 678 
Q 228 888 322 1041 
Q 450 1253 767 1440 
Q 1084 1628 1822 1897 
L 1822 2009 
Q 1822 2438 1686 2597 
Q 1550 2756 1291 2756 
Q 1094 2756 978 2650 
Q 859 2544 859 2406 
L 866 2225 
Q 866 2081 792 2003 
Q 719 1925 600 1925 
Q 484 1925 411 2006 
Q 338 2088 338 2228 
Q 338 2497 613 2722 
Q 888 2947 1384 2947 
Q 1766 2947 2009 2819 
Q 2194 2722 2281 2516 
Q 2338 2381 2338 1966 
L 2338 994 
Q 2338 584 2353 492 
Q 2369 400 2405 369 
Q 2441 338 2488 338 
Q 2538 338 2575 359 
Q 2641 400 2828 588 
L 2828 413 
Q 2478 -56 2159 -56 
Q 2006 -56 1915 50 
Q 1825 156 1822 413 
z
M 1822 616 
L 1822 1706 
Q 1350 1519 1213 1441 
Q 966 1303 859 1153 
Q 753 1003 753 825 
Q 753 600 887 451 
Q 1022 303 1197 303 
Q 1434 303 1822 616 
z
" transform="scale(0.015625)"/>
       <path id="TimesNewRomanPSMT-6c" d="M 1184 4444 
L 1184 647 
Q 1184 378 1223 290 
Q 1263 203 1344 158 
Q 1425 113 1647 113 
L 1647 0 
L 244 0 
L 244 113 
Q 441 113 512 153 
Q 584 194 625 287 
Q 666 381 666 647 
L 666 3247 
Q 666 3731 644 3842 
Q 622 3953 573 3993 
Q 525 4034 450 4034 
Q 369 4034 244 3984 
L 191 4094 
L 1044 4444 
L 1184 4444 
z
" transform="scale(0.015625)"/>
      </defs>
      <use xlink:href="#TimesNewRomanPSMT-41"/>
      <use xlink:href="#TimesNewRomanPSMT-63" x="72.216797"/>
      <use xlink:href="#TimesNewRomanPSMT-74" x="116.601562"/>
      <use xlink:href="#TimesNewRomanPSMT-75" x="144.384766"/>
      <use xlink:href="#TimesNewRomanPSMT-61" x="194.384766"/>
      <use xlink:href="#TimesNewRomanPSMT-6c" x="238.769531"/>
      <use xlink:href="#TimesNewRomanPSMT-20" x="266.552734"/>
      <use xlink:href="#TimesNewRomanPSMT-6c" x="291.552734"/>
      <use xlink:href="#TimesNewRomanPSMT-6f" x="319.335938"/>
      <use xlink:href="#TimesNewRomanPSMT-61" x="369.335938"/>
      <use xlink:href="#TimesNewRomanPSMT-64" x="413.720703"/>
     </g>
    </g>
    <g id="line2d_36">
     <path d="M 73.28 58.750313 
L 91.28 58.750313 
L 109.28 58.750313 
" style="fill: none; stroke-dasharray: 5.55,2.4; stroke-dashoffset: 0; stroke: #ffa500; stroke-width: 1.5"/>
    </g>
    <g id="text_18">
     <!-- Nearest interpolation -->
     <g transform="translate(123.68 65.050313)scale(0.18 -0.18)">
      <defs>
       <path id="TimesNewRomanPSMT-4e" d="M -84 4238 
L 1066 4238 
L 3656 1059 
L 3656 3503 
Q 3656 3894 3569 3991 
Q 3453 4122 3203 4122 
L 3056 4122 
L 3056 4238 
L 4531 4238 
L 4531 4122 
L 4381 4122 
Q 4113 4122 4000 3959 
Q 3931 3859 3931 3503 
L 3931 -69 
L 3819 -69 
L 1025 3344 
L 1025 734 
Q 1025 344 1109 247 
Q 1228 116 1475 116 
L 1625 116 
L 1625 0 
L 150 0 
L 150 116 
L 297 116 
Q 569 116 681 278 
Q 750 378 750 734 
L 750 3681 
Q 566 3897 470 3965 
Q 375 4034 191 4094 
Q 100 4122 -84 4122 
L -84 4238 
z
" transform="scale(0.015625)"/>
       <path id="TimesNewRomanPSMT-73" d="M 2050 2947 
L 2050 1972 
L 1947 1972 
Q 1828 2431 1642 2597 
Q 1456 2763 1169 2763 
Q 950 2763 815 2647 
Q 681 2531 681 2391 
Q 681 2216 781 2091 
Q 878 1963 1175 1819 
L 1631 1597 
Q 2266 1288 2266 781 
Q 2266 391 1970 151 
Q 1675 -88 1309 -88 
Q 1047 -88 709 6 
Q 606 38 541 38 
Q 469 38 428 -44 
L 325 -44 
L 325 978 
L 428 978 
Q 516 541 762 319 
Q 1009 97 1316 97 
Q 1531 97 1667 223 
Q 1803 350 1803 528 
Q 1803 744 1651 891 
Q 1500 1038 1047 1263 
Q 594 1488 453 1669 
Q 313 1847 313 2119 
Q 313 2472 555 2709 
Q 797 2947 1181 2947 
Q 1350 2947 1591 2875 
Q 1750 2828 1803 2828 
Q 1853 2828 1881 2850 
Q 1909 2872 1947 2947 
L 2050 2947 
z
" transform="scale(0.015625)"/>
       <path id="TimesNewRomanPSMT-70" d="M -6 2578 
L 875 2934 
L 994 2934 
L 994 2266 
Q 1216 2644 1439 2795 
Q 1663 2947 1909 2947 
Q 2341 2947 2628 2609 
Q 2981 2197 2981 1534 
Q 2981 794 2556 309 
Q 2206 -88 1675 -88 
Q 1444 -88 1275 -22 
Q 1150 25 994 166 
L 994 -706 
Q 994 -1000 1030 -1079 
Q 1066 -1159 1155 -1206 
Q 1244 -1253 1478 -1253 
L 1478 -1369 
L -22 -1369 
L -22 -1253 
L 56 -1253 
Q 228 -1256 350 -1188 
Q 409 -1153 442 -1076 
Q 475 -1000 475 -688 
L 475 2019 
Q 475 2297 450 2372 
Q 425 2447 370 2484 
Q 316 2522 222 2522 
Q 147 2522 31 2478 
L -6 2578 
z
M 994 2081 
L 994 1013 
Q 994 666 1022 556 
Q 1066 375 1236 237 
Q 1406 100 1666 100 
Q 1978 100 2172 344 
Q 2425 663 2425 1241 
Q 2425 1897 2138 2250 
Q 1938 2494 1663 2494 
Q 1513 2494 1366 2419 
Q 1253 2363 994 2081 
z
" transform="scale(0.015625)"/>
      </defs>
      <use xlink:href="#TimesNewRomanPSMT-4e"/>
      <use xlink:href="#TimesNewRomanPSMT-65" x="72.216797"/>
      <use xlink:href="#TimesNewRomanPSMT-61" x="116.601562"/>
      <use xlink:href="#TimesNewRomanPSMT-72" x="160.986328"/>
      <use xlink:href="#TimesNewRomanPSMT-65" x="194.287109"/>
      <use xlink:href="#TimesNewRomanPSMT-73" x="238.671875"/>
      <use xlink:href="#TimesNewRomanPSMT-74" x="277.587891"/>
      <use xlink:href="#TimesNewRomanPSMT-20" x="305.371094"/>
      <use xlink:href="#TimesNewRomanPSMT-69" x="330.371094"/>
      <use xlink:href="#TimesNewRomanPSMT-6e" x="358.154297"/>
      <use xlink:href="#TimesNewRomanPSMT-74" x="408.154297"/>
      <use xlink:href="#TimesNewRomanPSMT-65" x="435.9375"/>
      <use xlink:href="#TimesNewRomanPSMT-72" x="480.322266"/>
      <use xlink:href="#TimesNewRomanPSMT-70" x="513.623047"/>
      <use xlink:href="#TimesNewRomanPSMT-6f" x="563.623047"/>
      <use xlink:href="#TimesNewRomanPSMT-6c" x="613.623047"/>
      <use xlink:href="#TimesNewRomanPSMT-61" x="641.40625"/>
      <use xlink:href="#TimesNewRomanPSMT-74" x="685.791016"/>
      <use xlink:href="#TimesNewRomanPSMT-69" x="713.574219"/>
      <use xlink:href="#TimesNewRomanPSMT-6f" x="741.357422"/>
      <use xlink:href="#TimesNewRomanPSMT-6e" x="791.357422"/>
     </g>
    </g>
    <g id="line2d_37">
     <path d="M 73.28 84.200625 
L 91.28 84.200625 
L 109.28 84.200625 
" style="fill: none; stroke-dasharray: 1.5,2.475; stroke-dashoffset: 0; stroke: #800080; stroke-width: 1.5"/>
    </g>
    <g id="text_19">
     <!-- SRP-ILA-based method -->
     <g transform="translate(123.68 90.500625)scale(0.18 -0.18)">
      <defs>
       <path id="TimesNewRomanPSMT-53" d="M 2934 4334 
L 2934 2869 
L 2819 2869 
Q 2763 3291 2617 3541 
Q 2472 3791 2203 3937 
Q 1934 4084 1647 4084 
Q 1322 4084 1109 3886 
Q 897 3688 897 3434 
Q 897 3241 1031 3081 
Q 1225 2847 1953 2456 
Q 2547 2138 2764 1967 
Q 2981 1797 3098 1565 
Q 3216 1334 3216 1081 
Q 3216 600 2842 251 
Q 2469 -97 1881 -97 
Q 1697 -97 1534 -69 
Q 1438 -53 1133 45 
Q 828 144 747 144 
Q 669 144 623 97 
Q 578 50 556 -97 
L 441 -97 
L 441 1356 
L 556 1356 
Q 638 900 775 673 
Q 913 447 1195 297 
Q 1478 147 1816 147 
Q 2206 147 2432 353 
Q 2659 559 2659 841 
Q 2659 997 2573 1156 
Q 2488 1316 2306 1453 
Q 2184 1547 1640 1851 
Q 1097 2156 867 2337 
Q 638 2519 519 2737 
Q 400 2956 400 3219 
Q 400 3675 750 4004 
Q 1100 4334 1641 4334 
Q 1978 4334 2356 4169 
Q 2531 4091 2603 4091 
Q 2684 4091 2736 4139 
Q 2788 4188 2819 4334 
L 2934 4334 
z
" transform="scale(0.015625)"/>
       <path id="TimesNewRomanPSMT-52" d="M 4325 0 
L 3194 0 
L 1759 1981 
Q 1600 1975 1500 1975 
Q 1459 1975 1412 1976 
Q 1366 1978 1316 1981 
L 1316 750 
Q 1316 350 1403 253 
Q 1522 116 1759 116 
L 1925 116 
L 1925 0 
L 109 0 
L 109 116 
L 269 116 
Q 538 116 653 291 
Q 719 388 719 750 
L 719 3488 
Q 719 3888 631 3984 
Q 509 4122 269 4122 
L 109 4122 
L 109 4238 
L 1653 4238 
Q 2328 4238 2648 4139 
Q 2969 4041 3192 3777 
Q 3416 3513 3416 3147 
Q 3416 2756 3161 2468 
Q 2906 2181 2372 2063 
L 3247 847 
Q 3547 428 3762 290 
Q 3978 153 4325 116 
L 4325 0 
z
M 1316 2178 
Q 1375 2178 1419 2176 
Q 1463 2175 1491 2175 
Q 2097 2175 2405 2437 
Q 2713 2700 2713 3106 
Q 2713 3503 2464 3751 
Q 2216 4000 1806 4000 
Q 1625 4000 1316 3941 
L 1316 2178 
z
" transform="scale(0.015625)"/>
       <path id="TimesNewRomanPSMT-2d" d="M 259 1672 
L 1875 1672 
L 1875 1200 
L 259 1200 
L 259 1672 
z
" transform="scale(0.015625)"/>
       <path id="TimesNewRomanPSMT-49" d="M 1975 116 
L 1975 0 
L 159 0 
L 159 116 
L 309 116 
Q 572 116 691 269 
Q 766 369 766 750 
L 766 3488 
Q 766 3809 725 3913 
Q 694 3991 597 4047 
Q 459 4122 309 4122 
L 159 4122 
L 159 4238 
L 1975 4238 
L 1975 4122 
L 1822 4122 
Q 1563 4122 1444 3969 
Q 1366 3869 1366 3488 
L 1366 750 
Q 1366 428 1406 325 
Q 1438 247 1538 191 
Q 1672 116 1822 116 
L 1975 116 
z
" transform="scale(0.015625)"/>
       <path id="TimesNewRomanPSMT-4c" d="M 3669 1172 
L 3772 1150 
L 3409 0 
L 128 0 
L 128 116 
L 288 116 
Q 556 116 672 291 
Q 738 391 738 753 
L 738 3488 
Q 738 3884 650 3984 
Q 528 4122 288 4122 
L 128 4122 
L 128 4238 
L 2047 4238 
L 2047 4122 
Q 1709 4125 1573 4059 
Q 1438 3994 1388 3894 
Q 1338 3794 1338 3416 
L 1338 753 
Q 1338 494 1388 397 
Q 1425 331 1503 300 
Q 1581 269 1991 269 
L 2300 269 
Q 2788 269 2984 341 
Q 3181 413 3343 595 
Q 3506 778 3669 1172 
z
" transform="scale(0.015625)"/>
       <path id="TimesNewRomanPSMT-62" d="M 984 2369 
Q 1400 2947 1881 2947 
Q 2322 2947 2650 2570 
Q 2978 2194 2978 1541 
Q 2978 778 2472 313 
Q 2038 -88 1503 -88 
Q 1253 -88 995 3 
Q 738 94 469 275 
L 469 3241 
Q 469 3728 445 3840 
Q 422 3953 372 3993 
Q 322 4034 247 4034 
Q 159 4034 28 3984 
L -16 4094 
L 844 4444 
L 984 4444 
L 984 2369 
z
M 984 2169 
L 984 456 
Q 1144 300 1314 220 
Q 1484 141 1663 141 
Q 1947 141 2192 453 
Q 2438 766 2438 1363 
Q 2438 1913 2192 2208 
Q 1947 2503 1634 2503 
Q 1469 2503 1303 2419 
Q 1178 2356 984 2169 
z
" transform="scale(0.015625)"/>
       <path id="TimesNewRomanPSMT-68" d="M 1041 4444 
L 1041 2350 
Q 1388 2731 1591 2839 
Q 1794 2947 1997 2947 
Q 2241 2947 2416 2812 
Q 2591 2678 2675 2391 
Q 2734 2191 2734 1659 
L 2734 647 
Q 2734 375 2778 275 
Q 2809 200 2884 156 
Q 2959 113 3159 113 
L 3159 0 
L 1753 0 
L 1753 113 
L 1819 113 
Q 2019 113 2097 173 
Q 2175 234 2206 353 
Q 2216 403 2216 647 
L 2216 1659 
Q 2216 2128 2167 2275 
Q 2119 2422 2012 2495 
Q 1906 2569 1756 2569 
Q 1603 2569 1437 2487 
Q 1272 2406 1041 2159 
L 1041 647 
Q 1041 353 1073 281 
Q 1106 209 1195 161 
Q 1284 113 1503 113 
L 1503 0 
L 84 0 
L 84 113 
Q 275 113 384 172 
Q 447 203 484 290 
Q 522 378 522 647 
L 522 3238 
Q 522 3728 498 3840 
Q 475 3953 426 3993 
Q 378 4034 297 4034 
Q 231 4034 84 3984 
L 41 4094 
L 897 4444 
L 1041 4444 
z
" transform="scale(0.015625)"/>
      </defs>
      <use xlink:href="#TimesNewRomanPSMT-53"/>
      <use xlink:href="#TimesNewRomanPSMT-52" x="55.615234"/>
      <use xlink:href="#TimesNewRomanPSMT-50" x="122.314453"/>
      <use xlink:href="#TimesNewRomanPSMT-2d" x="177.929688"/>
      <use xlink:href="#TimesNewRomanPSMT-49" x="211.230469"/>
      <use xlink:href="#TimesNewRomanPSMT-4c" x="244.53125"/>
      <use xlink:href="#TimesNewRomanPSMT-41" x="305.615234"/>
      <use xlink:href="#TimesNewRomanPSMT-2d" x="377.832031"/>
      <use xlink:href="#TimesNewRomanPSMT-62" x="411.132812"/>
      <use xlink:href="#TimesNewRomanPSMT-61" x="461.132812"/>
      <use xlink:href="#TimesNewRomanPSMT-73" x="505.517578"/>
      <use xlink:href="#TimesNewRomanPSMT-65" x="544.433594"/>
      <use xlink:href="#TimesNewRomanPSMT-64" x="588.818359"/>
      <use xlink:href="#TimesNewRomanPSMT-20" x="638.818359"/>
      <use xlink:href="#TimesNewRomanPSMT-6d" x="663.818359"/>
      <use xlink:href="#TimesNewRomanPSMT-65" x="741.601562"/>
      <use xlink:href="#TimesNewRomanPSMT-74" x="785.986328"/>
      <use xlink:href="#TimesNewRomanPSMT-68" x="813.769531"/>
      <use xlink:href="#TimesNewRomanPSMT-6f" x="863.769531"/>
      <use xlink:href="#TimesNewRomanPSMT-64" x="913.769531"/>
     </g>
    </g>
    <g id="line2d_38">
     <path d="M 73.28 109.650938 
L 91.28 109.650938 
L 109.28 109.650938 
" style="fill: none; stroke-dasharray: 9.6,2.4,1.5,2.4; stroke-dashoffset: 0; stroke: #0000ff; stroke-width: 1.5"/>
    </g>
    <g id="text_20">
     <!-- SRPCNN-based method -->
     <g transform="translate(123.68 115.950938)scale(0.18 -0.18)">
      <defs>
       <path id="TimesNewRomanPSMT-43" d="M 3853 4334 
L 3950 2894 
L 3853 2894 
Q 3659 3541 3300 3825 
Q 2941 4109 2438 4109 
Q 2016 4109 1675 3895 
Q 1334 3681 1139 3212 
Q 944 2744 944 2047 
Q 944 1472 1128 1050 
Q 1313 628 1683 403 
Q 2053 178 2528 178 
Q 2941 178 3256 354 
Q 3572 531 3950 1056 
L 4047 994 
Q 3728 428 3303 165 
Q 2878 -97 2294 -97 
Q 1241 -97 663 684 
Q 231 1266 231 2053 
Q 231 2688 515 3219 
Q 800 3750 1298 4042 
Q 1797 4334 2388 4334 
Q 2847 4334 3294 4109 
Q 3425 4041 3481 4041 
Q 3566 4041 3628 4100 
Q 3709 4184 3744 4334 
L 3853 4334 
z
" transform="scale(0.015625)"/>
      </defs>
      <use xlink:href="#TimesNewRomanPSMT-53"/>
      <use xlink:href="#TimesNewRomanPSMT-52" x="55.615234"/>
      <use xlink:href="#TimesNewRomanPSMT-50" x="122.314453"/>
      <use xlink:href="#TimesNewRomanPSMT-43" x="177.929688"/>
      <use xlink:href="#TimesNewRomanPSMT-4e" x="244.628906"/>
      <use xlink:href="#TimesNewRomanPSMT-4e" x="316.845703"/>
      <use xlink:href="#TimesNewRomanPSMT-2d" x="389.0625"/>
      <use xlink:href="#TimesNewRomanPSMT-62" x="422.363281"/>
      <use xlink:href="#TimesNewRomanPSMT-61" x="472.363281"/>
      <use xlink:href="#TimesNewRomanPSMT-73" x="516.748047"/>
      <use xlink:href="#TimesNewRomanPSMT-65" x="555.664062"/>
      <use xlink:href="#TimesNewRomanPSMT-64" x="600.048828"/>
      <use xlink:href="#TimesNewRomanPSMT-20" x="650.048828"/>
      <use xlink:href="#TimesNewRomanPSMT-6d" x="675.048828"/>
      <use xlink:href="#TimesNewRomanPSMT-65" x="752.832031"/>
      <use xlink:href="#TimesNewRomanPSMT-74" x="797.216797"/>
      <use xlink:href="#TimesNewRomanPSMT-68" x="825"/>
      <use xlink:href="#TimesNewRomanPSMT-6f" x="875"/>
      <use xlink:href="#TimesNewRomanPSMT-64" x="925"/>
     </g>
    </g>
    <g id="line2d_39">
     <path d="M 73.28 135.10125 
L 91.28 135.10125 
L 109.28 135.10125 
" style="fill: none; stroke-dasharray: 4.5,7.5,1.5,7.5; stroke-dashoffset: 0; stroke: #00ff00; stroke-width: 1.5"/>
    </g>
    <g id="text_21">
     <!-- Generator-only method -->
     <g transform="translate(123.68 141.40125)scale(0.18 -0.18)">
      <defs>
       <path id="TimesNewRomanPSMT-47" d="M 3928 4334 
L 4038 2997 
L 3928 2997 
Q 3763 3497 3500 3750 
Q 3122 4116 2528 4116 
Q 1719 4116 1297 3475 
Q 944 2934 944 2188 
Q 944 1581 1178 1081 
Q 1413 581 1792 348 
Q 2172 116 2572 116 
Q 2806 116 3025 175 
Q 3244 234 3447 350 
L 3447 1575 
Q 3447 1894 3398 1992 
Q 3350 2091 3248 2142 
Q 3147 2194 2891 2194 
L 2891 2313 
L 4531 2313 
L 4531 2194 
L 4453 2194 
Q 4209 2194 4119 2031 
Q 4056 1916 4056 1575 
L 4056 278 
Q 3697 84 3347 -6 
Q 2997 -97 2569 -97 
Q 1341 -97 703 691 
Q 225 1281 225 2053 
Q 225 2613 494 3125 
Q 813 3734 1369 4063 
Q 1834 4334 2469 4334 
Q 2700 4334 2889 4296 
Q 3078 4259 3425 4131 
Q 3600 4066 3659 4066 
Q 3719 4066 3761 4120 
Q 3803 4175 3813 4334 
L 3928 4334 
z
" transform="scale(0.015625)"/>
       <path id="TimesNewRomanPSMT-79" d="M 38 2863 
L 1372 2863 
L 1372 2747 
L 1306 2747 
Q 1166 2747 1095 2686 
Q 1025 2625 1025 2534 
Q 1025 2413 1128 2197 
L 1825 753 
L 2466 2334 
Q 2519 2463 2519 2588 
Q 2519 2644 2497 2672 
Q 2472 2706 2419 2726 
Q 2366 2747 2231 2747 
L 2231 2863 
L 3163 2863 
L 3163 2747 
Q 3047 2734 2984 2696 
Q 2922 2659 2847 2556 
Q 2819 2513 2741 2316 
L 1575 -541 
Q 1406 -956 1132 -1168 
Q 859 -1381 606 -1381 
Q 422 -1381 303 -1275 
Q 184 -1169 184 -1031 
Q 184 -900 270 -820 
Q 356 -741 506 -741 
Q 609 -741 788 -809 
Q 913 -856 944 -856 
Q 1038 -856 1148 -759 
Q 1259 -663 1372 -384 
L 1575 113 
L 547 2272 
Q 500 2369 397 2513 
Q 319 2622 269 2659 
Q 197 2709 38 2747 
L 38 2863 
z
" transform="scale(0.015625)"/>
      </defs>
      <use xlink:href="#TimesNewRomanPSMT-47"/>
      <use xlink:href="#TimesNewRomanPSMT-65" x="72.216797"/>
      <use xlink:href="#TimesNewRomanPSMT-6e" x="116.601562"/>
      <use xlink:href="#TimesNewRomanPSMT-65" x="166.601562"/>
      <use xlink:href="#TimesNewRomanPSMT-72" x="210.986328"/>
      <use xlink:href="#TimesNewRomanPSMT-61" x="244.287109"/>
      <use xlink:href="#TimesNewRomanPSMT-74" x="288.671875"/>
      <use xlink:href="#TimesNewRomanPSMT-6f" x="316.455078"/>
      <use xlink:href="#TimesNewRomanPSMT-72" x="366.455078"/>
      <use xlink:href="#TimesNewRomanPSMT-2d" x="397.755859"/>
      <use xlink:href="#TimesNewRomanPSMT-6f" x="431.056641"/>
      <use xlink:href="#TimesNewRomanPSMT-6e" x="481.056641"/>
      <use xlink:href="#TimesNewRomanPSMT-6c" x="531.056641"/>
      <use xlink:href="#TimesNewRomanPSMT-79" x="558.839844"/>
      <use xlink:href="#TimesNewRomanPSMT-20" x="608.839844"/>
      <use xlink:href="#TimesNewRomanPSMT-6d" x="633.839844"/>
      <use xlink:href="#TimesNewRomanPSMT-65" x="711.623047"/>
      <use xlink:href="#TimesNewRomanPSMT-74" x="756.007812"/>
      <use xlink:href="#TimesNewRomanPSMT-68" x="783.791016"/>
      <use xlink:href="#TimesNewRomanPSMT-6f" x="833.791016"/>
      <use xlink:href="#TimesNewRomanPSMT-64" x="883.791016"/>
     </g>
    </g>
    <g id="line2d_40">
     <path d="M 73.28 160.585313 
L 91.28 160.585313 
L 109.28 160.585313 
" style="fill: none; stroke: #dc143c; stroke-width: 1.5; stroke-linecap: square"/>
    </g>
    <g id="text_22">
     <!-- The proposed system -->
     <g transform="translate(123.68 166.885313)scale(0.18 -0.18)">
      <use xlink:href="#TimesNewRomanPSMT-54"/>
      <use xlink:href="#TimesNewRomanPSMT-68" x="61.083984"/>
      <use xlink:href="#TimesNewRomanPSMT-65" x="111.083984"/>
      <use xlink:href="#TimesNewRomanPSMT-20" x="155.46875"/>
      <use xlink:href="#TimesNewRomanPSMT-70" x="180.46875"/>
      <use xlink:href="#TimesNewRomanPSMT-72" x="230.46875"/>
      <use xlink:href="#TimesNewRomanPSMT-6f" x="263.769531"/>
      <use xlink:href="#TimesNewRomanPSMT-70" x="313.769531"/>
      <use xlink:href="#TimesNewRomanPSMT-6f" x="363.769531"/>
      <use xlink:href="#TimesNewRomanPSMT-73" x="413.769531"/>
      <use xlink:href="#TimesNewRomanPSMT-65" x="452.685547"/>
      <use xlink:href="#TimesNewRomanPSMT-64" x="497.070312"/>
      <use xlink:href="#TimesNewRomanPSMT-20" x="547.070312"/>
      <use xlink:href="#TimesNewRomanPSMT-73" x="572.070312"/>
      <use xlink:href="#TimesNewRomanPSMT-79" x="610.986328"/>
      <use xlink:href="#TimesNewRomanPSMT-73" x="660.986328"/>
      <use xlink:href="#TimesNewRomanPSMT-74" x="699.902344"/>
      <use xlink:href="#TimesNewRomanPSMT-65" x="727.685547"/>
      <use xlink:href="#TimesNewRomanPSMT-6d" x="772.070312"/>
     </g>
    </g>
   </g>
  </g>
  <g id="axes_2">
   <g id="patch_8">
    <path d="M 508.564 136.052 
L 704.2 136.052 
L 704.2 15.8 
L 508.564 15.8 
z
" style="fill: #ffffff"/>
   </g>
   <g id="patch_9">
    <path d="M 508.564 136.052 
L 704.2 136.052 
L 704.2 15.8 
L 508.564 15.8 
L 508.564 136.052 
z
" clip-path="url(#p302134820f)" style="fill: none; stroke: #808080; stroke-linejoin: miter"/>
   </g>
   <g id="patch_10">
    <path d="M 508.564 15.8 
L 508.564 15.8 
" style="fill: none; stroke: #808080; stroke-linejoin: miter"/>
   </g>
   <g id="patch_11">
    <path d="M 704.2 136.052 
L 704.2 136.052 
" style="fill: none; stroke: #808080; stroke-linejoin: miter"/>
   </g>
   <g id="matplotlib.axis_3">
    <g id="xtick_9">
     <g id="line2d_41">
      <g>
       <use xlink:href="#md7556fd944" x="572.1457" y="136.052" style="stroke: #000000; stroke-width: 0.8"/>
      </g>
     </g>
     <g id="text_23">
      <!-- 60 -->
      <g transform="translate(563.6457 154.856375)scale(0.17 -0.17)">
       <use xlink:href="#TimesNewRomanPSMT-36"/>
       <use xlink:href="#TimesNewRomanPSMT-30" x="50"/>
      </g>
     </g>
    </g>
    <g id="xtick_10">
     <g id="line2d_42">
      <g>
       <use xlink:href="#md7556fd944" x="669.9637" y="136.052" style="stroke: #000000; stroke-width: 0.8"/>
      </g>
     </g>
     <g id="text_24">
      <!-- 80 -->
      <g transform="translate(661.4637 154.856375)scale(0.17 -0.17)">
       <use xlink:href="#TimesNewRomanPSMT-38"/>
       <use xlink:href="#TimesNewRomanPSMT-30" x="50"/>
      </g>
     </g>
    </g>
   </g>
   <g id="matplotlib.axis_4">
    <g id="ytick_7">
     <g id="line2d_43">
      <g>
       <use xlink:href="#m8dc1e85ab5" x="508.564" y="102.642582" style="stroke: #000000; stroke-width: 0.8"/>
      </g>
     </g>
     <g id="text_25">
      <!-- 5.0 -->
      <g transform="translate(480.314 108.54477)scale(0.17 -0.17)">
       <defs>
        <path id="TimesNewRomanPSMT-35" d="M 2778 4238 
L 2534 3706 
L 1259 3706 
L 981 3138 
Q 1809 3016 2294 2522 
Q 2709 2097 2709 1522 
Q 2709 1188 2573 903 
Q 2438 619 2231 419 
Q 2025 219 1772 97 
Q 1413 -75 1034 -75 
Q 653 -75 479 54 
Q 306 184 306 341 
Q 306 428 378 495 
Q 450 563 559 563 
Q 641 563 702 538 
Q 763 513 909 409 
Q 1144 247 1384 247 
Q 1750 247 2026 523 
Q 2303 800 2303 1197 
Q 2303 1581 2056 1914 
Q 1809 2247 1375 2428 
Q 1034 2569 447 2591 
L 1259 4238 
L 2778 4238 
z
" transform="scale(0.015625)"/>
        <path id="TimesNewRomanPSMT-2e" d="M 800 606 
Q 947 606 1047 504 
Q 1147 403 1147 259 
Q 1147 116 1045 14 
Q 944 -88 800 -88 
Q 656 -88 554 14 
Q 453 116 453 259 
Q 453 406 554 506 
Q 656 606 800 606 
z
" transform="scale(0.015625)"/>
       </defs>
       <use xlink:href="#TimesNewRomanPSMT-35"/>
       <use xlink:href="#TimesNewRomanPSMT-2e" x="50"/>
       <use xlink:href="#TimesNewRomanPSMT-30" x="75"/>
      </g>
     </g>
    </g>
    <g id="ytick_8">
     <g id="line2d_44">
      <g>
       <use xlink:href="#m8dc1e85ab5" x="508.564" y="52.537582" style="stroke: #000000; stroke-width: 0.8"/>
      </g>
     </g>
     <g id="text_26">
      <!-- 5.5 -->
      <g transform="translate(480.314 58.43977)scale(0.17 -0.17)">
       <use xlink:href="#TimesNewRomanPSMT-35"/>
       <use xlink:href="#TimesNewRomanPSMT-2e" x="50"/>
       <use xlink:href="#TimesNewRomanPSMT-35" x="75"/>
      </g>
     </g>
    </g>
   </g>
   <g id="line2d_45">
    <path d="M 365.256218 469 
L 371.6188 218.360067 
L 381.4006 218.360067 
L 387.763182 469 
M 602.263062 469 
L 606.382 371.030022 
L 616.1638 371.030022 
L 625.9456 79.794734 
L 635.7274 79.794734 
L 645.5092 276.506922 
L 655.291 276.506922 
L 664.435581 469 
L 664.435581 469 
" clip-path="url(#p302134820f)" style="fill: none; stroke-dasharray: 5.55,2.4; stroke-dashoffset: 0; stroke: #ffa500; stroke-width: 1.5"/>
   </g>
   <g id="line2d_46">
    <path d="M 373.489487 469 
L 376.5097 234.649916 
L 381.4006 117.342902 
L 386.2915 170.904872 
L 391.1824 340.161582 
L 393.954754 469 
M 617.011332 469 
L 621.0547 240.084851 
L 625.9456 134.772492 
L 630.8365 99.43619 
L 635.7274 65.861154 
L 640.6183 75.177667 
L 645.5092 85.492098 
L 650.4001 135.01509 
L 655.291 162.167786 
L 660.1819 357.041754 
L 665.0728 416.159039 
L 669.9637 439.23545 
L 673.33969 469 
L 673.33969 469 
" clip-path="url(#p302134820f)" style="fill: none; stroke-dasharray: 1.5,2.475; stroke-dashoffset: 0; stroke: #800080; stroke-width: 1.5"/>
   </g>
   <g id="line2d_47">
    <path d="M 373.213309 469 
L 376.5097 280.747715 
L 381.4006 158.36553 
L 386.2915 182.234137 
L 391.1824 318.88231 
L 394.310055 469 
M 617.427858 469 
L 621.0547 247.385364 
L 625.9456 92.158423 
L 630.8365 52.686955 
L 635.7274 87.259431 
L 640.6183 89.384284 
L 645.5092 76.816748 
L 650.4001 106.77493 
L 655.291 196.03612 
L 660.1819 380.497986 
L 665.0728 427.990977 
L 669.9637 385.001614 
L 673.991091 469 
L 673.991091 469 
" clip-path="url(#p302134820f)" style="fill: none; stroke-dasharray: 9.6,2.4,1.5,2.4; stroke-dashoffset: 0; stroke: #0000ff; stroke-width: 1.5"/>
   </g>
   <g id="line2d_48">
    <path d="M 373.821852 469 
L 376.5097 271.565498 
L 381.4006 105.579378 
L 386.2915 148.626798 
L 391.1824 343.859622 
L 393.351144 469 
M 616.858191 469 
L 621.0547 240.174207 
L 625.9456 147.62047 
L 630.8365 84.032874 
L 635.7274 54.854239 
L 640.6183 72.594089 
L 645.5092 122.143029 
L 650.4001 187.162993 
L 655.291 241.896027 
L 660.1819 303.906039 
L 665.0728 383.244076 
L 669.9637 433.197697 
L 674.08315 469 
L 674.08315 469 
" clip-path="url(#p302134820f)" style="fill: none; stroke-dasharray: 4.5,7.5,1.5,7.5; stroke-dashoffset: 0; stroke: #00ff00; stroke-width: 1.5"/>
   </g>
   <g id="line2d_49">
    <path d="M 373.064987 469 
L 376.5097 258.992969 
L 381.4006 140.358997 
L 386.2915 172.450154 
L 391.1824 306.24286 
L 394.519337 469 
M 616.705345 469 
L 621.0547 294.271142 
L 625.9456 92.897161 
L 630.8365 35.842 
L 635.7274 54.912153 
L 640.6183 102.362664 
L 645.5092 110.908424 
L 650.4001 174.174387 
L 655.291 257.240449 
L 660.1819 308.298474 
L 665.0728 356.093817 
L 669.9637 391.140119 
L 675.561114 469 
L 675.561114 469 
" clip-path="url(#p302134820f)" style="fill: none; stroke: #dc143c; stroke-width: 1.5; stroke-linecap: square"/>
   </g>
   <g id="line2d_50">
    <path d="M 377.12938 469 
L 381.4006 64.863427 
L 386.184178 -1 
M 386.316779 -1 
L 391.1824 283.421412 
L 394.016393 469 
M 618.849206 469 
L 621.0547 358.378507 
L 625.049237 -1 
M 636.486137 -1 
L 640.6183 98.734437 
L 645.5092 248.247719 
L 650.4001 277.007983 
L 655.291 291.237799 
L 660.1819 222.593955 
L 665.0728 315.187997 
L 669.9637 447.364988 
L 672.59039 469 
L 672.59039 469 
" clip-path="url(#p302134820f)" style="fill: none; stroke: #000000; stroke-width: 1.5; stroke-linecap: square"/>
   </g>
   <g id="patch_12">
    <path d="M 508.564 136.052 
L 508.564 15.8 
" style="fill: none; stroke: #000000; stroke-width: 0.8; stroke-linejoin: miter; stroke-linecap: square"/>
   </g>
   <g id="patch_13">
    <path d="M 704.2 136.052 
L 704.2 15.8 
" style="fill: none; stroke: #000000; stroke-width: 0.8; stroke-linejoin: miter; stroke-linecap: square"/>
   </g>
   <g id="patch_14">
    <path d="M 508.564 136.052 
L 704.2 136.052 
" style="fill: none; stroke: #000000; stroke-width: 0.8; stroke-linejoin: miter; stroke-linecap: square"/>
   </g>
   <g id="patch_15">
    <path d="M 508.564 15.8 
L 704.2 15.8 
" style="fill: none; stroke: #000000; stroke-width: 0.8; stroke-linejoin: miter; stroke-linecap: square"/>
   </g>
  </g>
 </g>
 <defs>
  <clipPath id="pa37fa014e8">
   <rect x="57.08" y="10.8" width="652.12" height="400.84"/>
  </clipPath>
  <clipPath id="p302134820f">
   <rect x="508.564" y="15.8" width="195.636" height="120.252"/>
  </clipPath>
 </defs>
</svg>
