<?xml version="1.0" encoding="utf-8" standalone="no"?>
<!DOCTYPE svg PUBLIC "-//W3C//DTD SVG 1.1//EN"
  "http://www.w3.org/Graphics/SVG/1.1/DTD/svg11.dtd">
<svg xmlns:xlink="http://www.w3.org/1999/xlink" width="460.8pt" height="288pt" viewBox="0 0 460.8 288" xmlns="http://www.w3.org/2000/svg" version="1.1">
 <metadata>
  <rdf:RDF xmlns:dc="http://purl.org/dc/elements/1.1/" xmlns:cc="http://creativecommons.org/ns#" xmlns:rdf="http://www.w3.org/1999/02/22-rdf-syntax-ns#">
   <cc:Work>
    <dc:type rdf:resource="http://purl.org/dc/dcmitype/StillImage"/>
    <dc:date>2025-03-05T01:11:41.528827</dc:date>
    <dc:format>image/svg+xml</dc:format>
    <dc:creator>
     <cc:Agent>
      <dc:title>Matplotlib v3.5.3, https://matplotlib.org/</dc:title>
     </cc:Agent>
    </dc:creator>
   </cc:Work>
  </rdf:RDF>
 </metadata>
 <defs>
  <style type="text/css">*{stroke-linejoin: round; stroke-linecap: butt}</style>
 </defs>
 <g id="figure_1">
  <g id="patch_1">
   <path d="M 0 288 
L 460.8 288 
L 460.8 0 
L 0 0 
z
" style="fill: #ffffff"/>
  </g>
  <g id="axes_1">
   <g id="patch_2">
    <path d="M 45.29 243.16 
L 450 243.16 
L 450 15.12 
L 45.29 15.12 
z
" style="fill: #ffffff"/>
   </g>
   <g id="matplotlib.axis_1">
    <g id="xtick_1">
     <g id="line2d_1">
      <path d="M 45.29 243.16 
L 45.29 15.12 
" clip-path="url(#p3f2caaf3c0)" style="fill: none; stroke-dasharray: 1.85,0.8; stroke-dashoffset: 0; stroke: #808080; stroke-opacity: 0.7; stroke-width: 0.5"/>
     </g>
     <g id="line2d_2">
      <defs>
       <path id="m0f849d8ad5" d="M 0 0 
L 0 3.5 
" style="stroke: #000000; stroke-width: 0.8"/>
      </defs>
      <g>
       <use xlink:href="#m0f849d8ad5" x="45.29" y="243.16" style="stroke: #000000; stroke-width: 0.8"/>
      </g>
     </g>
     <g id="text_1">
      <!-- 0 -->
      <g transform="translate(42.29 258.4925)scale(0.12 -0.12)">
       <defs>
        <path id="TimesNewRomanPSMT-30" d="M 231 2094 
Q 231 2819 450 3342 
Q 669 3866 1031 4122 
Q 1313 4325 1613 4325 
Q 2100 4325 2488 3828 
Q 2972 3213 2972 2159 
Q 2972 1422 2759 906 
Q 2547 391 2217 158 
Q 1888 -75 1581 -75 
Q 975 -75 572 641 
Q 231 1244 231 2094 
z
M 844 2016 
Q 844 1141 1059 588 
Q 1238 122 1591 122 
Q 1759 122 1940 273 
Q 2122 425 2216 781 
Q 2359 1319 2359 2297 
Q 2359 3022 2209 3506 
Q 2097 3866 1919 4016 
Q 1791 4119 1609 4119 
Q 1397 4119 1231 3928 
Q 1006 3669 925 3112 
Q 844 2556 844 2016 
z
" transform="scale(0.015625)"/>
       </defs>
       <use xlink:href="#TimesNewRomanPSMT-30"/>
      </g>
     </g>
    </g>
    <g id="xtick_2">
     <g id="line2d_3">
      <path d="M 101.499722 243.16 
L 101.499722 15.12 
" clip-path="url(#p3f2caaf3c0)" style="fill: none; stroke-dasharray: 1.85,0.8; stroke-dashoffset: 0; stroke: #808080; stroke-opacity: 0.7; stroke-width: 0.5"/>
     </g>
     <g id="line2d_4">
      <g>
       <use xlink:href="#m0f849d8ad5" x="101.499722" y="243.16" style="stroke: #000000; stroke-width: 0.8"/>
      </g>
     </g>
     <g id="text_2">
      <!-- 50 -->
      <g transform="translate(95.499722 258.4925)scale(0.12 -0.12)">
       <defs>
        <path id="TimesNewRomanPSMT-35" d="M 2778 4238 
L 2534 3706 
L 1259 3706 
L 981 3138 
Q 1809 3016 2294 2522 
Q 2709 2097 2709 1522 
Q 2709 1188 2573 903 
Q 2438 619 2231 419 
Q 2025 219 1772 97 
Q 1413 -75 1034 -75 
Q 653 -75 479 54 
Q 306 184 306 341 
Q 306 428 378 495 
Q 450 563 559 563 
Q 641 563 702 538 
Q 763 513 909 409 
Q 1144 247 1384 247 
Q 1750 247 2026 523 
Q 2303 800 2303 1197 
Q 2303 1581 2056 1914 
Q 1809 2247 1375 2428 
Q 1034 2569 447 2591 
L 1259 4238 
L 2778 4238 
z
" transform="scale(0.015625)"/>
       </defs>
       <use xlink:href="#TimesNewRomanPSMT-35"/>
       <use xlink:href="#TimesNewRomanPSMT-30" x="50"/>
      </g>
     </g>
    </g>
    <g id="xtick_3">
     <g id="line2d_5">
      <path d="M 157.709444 243.16 
L 157.709444 15.12 
" clip-path="url(#p3f2caaf3c0)" style="fill: none; stroke-dasharray: 1.85,0.8; stroke-dashoffset: 0; stroke: #808080; stroke-opacity: 0.7; stroke-width: 0.5"/>
     </g>
     <g id="line2d_6">
      <g>
       <use xlink:href="#m0f849d8ad5" x="157.709444" y="243.16" style="stroke: #000000; stroke-width: 0.8"/>
      </g>
     </g>
     <g id="text_3">
      <!-- 100 -->
      <g transform="translate(148.709444 258.4925)scale(0.12 -0.12)">
       <defs>
        <path id="TimesNewRomanPSMT-31" d="M 750 3822 
L 1781 4325 
L 1884 4325 
L 1884 747 
Q 1884 391 1914 303 
Q 1944 216 2037 169 
Q 2131 122 2419 116 
L 2419 0 
L 825 0 
L 825 116 
Q 1125 122 1212 167 
Q 1300 213 1334 289 
Q 1369 366 1369 747 
L 1369 3034 
Q 1369 3497 1338 3628 
Q 1316 3728 1258 3775 
Q 1200 3822 1119 3822 
Q 1003 3822 797 3725 
L 750 3822 
z
" transform="scale(0.015625)"/>
       </defs>
       <use xlink:href="#TimesNewRomanPSMT-31"/>
       <use xlink:href="#TimesNewRomanPSMT-30" x="50"/>
       <use xlink:href="#TimesNewRomanPSMT-30" x="100"/>
      </g>
     </g>
    </g>
    <g id="xtick_4">
     <g id="line2d_7">
      <path d="M 213.919167 243.16 
L 213.919167 15.12 
" clip-path="url(#p3f2caaf3c0)" style="fill: none; stroke-dasharray: 1.85,0.8; stroke-dashoffset: 0; stroke: #808080; stroke-opacity: 0.7; stroke-width: 0.5"/>
     </g>
     <g id="line2d_8">
      <g>
       <use xlink:href="#m0f849d8ad5" x="213.919167" y="243.16" style="stroke: #000000; stroke-width: 0.8"/>
      </g>
     </g>
     <g id="text_4">
      <!-- 150 -->
      <g transform="translate(204.919167 258.4925)scale(0.12 -0.12)">
       <use xlink:href="#TimesNewRomanPSMT-31"/>
       <use xlink:href="#TimesNewRomanPSMT-35" x="50"/>
       <use xlink:href="#TimesNewRomanPSMT-30" x="100"/>
      </g>
     </g>
    </g>
    <g id="xtick_5">
     <g id="line2d_9">
      <path d="M 270.128889 243.16 
L 270.128889 15.12 
" clip-path="url(#p3f2caaf3c0)" style="fill: none; stroke-dasharray: 1.85,0.8; stroke-dashoffset: 0; stroke: #808080; stroke-opacity: 0.7; stroke-width: 0.5"/>
     </g>
     <g id="line2d_10">
      <g>
       <use xlink:href="#m0f849d8ad5" x="270.128889" y="243.16" style="stroke: #000000; stroke-width: 0.8"/>
      </g>
     </g>
     <g id="text_5">
      <!-- 200 -->
      <g transform="translate(261.128889 258.4925)scale(0.12 -0.12)">
       <defs>
        <path id="TimesNewRomanPSMT-32" d="M 2934 816 
L 2638 0 
L 138 0 
L 138 116 
Q 1241 1122 1691 1759 
Q 2141 2397 2141 2925 
Q 2141 3328 1894 3587 
Q 1647 3847 1303 3847 
Q 991 3847 742 3664 
Q 494 3481 375 3128 
L 259 3128 
Q 338 3706 661 4015 
Q 984 4325 1469 4325 
Q 1984 4325 2329 3994 
Q 2675 3663 2675 3213 
Q 2675 2891 2525 2569 
Q 2294 2063 1775 1497 
Q 997 647 803 472 
L 1909 472 
Q 2247 472 2383 497 
Q 2519 522 2628 598 
Q 2738 675 2819 816 
L 2934 816 
z
" transform="scale(0.015625)"/>
       </defs>
       <use xlink:href="#TimesNewRomanPSMT-32"/>
       <use xlink:href="#TimesNewRomanPSMT-30" x="50"/>
       <use xlink:href="#TimesNewRomanPSMT-30" x="100"/>
      </g>
     </g>
    </g>
    <g id="xtick_6">
     <g id="line2d_11">
      <path d="M 326.338611 243.16 
L 326.338611 15.12 
" clip-path="url(#p3f2caaf3c0)" style="fill: none; stroke-dasharray: 1.85,0.8; stroke-dashoffset: 0; stroke: #808080; stroke-opacity: 0.7; stroke-width: 0.5"/>
     </g>
     <g id="line2d_12">
      <g>
       <use xlink:href="#m0f849d8ad5" x="326.338611" y="243.16" style="stroke: #000000; stroke-width: 0.8"/>
      </g>
     </g>
     <g id="text_6">
      <!-- 250 -->
      <g transform="translate(317.338611 258.4925)scale(0.12 -0.12)">
       <use xlink:href="#TimesNewRomanPSMT-32"/>
       <use xlink:href="#TimesNewRomanPSMT-35" x="50"/>
       <use xlink:href="#TimesNewRomanPSMT-30" x="100"/>
      </g>
     </g>
    </g>
    <g id="xtick_7">
     <g id="line2d_13">
      <path d="M 382.548333 243.16 
L 382.548333 15.12 
" clip-path="url(#p3f2caaf3c0)" style="fill: none; stroke-dasharray: 1.85,0.8; stroke-dashoffset: 0; stroke: #808080; stroke-opacity: 0.7; stroke-width: 0.5"/>
     </g>
     <g id="line2d_14">
      <g>
       <use xlink:href="#m0f849d8ad5" x="382.548333" y="243.16" style="stroke: #000000; stroke-width: 0.8"/>
      </g>
     </g>
     <g id="text_7">
      <!-- 300 -->
      <g transform="translate(373.548333 258.4925)scale(0.12 -0.12)">
       <defs>
        <path id="TimesNewRomanPSMT-33" d="M 325 3431 
Q 506 3859 782 4092 
Q 1059 4325 1472 4325 
Q 1981 4325 2253 3994 
Q 2459 3747 2459 3466 
Q 2459 3003 1878 2509 
Q 2269 2356 2469 2072 
Q 2669 1788 2669 1403 
Q 2669 853 2319 450 
Q 1863 -75 997 -75 
Q 569 -75 414 31 
Q 259 138 259 259 
Q 259 350 332 419 
Q 406 488 509 488 
Q 588 488 669 463 
Q 722 447 909 348 
Q 1097 250 1169 231 
Q 1284 197 1416 197 
Q 1734 197 1970 444 
Q 2206 691 2206 1028 
Q 2206 1275 2097 1509 
Q 2016 1684 1919 1775 
Q 1784 1900 1550 2001 
Q 1316 2103 1072 2103 
L 972 2103 
L 972 2197 
Q 1219 2228 1467 2375 
Q 1716 2522 1828 2728 
Q 1941 2934 1941 3181 
Q 1941 3503 1739 3701 
Q 1538 3900 1238 3900 
Q 753 3900 428 3381 
L 325 3431 
z
" transform="scale(0.015625)"/>
       </defs>
       <use xlink:href="#TimesNewRomanPSMT-33"/>
       <use xlink:href="#TimesNewRomanPSMT-30" x="50"/>
       <use xlink:href="#TimesNewRomanPSMT-30" x="100"/>
      </g>
     </g>
    </g>
    <g id="xtick_8">
     <g id="line2d_15">
      <path d="M 438.758056 243.16 
L 438.758056 15.12 
" clip-path="url(#p3f2caaf3c0)" style="fill: none; stroke-dasharray: 1.85,0.8; stroke-dashoffset: 0; stroke: #808080; stroke-opacity: 0.7; stroke-width: 0.5"/>
     </g>
     <g id="line2d_16">
      <g>
       <use xlink:href="#m0f849d8ad5" x="438.758056" y="243.16" style="stroke: #000000; stroke-width: 0.8"/>
      </g>
     </g>
     <g id="text_8">
      <!-- 350 -->
      <g transform="translate(429.758056 258.4925)scale(0.12 -0.12)">
       <use xlink:href="#TimesNewRomanPSMT-33"/>
       <use xlink:href="#TimesNewRomanPSMT-35" x="50"/>
       <use xlink:href="#TimesNewRomanPSMT-30" x="100"/>
      </g>
     </g>
    </g>
    <g id="text_9">
     <!-- Time index -->
     <g transform="translate(220.362812 273.391875)scale(0.12 -0.12)">
      <defs>
       <path id="TimesNewRomanPSMT-54" d="M 3703 4238 
L 3750 3244 
L 3631 3244 
Q 3597 3506 3538 3619 
Q 3441 3800 3280 3886 
Q 3119 3972 2856 3972 
L 2259 3972 
L 2259 734 
Q 2259 344 2344 247 
Q 2463 116 2709 116 
L 2856 116 
L 2856 0 
L 1059 0 
L 1059 116 
L 1209 116 
Q 1478 116 1591 278 
Q 1659 378 1659 734 
L 1659 3972 
L 1150 3972 
Q 853 3972 728 3928 
Q 566 3869 450 3700 
Q 334 3531 313 3244 
L 194 3244 
L 244 4238 
L 3703 4238 
z
" transform="scale(0.015625)"/>
       <path id="TimesNewRomanPSMT-69" d="M 928 4444 
Q 1059 4444 1151 4351 
Q 1244 4259 1244 4128 
Q 1244 3997 1151 3903 
Q 1059 3809 928 3809 
Q 797 3809 703 3903 
Q 609 3997 609 4128 
Q 609 4259 701 4351 
Q 794 4444 928 4444 
z
M 1188 2947 
L 1188 647 
Q 1188 378 1227 289 
Q 1266 200 1342 156 
Q 1419 113 1622 113 
L 1622 0 
L 231 0 
L 231 113 
Q 441 113 512 153 
Q 584 194 626 287 
Q 669 381 669 647 
L 669 1750 
Q 669 2216 641 2353 
Q 619 2453 572 2492 
Q 525 2531 444 2531 
Q 356 2531 231 2484 
L 188 2597 
L 1050 2947 
L 1188 2947 
z
" transform="scale(0.015625)"/>
       <path id="TimesNewRomanPSMT-6d" d="M 1050 2338 
Q 1363 2650 1419 2697 
Q 1559 2816 1721 2881 
Q 1884 2947 2044 2947 
Q 2313 2947 2506 2790 
Q 2700 2634 2766 2338 
Q 3088 2713 3309 2830 
Q 3531 2947 3766 2947 
Q 3994 2947 4170 2830 
Q 4347 2713 4450 2447 
Q 4519 2266 4519 1878 
L 4519 647 
Q 4519 378 4559 278 
Q 4591 209 4675 161 
Q 4759 113 4950 113 
L 4950 0 
L 3538 0 
L 3538 113 
L 3597 113 
Q 3781 113 3884 184 
Q 3956 234 3988 344 
Q 4000 397 4000 647 
L 4000 1878 
Q 4000 2228 3916 2372 
Q 3794 2572 3525 2572 
Q 3359 2572 3192 2489 
Q 3025 2406 2788 2181 
L 2781 2147 
L 2788 2013 
L 2788 647 
Q 2788 353 2820 281 
Q 2853 209 2943 161 
Q 3034 113 3253 113 
L 3253 0 
L 1806 0 
L 1806 113 
Q 2044 113 2133 169 
Q 2222 225 2256 338 
Q 2272 391 2272 647 
L 2272 1878 
Q 2272 2228 2169 2381 
Q 2031 2581 1784 2581 
Q 1616 2581 1450 2491 
Q 1191 2353 1050 2181 
L 1050 647 
Q 1050 366 1089 281 
Q 1128 197 1204 155 
Q 1281 113 1516 113 
L 1516 0 
L 100 0 
L 100 113 
Q 297 113 375 155 
Q 453 197 493 289 
Q 534 381 534 647 
L 534 1741 
Q 534 2213 506 2350 
Q 484 2453 437 2492 
Q 391 2531 309 2531 
Q 222 2531 100 2484 
L 53 2597 
L 916 2947 
L 1050 2947 
L 1050 2338 
z
" transform="scale(0.015625)"/>
       <path id="TimesNewRomanPSMT-65" d="M 681 1784 
Q 678 1147 991 784 
Q 1303 422 1725 422 
Q 2006 422 2214 576 
Q 2422 731 2563 1106 
L 2659 1044 
Q 2594 616 2278 264 
Q 1963 -88 1488 -88 
Q 972 -88 605 314 
Q 238 716 238 1394 
Q 238 2128 614 2539 
Q 991 2950 1559 2950 
Q 2041 2950 2350 2633 
Q 2659 2316 2659 1784 
L 681 1784 
z
M 681 1966 
L 2006 1966 
Q 1991 2241 1941 2353 
Q 1863 2528 1708 2628 
Q 1553 2728 1384 2728 
Q 1125 2728 920 2526 
Q 716 2325 681 1966 
z
" transform="scale(0.015625)"/>
       <path id="TimesNewRomanPSMT-20" transform="scale(0.015625)"/>
       <path id="TimesNewRomanPSMT-6e" d="M 1034 2341 
Q 1538 2947 1994 2947 
Q 2228 2947 2397 2830 
Q 2566 2713 2666 2444 
Q 2734 2256 2734 1869 
L 2734 647 
Q 2734 375 2778 278 
Q 2813 200 2889 156 
Q 2966 113 3172 113 
L 3172 0 
L 1756 0 
L 1756 113 
L 1816 113 
Q 2016 113 2095 173 
Q 2175 234 2206 353 
Q 2219 400 2219 647 
L 2219 1819 
Q 2219 2209 2117 2386 
Q 2016 2563 1775 2563 
Q 1403 2563 1034 2156 
L 1034 647 
Q 1034 356 1069 288 
Q 1113 197 1189 155 
Q 1266 113 1500 113 
L 1500 0 
L 84 0 
L 84 113 
L 147 113 
Q 366 113 442 223 
Q 519 334 519 647 
L 519 1709 
Q 519 2225 495 2337 
Q 472 2450 423 2490 
Q 375 2531 294 2531 
Q 206 2531 84 2484 
L 38 2597 
L 900 2947 
L 1034 2947 
L 1034 2341 
z
" transform="scale(0.015625)"/>
       <path id="TimesNewRomanPSMT-64" d="M 2222 322 
Q 2013 103 1813 7 
Q 1613 -88 1381 -88 
Q 913 -88 563 304 
Q 213 697 213 1313 
Q 213 1928 600 2439 
Q 988 2950 1597 2950 
Q 1975 2950 2222 2709 
L 2222 3238 
Q 2222 3728 2198 3840 
Q 2175 3953 2125 3993 
Q 2075 4034 2000 4034 
Q 1919 4034 1784 3984 
L 1744 4094 
L 2597 4444 
L 2738 4444 
L 2738 1134 
Q 2738 631 2761 520 
Q 2784 409 2836 365 
Q 2888 322 2956 322 
Q 3041 322 3181 375 
L 3216 266 
L 2366 -88 
L 2222 -88 
L 2222 322 
z
M 2222 541 
L 2222 2016 
Q 2203 2228 2109 2403 
Q 2016 2578 1861 2667 
Q 1706 2756 1559 2756 
Q 1284 2756 1069 2509 
Q 784 2184 784 1559 
Q 784 928 1059 592 
Q 1334 256 1672 256 
Q 1956 256 2222 541 
z
" transform="scale(0.015625)"/>
       <path id="TimesNewRomanPSMT-78" d="M 84 2863 
L 1431 2863 
L 1431 2747 
Q 1303 2747 1251 2703 
Q 1200 2659 1200 2588 
Q 1200 2513 1309 2356 
Q 1344 2306 1413 2200 
L 1616 1875 
L 1850 2200 
Q 2075 2509 2075 2591 
Q 2075 2656 2022 2701 
Q 1969 2747 1850 2747 
L 1850 2863 
L 2819 2863 
L 2819 2747 
Q 2666 2738 2553 2663 
Q 2400 2556 2134 2200 
L 1744 1678 
L 2456 653 
Q 2719 275 2831 198 
Q 2944 122 3122 113 
L 3122 0 
L 1772 0 
L 1772 113 
Q 1913 113 1991 175 
Q 2050 219 2050 291 
Q 2050 363 1850 653 
L 1431 1266 
L 972 653 
Q 759 369 759 316 
Q 759 241 829 180 
Q 900 119 1041 113 
L 1041 0 
L 106 0 
L 106 113 
Q 219 128 303 191 
Q 422 281 703 653 
L 1303 1450 
L 759 2238 
Q 528 2575 401 2661 
Q 275 2747 84 2747 
L 84 2863 
z
" transform="scale(0.015625)"/>
      </defs>
      <use xlink:href="#TimesNewRomanPSMT-54"/>
      <use xlink:href="#TimesNewRomanPSMT-69" x="57.583984"/>
      <use xlink:href="#TimesNewRomanPSMT-6d" x="85.367188"/>
      <use xlink:href="#TimesNewRomanPSMT-65" x="163.150391"/>
      <use xlink:href="#TimesNewRomanPSMT-20" x="207.535156"/>
      <use xlink:href="#TimesNewRomanPSMT-69" x="232.535156"/>
      <use xlink:href="#TimesNewRomanPSMT-6e" x="260.318359"/>
      <use xlink:href="#TimesNewRomanPSMT-64" x="310.318359"/>
      <use xlink:href="#TimesNewRomanPSMT-65" x="360.318359"/>
      <use xlink:href="#TimesNewRomanPSMT-78" x="404.703125"/>
     </g>
    </g>
   </g>
   <g id="matplotlib.axis_2">
    <g id="ytick_1">
     <g id="line2d_17">
      <path d="M 45.29 225.618462 
L 450 225.618462 
" clip-path="url(#p3f2caaf3c0)" style="fill: none; stroke-dasharray: 1.85,0.8; stroke-dashoffset: 0; stroke: #808080; stroke-opacity: 0.7; stroke-width: 0.5"/>
     </g>
     <g id="line2d_18">
      <defs>
       <path id="meeff155888" d="M 0 0 
L -3.5 0 
" style="stroke: #000000; stroke-width: 0.8"/>
      </defs>
      <g>
       <use xlink:href="#meeff155888" x="45.29" y="225.618462" style="stroke: #000000; stroke-width: 0.8"/>
      </g>
     </g>
     <g id="text_10">
      <!-- 0 -->
      <g transform="translate(32.29 229.784712)scale(0.12 -0.12)">
       <use xlink:href="#TimesNewRomanPSMT-30"/>
      </g>
     </g>
    </g>
    <g id="ytick_2">
     <g id="line2d_19">
      <path d="M 45.29 190.535385 
L 450 190.535385 
" clip-path="url(#p3f2caaf3c0)" style="fill: none; stroke-dasharray: 1.85,0.8; stroke-dashoffset: 0; stroke: #808080; stroke-opacity: 0.7; stroke-width: 0.5"/>
     </g>
     <g id="line2d_20">
      <g>
       <use xlink:href="#meeff155888" x="45.29" y="190.535385" style="stroke: #000000; stroke-width: 0.8"/>
      </g>
     </g>
     <g id="text_11">
      <!-- 2 -->
      <g transform="translate(32.29 194.701635)scale(0.12 -0.12)">
       <use xlink:href="#TimesNewRomanPSMT-32"/>
      </g>
     </g>
    </g>
    <g id="ytick_3">
     <g id="line2d_21">
      <path d="M 45.29 155.452308 
L 450 155.452308 
" clip-path="url(#p3f2caaf3c0)" style="fill: none; stroke-dasharray: 1.85,0.8; stroke-dashoffset: 0; stroke: #808080; stroke-opacity: 0.7; stroke-width: 0.5"/>
     </g>
     <g id="line2d_22">
      <g>
       <use xlink:href="#meeff155888" x="45.29" y="155.452308" style="stroke: #000000; stroke-width: 0.8"/>
      </g>
     </g>
     <g id="text_12">
      <!-- 4 -->
      <g transform="translate(32.29 159.618558)scale(0.12 -0.12)">
       <defs>
        <path id="TimesNewRomanPSMT-34" d="M 2978 1563 
L 2978 1119 
L 2409 1119 
L 2409 0 
L 1894 0 
L 1894 1119 
L 100 1119 
L 100 1519 
L 2066 4325 
L 2409 4325 
L 2409 1563 
L 2978 1563 
z
M 1894 1563 
L 1894 3666 
L 406 1563 
L 1894 1563 
z
" transform="scale(0.015625)"/>
       </defs>
       <use xlink:href="#TimesNewRomanPSMT-34"/>
      </g>
     </g>
    </g>
    <g id="ytick_4">
     <g id="line2d_23">
      <path d="M 45.29 120.369231 
L 450 120.369231 
" clip-path="url(#p3f2caaf3c0)" style="fill: none; stroke-dasharray: 1.85,0.8; stroke-dashoffset: 0; stroke: #808080; stroke-opacity: 0.7; stroke-width: 0.5"/>
     </g>
     <g id="line2d_24">
      <g>
       <use xlink:href="#meeff155888" x="45.29" y="120.369231" style="stroke: #000000; stroke-width: 0.8"/>
      </g>
     </g>
     <g id="text_13">
      <!-- 6 -->
      <g transform="translate(32.29 124.535481)scale(0.12 -0.12)">
       <defs>
        <path id="TimesNewRomanPSMT-36" d="M 2869 4325 
L 2869 4209 
Q 2456 4169 2195 4045 
Q 1934 3922 1679 3669 
Q 1425 3416 1258 3105 
Q 1091 2794 978 2366 
Q 1428 2675 1881 2675 
Q 2316 2675 2634 2325 
Q 2953 1975 2953 1425 
Q 2953 894 2631 456 
Q 2244 -75 1606 -75 
Q 1172 -75 869 213 
Q 275 772 275 1663 
Q 275 2231 503 2743 
Q 731 3256 1154 3653 
Q 1578 4050 1965 4187 
Q 2353 4325 2688 4325 
L 2869 4325 
z
M 925 2138 
Q 869 1716 869 1456 
Q 869 1156 980 804 
Q 1091 453 1309 247 
Q 1469 100 1697 100 
Q 1969 100 2183 356 
Q 2397 613 2397 1088 
Q 2397 1622 2184 2012 
Q 1972 2403 1581 2403 
Q 1463 2403 1327 2353 
Q 1191 2303 925 2138 
z
" transform="scale(0.015625)"/>
       </defs>
       <use xlink:href="#TimesNewRomanPSMT-36"/>
      </g>
     </g>
    </g>
    <g id="ytick_5">
     <g id="line2d_25">
      <path d="M 45.29 85.286154 
L 450 85.286154 
" clip-path="url(#p3f2caaf3c0)" style="fill: none; stroke-dasharray: 1.85,0.8; stroke-dashoffset: 0; stroke: #808080; stroke-opacity: 0.7; stroke-width: 0.5"/>
     </g>
     <g id="line2d_26">
      <g>
       <use xlink:href="#meeff155888" x="45.29" y="85.286154" style="stroke: #000000; stroke-width: 0.8"/>
      </g>
     </g>
     <g id="text_14">
      <!-- 8 -->
      <g transform="translate(32.29 89.452404)scale(0.12 -0.12)">
       <defs>
        <path id="TimesNewRomanPSMT-38" d="M 1228 2134 
Q 725 2547 579 2797 
Q 434 3047 434 3316 
Q 434 3728 753 4026 
Q 1072 4325 1600 4325 
Q 2113 4325 2425 4047 
Q 2738 3769 2738 3413 
Q 2738 3175 2569 2928 
Q 2400 2681 1866 2347 
Q 2416 1922 2594 1678 
Q 2831 1359 2831 1006 
Q 2831 559 2490 242 
Q 2150 -75 1597 -75 
Q 994 -75 656 303 
Q 388 606 388 966 
Q 388 1247 577 1523 
Q 766 1800 1228 2134 
z
M 1719 2469 
Q 2094 2806 2194 3001 
Q 2294 3197 2294 3444 
Q 2294 3772 2109 3958 
Q 1925 4144 1606 4144 
Q 1288 4144 1088 3959 
Q 888 3775 888 3528 
Q 888 3366 970 3203 
Q 1053 3041 1206 2894 
L 1719 2469 
z
M 1375 2016 
Q 1116 1797 991 1539 
Q 866 1281 866 981 
Q 866 578 1086 336 
Q 1306 94 1647 94 
Q 1984 94 2187 284 
Q 2391 475 2391 747 
Q 2391 972 2272 1150 
Q 2050 1481 1375 2016 
z
" transform="scale(0.015625)"/>
       </defs>
       <use xlink:href="#TimesNewRomanPSMT-38"/>
      </g>
     </g>
    </g>
    <g id="ytick_6">
     <g id="line2d_27">
      <path d="M 45.29 50.203077 
L 450 50.203077 
" clip-path="url(#p3f2caaf3c0)" style="fill: none; stroke-dasharray: 1.85,0.8; stroke-dashoffset: 0; stroke: #808080; stroke-opacity: 0.7; stroke-width: 0.5"/>
     </g>
     <g id="line2d_28">
      <g>
       <use xlink:href="#meeff155888" x="45.29" y="50.203077" style="stroke: #000000; stroke-width: 0.8"/>
      </g>
     </g>
     <g id="text_15">
      <!-- 10 -->
      <g transform="translate(26.29 54.369327)scale(0.12 -0.12)">
       <use xlink:href="#TimesNewRomanPSMT-31"/>
       <use xlink:href="#TimesNewRomanPSMT-30" x="50"/>
      </g>
     </g>
    </g>
    <g id="ytick_7">
     <g id="line2d_29">
      <path d="M 45.29 15.12 
L 450 15.12 
" clip-path="url(#p3f2caaf3c0)" style="fill: none; stroke-dasharray: 1.85,0.8; stroke-dashoffset: 0; stroke: #808080; stroke-opacity: 0.7; stroke-width: 0.5"/>
     </g>
     <g id="line2d_30">
      <g>
       <use xlink:href="#meeff155888" x="45.29" y="15.12" style="stroke: #000000; stroke-width: 0.8"/>
      </g>
     </g>
     <g id="text_16">
      <!-- 12 -->
      <g transform="translate(26.29 19.28625)scale(0.12 -0.12)">
       <use xlink:href="#TimesNewRomanPSMT-31"/>
       <use xlink:href="#TimesNewRomanPSMT-32" x="50"/>
      </g>
     </g>
    </g>
    <g id="text_17">
     <!-- Power [kW] -->
     <g transform="translate(19.723125 158.63)rotate(-90)scale(0.12 -0.12)">
      <defs>
       <path id="TimesNewRomanPSMT-50" d="M 1313 1984 
L 1313 750 
Q 1313 350 1400 253 
Q 1519 116 1759 116 
L 1922 116 
L 1922 0 
L 106 0 
L 106 116 
L 266 116 
Q 534 116 650 291 
Q 713 388 713 750 
L 713 3488 
Q 713 3888 628 3984 
Q 506 4122 266 4122 
L 106 4122 
L 106 4238 
L 1659 4238 
Q 2228 4238 2556 4120 
Q 2884 4003 3109 3725 
Q 3334 3447 3334 3066 
Q 3334 2547 2992 2222 
Q 2650 1897 2025 1897 
Q 1872 1897 1694 1919 
Q 1516 1941 1313 1984 
z
M 1313 2163 
Q 1478 2131 1606 2115 
Q 1734 2100 1825 2100 
Q 2150 2100 2386 2351 
Q 2622 2603 2622 3003 
Q 2622 3278 2509 3514 
Q 2397 3750 2190 3867 
Q 1984 3984 1722 3984 
Q 1563 3984 1313 3925 
L 1313 2163 
z
" transform="scale(0.015625)"/>
       <path id="TimesNewRomanPSMT-6f" d="M 1600 2947 
Q 2250 2947 2644 2453 
Q 2978 2031 2978 1484 
Q 2978 1100 2793 706 
Q 2609 313 2286 112 
Q 1963 -88 1566 -88 
Q 919 -88 538 428 
Q 216 863 216 1403 
Q 216 1797 411 2186 
Q 606 2575 925 2761 
Q 1244 2947 1600 2947 
z
M 1503 2744 
Q 1338 2744 1170 2645 
Q 1003 2547 900 2300 
Q 797 2053 797 1666 
Q 797 1041 1045 587 
Q 1294 134 1700 134 
Q 2003 134 2200 384 
Q 2397 634 2397 1244 
Q 2397 2006 2069 2444 
Q 1847 2744 1503 2744 
z
" transform="scale(0.015625)"/>
       <path id="TimesNewRomanPSMT-77" d="M 41 2863 
L 1241 2863 
L 1241 2747 
Q 1075 2734 1023 2687 
Q 972 2641 972 2553 
Q 972 2456 1025 2319 
L 1638 672 
L 2253 2013 
L 2091 2434 
Q 2016 2622 1894 2694 
Q 1825 2738 1638 2747 
L 1638 2863 
L 3000 2863 
L 3000 2747 
Q 2775 2738 2681 2666 
Q 2619 2616 2619 2506 
Q 2619 2444 2644 2378 
L 3294 734 
L 3897 2319 
Q 3959 2488 3959 2588 
Q 3959 2647 3898 2694 
Q 3838 2741 3659 2747 
L 3659 2863 
L 4563 2863 
L 4563 2747 
Q 4291 2706 4163 2378 
L 3206 -88 
L 3078 -88 
L 2363 1741 
L 1528 -88 
L 1413 -88 
L 494 2319 
Q 403 2547 315 2626 
Q 228 2706 41 2747 
L 41 2863 
z
" transform="scale(0.015625)"/>
       <path id="TimesNewRomanPSMT-72" d="M 1038 2947 
L 1038 2303 
Q 1397 2947 1775 2947 
Q 1947 2947 2059 2842 
Q 2172 2738 2172 2600 
Q 2172 2478 2090 2393 
Q 2009 2309 1897 2309 
Q 1788 2309 1652 2417 
Q 1516 2525 1450 2525 
Q 1394 2525 1328 2463 
Q 1188 2334 1038 2041 
L 1038 669 
Q 1038 431 1097 309 
Q 1138 225 1241 169 
Q 1344 113 1538 113 
L 1538 0 
L 72 0 
L 72 113 
Q 291 113 397 181 
Q 475 231 506 341 
Q 522 394 522 644 
L 522 1753 
Q 522 2253 501 2348 
Q 481 2444 426 2487 
Q 372 2531 291 2531 
Q 194 2531 72 2484 
L 41 2597 
L 906 2947 
L 1038 2947 
z
" transform="scale(0.015625)"/>
       <path id="TimesNewRomanPSMT-5b" d="M 1900 -1269 
L 525 -1269 
L 525 4334 
L 1900 4334 
L 1900 4088 
L 994 4088 
L 994 -1025 
L 1900 -1025 
L 1900 -1269 
z
" transform="scale(0.015625)"/>
       <path id="TimesNewRomanPSMT-6b" d="M 1047 4444 
L 1047 1597 
L 1775 2259 
Q 2006 2472 2044 2528 
Q 2069 2566 2069 2603 
Q 2069 2666 2017 2711 
Q 1966 2756 1847 2763 
L 1847 2863 
L 3091 2863 
L 3091 2763 
Q 2834 2756 2664 2684 
Q 2494 2613 2291 2428 
L 1556 1750 
L 2291 822 
Q 2597 438 2703 334 
Q 2853 188 2966 144 
Q 3044 113 3238 113 
L 3238 0 
L 1847 0 
L 1847 113 
Q 1966 116 2008 148 
Q 2050 181 2050 241 
Q 2050 313 1925 472 
L 1047 1594 
L 1047 644 
Q 1047 366 1086 278 
Q 1125 191 1197 153 
Q 1269 116 1509 113 
L 1509 0 
L 53 0 
L 53 113 
Q 272 113 381 166 
Q 447 200 481 272 
Q 528 375 528 628 
L 528 3234 
Q 528 3731 506 3842 
Q 484 3953 434 3995 
Q 384 4038 303 4038 
Q 238 4038 106 3984 
L 53 4094 
L 903 4444 
L 1047 4444 
z
" transform="scale(0.015625)"/>
       <path id="TimesNewRomanPSMT-57" d="M 5991 4238 
L 5991 4122 
Q 5825 4122 5722 4062 
Q 5619 4003 5525 3841 
Q 5463 3731 5328 3319 
L 4147 -97 
L 4022 -97 
L 3056 2613 
L 2097 -97 
L 1984 -97 
L 725 3422 
Q 584 3816 547 3888 
Q 484 4006 376 4064 
Q 269 4122 84 4122 
L 84 4238 
L 1653 4238 
L 1653 4122 
L 1578 4122 
Q 1413 4122 1325 4047 
Q 1238 3972 1238 3866 
Q 1238 3756 1375 3363 
L 2209 984 
L 2913 3006 
L 2788 3363 
L 2688 3647 
Q 2622 3803 2541 3922 
Q 2500 3981 2441 4022 
Q 2363 4078 2284 4103 
Q 2225 4122 2097 4122 
L 2097 4238 
L 3747 4238 
L 3747 4122 
L 3634 4122 
Q 3459 4122 3378 4047 
Q 3297 3972 3297 3844 
Q 3297 3684 3438 3288 
L 4250 984 
L 5056 3319 
Q 5194 3706 5194 3856 
Q 5194 3928 5148 3990 
Q 5103 4053 5034 4078 
Q 4916 4122 4725 4122 
L 4725 4238 
L 5991 4238 
z
" transform="scale(0.015625)"/>
       <path id="TimesNewRomanPSMT-5d" d="M 234 4334 
L 1609 4334 
L 1609 -1272 
L 234 -1272 
L 234 -1025 
L 1141 -1025 
L 1141 4088 
L 234 4088 
L 234 4334 
z
" transform="scale(0.015625)"/>
      </defs>
      <use xlink:href="#TimesNewRomanPSMT-50"/>
      <use xlink:href="#TimesNewRomanPSMT-6f" x="55.615234"/>
      <use xlink:href="#TimesNewRomanPSMT-77" x="105.615234"/>
      <use xlink:href="#TimesNewRomanPSMT-65" x="177.832031"/>
      <use xlink:href="#TimesNewRomanPSMT-72" x="222.216797"/>
      <use xlink:href="#TimesNewRomanPSMT-20" x="255.517578"/>
      <use xlink:href="#TimesNewRomanPSMT-5b" x="280.517578"/>
      <use xlink:href="#TimesNewRomanPSMT-6b" x="313.818359"/>
      <use xlink:href="#TimesNewRomanPSMT-57" x="363.818359"/>
      <use xlink:href="#TimesNewRomanPSMT-5d" x="458.203125"/>
     </g>
    </g>
   </g>
   <g id="line2d_31">
    <path d="M 45.29 223.035464 
L 46.414194 215.946487 
L 47.538389 223.582715 
L 48.662583 223.347729 
L 49.786778 224.72146 
L 50.910972 222.142911 
L 52.035167 223.213353 
L 53.159361 220.790334 
L 55.40775 220.290704 
L 56.531944 217.158275 
L 57.656139 226.655642 
L 58.780333 217.24407 
L 59.904528 217.820712 
L 61.028722 225.00429 
L 62.152917 226.480503 
L 63.277111 219.6085 
L 64.401306 216.689564 
L 65.5255 218.737285 
L 66.649694 216.575454 
L 68.898083 224.338419 
L 70.022278 217.675441 
L 71.146472 223.81293 
L 72.270667 224.007344 
L 73.394861 225.093781 
L 74.519056 230.963561 
L 75.64325 226.061002 
L 76.767444 221.705311 
L 77.891639 222.524803 
L 79.015833 221.113827 
L 80.140028 229.550371 
L 81.264222 228.021912 
L 82.388417 221.640969 
L 83.512611 219.54723 
L 84.636806 225.227761 
L 85.761 223.562153 
L 86.885194 220.634983 
L 88.009389 228.663927 
L 89.133583 225.297747 
L 90.257778 217.681989 
L 91.381972 228.727647 
L 92.506167 221.817668 
L 93.630361 224.741772 
L 94.754556 219.807227 
L 95.87875 221.699246 
L 97.002944 229.529243 
L 98.127139 232.404912 
L 99.251333 225.704403 
L 100.375528 224.317473 
L 101.499722 221.813541 
L 102.623917 231.719907 
L 103.748111 219.734398 
L 104.872306 218.60957 
L 105.9965 228.038231 
L 107.120694 220.502686 
L 108.244889 219.561981 
L 109.369083 216.585833 
L 110.493278 219.57082 
L 111.617472 229.225218 
L 112.741667 224.275946 
L 113.865861 227.863558 
L 114.990056 221.356989 
L 116.11425 230.508631 
L 117.238444 233.612976 
L 118.362639 220.389098 
L 119.486833 217.784422 
L 120.611028 223.880182 
L 121.735222 215.168644 
L 122.859417 224.387732 
L 123.983611 221.048187 
L 125.107806 226.272492 
L 126.232 219.095432 
L 127.356194 220.63214 
L 128.480389 227.201672 
L 129.604583 222.355488 
L 130.728778 234.313045 
L 131.852972 226.943067 
L 132.977167 224.672676 
L 134.101361 214.88873 
L 135.225556 220.697005 
L 136.34975 222.408438 
L 137.473944 220.722234 
L 138.598139 225.122994 
L 139.722333 177.713918 
L 140.846528 159.021852 
L 141.970722 160.327958 
L 143.094917 182.234773 
L 144.219111 229.708485 
L 145.343306 124.920382 
L 146.4675 178.999568 
L 147.591694 191.144455 
L 148.715889 194.28607 
L 149.840083 188.600539 
L 150.964278 178.613181 
L 152.088472 204.871151 
L 153.212667 198.026689 
L 154.336861 209.956346 
L 155.461056 223.498815 
L 157.709444 211.35076 
L 158.833639 217.004878 
L 159.957833 201.715941 
L 161.082028 215.004708 
L 162.206222 221.95607 
L 163.330417 219.251142 
L 164.454611 226.90594 
L 165.578806 224.089039 
L 166.703 220.098026 
L 167.827194 226.482144 
L 168.951389 225.16365 
L 170.075583 223.469944 
L 171.199778 228.619414 
L 172.323972 219.147568 
L 173.448167 228.79004 
L 174.572361 221.689409 
L 175.696556 231.979081 
L 176.82075 229.884142 
L 177.944944 228.15337 
L 179.069139 221.40181 
L 180.193333 226.019282 
L 181.317528 224.153569 
L 182.441722 223.638441 
L 183.565917 227.75619 
L 184.690111 228.470623 
L 185.814306 225.476441 
L 186.9385 220.956447 
L 188.062694 233.119303 
L 189.186889 220.13811 
L 190.311083 222.722238 
L 191.435278 228.989296 
L 192.559472 221.574528 
L 193.683667 220.336491 
L 194.807861 222.97183 
L 195.932056 225.953818 
L 197.05625 229.791757 
L 199.304639 227.270308 
L 200.428833 228.371284 
L 201.553028 225.160254 
L 202.677222 216.733718 
L 203.801417 227.122131 
L 204.925611 224.657138 
L 206.049806 225.235724 
L 207.174 231.283332 
L 208.298194 222.024065 
L 209.422389 229.262084 
L 210.546583 226.59867 
L 211.670778 229.804088 
L 212.794972 222.968164 
L 213.919167 223.939546 
L 215.043361 230.101809 
L 216.167556 229.300061 
L 217.29175 227.684748 
L 218.415944 220.573921 
L 219.540139 228.098609 
L 220.664333 219.035767 
L 221.788528 218.822315 
L 222.912722 232.683227 
L 224.036917 222.029221 
L 225.161111 226.892749 
L 226.285306 221.832373 
L 227.4095 226.813802 
L 228.533694 222.857406 
L 229.657889 233.712071 
L 230.782083 228.834441 
L 231.906278 225.031097 
L 233.030472 229.103262 
L 234.154667 228.833631 
L 235.278861 229.065469 
L 236.403056 218.102506 
L 237.52725 227.22049 
L 238.651444 224.216587 
L 239.775639 226.800774 
L 240.899833 226.852083 
L 242.024028 223.450995 
L 243.148222 226.806711 
L 244.272417 215.961846 
L 245.396611 224.545569 
L 246.520806 225.806408 
L 247.645 218.652221 
L 248.769194 226.793335 
L 249.893389 231.045792 
L 251.017583 222.612154 
L 252.141778 218.311157 
L 253.265972 232.80362 
L 254.390167 221.470684 
L 255.514361 220.418906 
L 256.638556 227.262644 
L 257.76275 224.212255 
L 260.011139 235.040372 
L 261.135333 229.449577 
L 262.259528 224.744375 
L 263.383722 221.102536 
L 264.507917 225.680195 
L 265.632111 223.379971 
L 266.756306 226.59639 
L 267.8805 231.021079 
L 269.004694 228.434502 
L 270.128889 230.574382 
L 271.253083 233.805229 
L 272.377278 221.310523 
L 273.501472 226.724811 
L 274.625667 222.723619 
L 275.749861 228.46837 
L 276.874056 229.714016 
L 277.99825 223.993814 
L 279.122444 223.652978 
L 280.246639 231.453156 
L 281.370833 228.350198 
L 282.495028 222.759114 
L 283.619222 224.575071 
L 284.743417 217.367271 
L 285.867611 220.10514 
L 286.991806 225.800849 
L 288.116 224.238171 
L 289.240194 219.184742 
L 290.364389 218.623038 
L 291.488583 227.684323 
L 292.612778 221.558899 
L 293.736972 223.844151 
L 294.861167 223.143786 
L 295.985361 227.862287 
L 297.109556 225.082003 
L 298.23375 225.731677 
L 299.357944 224.115862 
L 300.482139 224.595254 
L 301.606333 225.361805 
L 302.730528 218.179092 
L 303.854722 232.830263 
L 304.978917 227.036281 
L 306.103111 222.790197 
L 307.227306 231.800069 
L 308.3515 222.234046 
L 309.475694 227.625497 
L 310.599889 230.289005 
L 311.724083 227.942427 
L 312.848278 233.966322 
L 313.972472 231.949396 
L 315.096667 231.493709 
L 316.220861 219.589863 
L 317.345056 223.870146 
L 318.46925 230.725916 
L 319.593444 228.594248 
L 320.717639 227.440509 
L 321.841833 222.26691 
L 322.966028 229.262843 
L 324.090222 222.487445 
L 325.214417 222.860551 
L 326.338611 229.275689 
L 327.462806 227.365625 
L 328.587 224.118798 
L 329.711194 226.761085 
L 330.835389 223.371784 
L 331.959583 228.076989 
L 333.083778 224.716527 
L 334.207972 225.741326 
L 335.332167 227.485032 
L 336.456361 211.620822 
L 337.580556 215.278629 
L 338.70475 218.499161 
L 339.828944 223.237632 
L 340.953139 132.769171 
L 342.077333 108.484909 
L 343.201528 44.063766 
L 344.325722 35.455301 
L 345.449917 44.789215 
L 346.574111 59.618194 
L 347.698306 61.541634 
L 348.8225 49.718139 
L 352.195083 164.368614 
L 353.319278 183.48725 
L 354.443472 183.739547 
L 355.567667 213.605175 
L 356.691861 217.784515 
L 357.816056 211.193882 
L 358.94025 214.942952 
L 360.064444 210.917917 
L 361.188639 213.677504 
L 362.312833 203.465987 
L 363.437028 203.686206 
L 364.561222 205.594887 
L 365.685417 200.491904 
L 366.809611 201.750349 
L 367.933806 196.493662 
L 369.058 192.638609 
L 370.182194 207.720896 
L 371.306389 202.261969 
L 372.430583 199.22831 
L 373.554778 200.631571 
L 374.678972 205.845792 
L 375.803167 200.457237 
L 376.927361 206.935566 
L 378.051556 197.781334 
L 379.17575 203.280139 
L 380.299944 200.761022 
L 381.424139 115.390756 
L 382.548333 131.695961 
L 383.672528 136.232725 
L 384.796722 143.552445 
L 385.920917 136.025354 
L 387.045111 132.570398 
L 388.169306 137.857421 
L 389.2935 147.849769 
L 390.417694 170.403269 
L 391.541889 206.954563 
L 392.666083 204.229795 
L 393.790278 200.294663 
L 394.914472 206.129489 
L 396.038667 215.117507 
L 397.162861 215.89656 
L 398.287056 211.811511 
L 399.41125 210.945653 
L 400.535444 216.325853 
L 401.659639 214.37826 
L 402.783833 216.656523 
L 403.908028 222.090107 
L 405.032222 220.777958 
L 406.156417 225.690316 
L 407.280611 218.527122 
L 408.404806 217.732425 
L 409.529 220.832101 
L 410.653194 124.223556 
L 411.777389 140.866367 
L 412.901583 150.291203 
L 414.025778 140.084173 
L 415.149972 147.595974 
L 416.274167 156.331818 
L 417.398361 136.555075 
L 418.522556 161.454939 
L 419.64675 197.044267 
L 420.770944 183.427193 
L 421.895139 211.360554 
L 423.019333 223.862593 
L 424.143528 226.368868 
L 425.267722 222.056295 
L 426.391917 227.284606 
L 427.516111 187.321735 
L 428.640306 185.731819 
L 429.7645 217.125126 
L 430.888694 223.621819 
L 432.012889 228.278329 
L 433.137083 224.30389 
L 434.261278 224.974489 
L 435.385472 225.298586 
L 436.509667 226.271558 
L 437.633861 227.757354 
L 438.758056 215.602538 
L 439.88225 229.779221 
L 441.006444 227.619251 
L 442.130639 223.025878 
L 443.254833 226.799435 
L 444.379028 217.388254 
L 445.503222 224.023689 
L 446.627417 226.594728 
L 447.751611 223.800897 
L 448.875806 217.548301 
L 448.875806 217.548301 
" clip-path="url(#p3f2caaf3c0)" style="fill: none; stroke-dasharray: 5.55,2.4; stroke-dashoffset: 0; stroke: #0000ff; stroke-width: 1.5"/>
   </g>
   <g id="line2d_32">
    <path d="M 45.29 222.697795 
L 47.538389 223.017929 
L 48.662583 223.88185 
L 49.786778 223.579258 
L 50.910972 222.759191 
L 53.159361 222.816201 
L 54.283556 221.364638 
L 55.40775 221.110287 
L 56.531944 221.570751 
L 57.656139 222.167163 
L 58.780333 222.206632 
L 59.904528 223.184574 
L 61.028722 223.846766 
L 62.152917 223.601185 
L 63.277111 223.123179 
L 64.401306 221.575136 
L 65.5255 221.667231 
L 66.649694 221.899656 
L 67.773889 222.662711 
L 68.898083 222.671483 
L 71.146472 223.88185 
L 75.64325 223.88185 
L 76.767444 223.456467 
L 77.891639 222.763577 
L 81.264222 222.838128 
L 82.388417 222.382047 
L 83.512611 222.539923 
L 84.636806 222.934605 
L 85.761 222.171549 
L 86.885194 221.974208 
L 89.133583 221.996135 
L 90.257778 221.654074 
L 91.381972 221.062047 
L 92.506167 222.601317 
L 95.87875 222.833742 
L 97.002944 223.522248 
L 98.127139 223.89062 
L 100.375528 223.88185 
L 101.499722 223.294208 
L 104.872306 222.211018 
L 105.9965 222.798659 
L 108.244889 222.829357 
L 109.369083 222.658327 
L 110.493278 223.403843 
L 111.617472 223.737132 
L 116.11425 223.728361 
L 117.238444 223.377529 
L 118.362639 222.794275 
L 119.486833 221.820718 
L 120.611028 220.456864 
L 121.735222 220.123575 
L 122.859417 220.193741 
L 123.983611 221.55321 
L 125.107806 222.57939 
L 126.232 223.846766 
L 129.604583 223.89062 
L 131.852972 222.767962 
L 132.977167 222.614473 
L 136.34975 222.689025 
L 137.473944 223.574872 
L 138.598139 223.737132 
L 139.722333 186.987608 
L 140.846528 159.223737 
L 141.970722 158.425605 
L 143.094917 180.620031 
L 144.219111 222.05753 
L 145.343306 127.600722 
L 146.4675 174.844474 
L 147.591694 194.666417 
L 148.715889 198.271203 
L 149.840083 187.6191 
L 150.964278 188.675982 
L 152.088472 197.122232 
L 153.212667 199.126351 
L 154.336861 210.335397 
L 155.461056 215.768889 
L 156.58525 216.001314 
L 157.709444 215.505765 
L 158.833639 212.08955 
L 159.957833 212.142175 
L 161.082028 213.760382 
L 162.206222 216.211812 
L 163.330417 217.654603 
L 164.454611 221.316399 
L 165.578806 224.215138 
L 166.703 225.412347 
L 167.827194 225.543911 
L 168.951389 225.219391 
L 170.075583 225.618462 
L 171.199778 225.618462 
L 172.323972 224.022182 
L 173.448167 225.38165 
L 174.572361 223.588028 
L 175.696556 225.574607 
L 179.069139 225.618462 
L 331.959583 225.574607 
L 335.332167 224.715073 
L 336.456361 223.965172 
L 337.580556 221.360253 
L 339.828944 220.009554 
L 340.953139 130.10479 
L 342.077333 97.056535 
L 343.201528 45.747531 
L 344.325722 34.963855 
L 345.449917 47.400816 
L 346.574111 55.259425 
L 347.698306 56.32069 
L 348.8225 48.869916 
L 349.946694 84.606425 
L 351.070889 128.833024 
L 352.195083 168.376038 
L 353.319278 179.78681 
L 354.443472 186.658705 
L 355.567667 209.177654 
L 356.691861 217.658989 
L 357.816056 212.396528 
L 358.94025 216.273207 
L 360.064444 208.26988 
L 361.188639 214.650615 
L 362.312833 204.116919 
L 363.437028 201.512001 
L 364.561222 202.200507 
L 366.809611 202.380309 
L 367.933806 202.134727 
L 369.058 203.731006 
L 370.182194 203.871339 
L 371.306389 202.187352 
L 372.430583 198.5124 
L 373.554778 203.410873 
L 374.678972 203.717851 
L 375.803167 201.332201 
L 376.927361 205.866691 
L 378.051556 203.191603 
L 379.17575 200.038512 
L 380.299944 203.660841 
L 381.424139 117.816934 
L 382.548333 131.065197 
L 383.672528 132.468502 
L 384.796722 144.107327 
L 385.920917 133.279804 
L 387.045111 132.665853 
L 388.169306 146.234224 
L 389.2935 146.870107 
L 390.417694 169.66534 
L 391.541889 196.490736 
L 392.666083 206.638517 
L 393.790278 206.726224 
L 394.914472 208.848751 
L 396.038667 214.593605 
L 397.162861 210.835331 
L 398.287056 214.326096 
L 399.41125 214.260316 
L 400.535444 211.484367 
L 401.659639 210.594134 
L 402.783833 215.698721 
L 403.908028 219.220185 
L 405.032222 219.693807 
L 406.156417 220.671749 
L 407.280611 220.724372 
L 408.404806 220.29022 
L 409.529 219.452611 
L 410.653194 122.794355 
L 411.777389 143.817883 
L 412.901583 148.738292 
L 414.025778 140.32711 
L 415.149972 149.453101 
L 416.274167 155.035699 
L 417.398361 138.555418 
L 418.522556 157.263468 
L 419.64675 188.991724 
L 420.770944 181.440091 
L 421.895139 218.01859 
L 423.019333 220.334072 
L 424.143528 223.285437 
L 425.267722 223.333678 
L 426.391917 223.802912 
L 427.516111 196.008343 
L 428.640306 192.140436 
L 429.7645 218.435201 
L 430.888694 221.956666 
L 432.012889 222.789889 
L 435.385472 222.75042 
L 436.509667 221.026964 
L 438.758056 221.193608 
L 439.88225 221.763708 
L 442.130639 223.684508 
L 443.254833 222.881982 
L 444.379028 222.583775 
L 448.875806 222.79866 
L 448.875806 222.79866 
" clip-path="url(#p3f2caaf3c0)" style="fill: none; stroke: #000000; stroke-width: 1.5; stroke-linecap: square"/>
   </g>
   <g id="patch_3">
    <path d="M 45.29 243.16 
L 45.29 15.12 
" style="fill: none; stroke: #000000; stroke-width: 0.8; stroke-linejoin: miter; stroke-linecap: square"/>
   </g>
   <g id="patch_4">
    <path d="M 450 243.16 
L 450 15.12 
" style="fill: none; stroke: #000000; stroke-width: 0.8; stroke-linejoin: miter; stroke-linecap: square"/>
   </g>
   <g id="patch_5">
    <path d="M 45.29 243.16 
L 450 243.16 
" style="fill: none; stroke: #000000; stroke-width: 0.8; stroke-linejoin: miter; stroke-linecap: square"/>
   </g>
   <g id="patch_6">
    <path d="M 45.29 15.12 
L 450 15.12 
" style="fill: none; stroke: #000000; stroke-width: 0.8; stroke-linejoin: miter; stroke-linecap: square"/>
   </g>
   <g id="legend_1">
    <g id="patch_7">
     <path d="M 53.69 59.926875 
L 293.93 59.926875 
Q 296.33 59.926875 296.33 57.526875 
L 296.33 23.52 
Q 296.33 21.12 293.93 21.12 
L 53.69 21.12 
Q 51.29 21.12 51.29 23.52 
L 51.29 57.526875 
Q 51.29 59.926875 53.69 59.926875 
z
" style="fill: #ffffff; opacity: 0.8; stroke: #cccccc; stroke-linejoin: miter"/>
    </g>
    <g id="line2d_33">
     <path d="M 56.09 31.32 
L 68.09 31.32 
L 80.09 31.32 
" style="fill: none; stroke-dasharray: 5.55,2.4; stroke-dashoffset: 0; stroke: #0000ff; stroke-width: 1.5"/>
    </g>
    <g id="text_18">
     <!-- Load profile with a noise model $\mathcal{N}(0, 0.2)$ -->
     <g transform="translate(89.69 35.52)scale(0.12 -0.12)">
      <defs>
       <path id="TimesNewRomanPSMT-4c" d="M 3669 1172 
L 3772 1150 
L 3409 0 
L 128 0 
L 128 116 
L 288 116 
Q 556 116 672 291 
Q 738 391 738 753 
L 738 3488 
Q 738 3884 650 3984 
Q 528 4122 288 4122 
L 128 4122 
L 128 4238 
L 2047 4238 
L 2047 4122 
Q 1709 4125 1573 4059 
Q 1438 3994 1388 3894 
Q 1338 3794 1338 3416 
L 1338 753 
Q 1338 494 1388 397 
Q 1425 331 1503 300 
Q 1581 269 1991 269 
L 2300 269 
Q 2788 269 2984 341 
Q 3181 413 3343 595 
Q 3506 778 3669 1172 
z
" transform="scale(0.015625)"/>
       <path id="TimesNewRomanPSMT-61" d="M 1822 413 
Q 1381 72 1269 19 
Q 1100 -59 909 -59 
Q 613 -59 420 144 
Q 228 347 228 678 
Q 228 888 322 1041 
Q 450 1253 767 1440 
Q 1084 1628 1822 1897 
L 1822 2009 
Q 1822 2438 1686 2597 
Q 1550 2756 1291 2756 
Q 1094 2756 978 2650 
Q 859 2544 859 2406 
L 866 2225 
Q 866 2081 792 2003 
Q 719 1925 600 1925 
Q 484 1925 411 2006 
Q 338 2088 338 2228 
Q 338 2497 613 2722 
Q 888 2947 1384 2947 
Q 1766 2947 2009 2819 
Q 2194 2722 2281 2516 
Q 2338 2381 2338 1966 
L 2338 994 
Q 2338 584 2353 492 
Q 2369 400 2405 369 
Q 2441 338 2488 338 
Q 2538 338 2575 359 
Q 2641 400 2828 588 
L 2828 413 
Q 2478 -56 2159 -56 
Q 2006 -56 1915 50 
Q 1825 156 1822 413 
z
M 1822 616 
L 1822 1706 
Q 1350 1519 1213 1441 
Q 966 1303 859 1153 
Q 753 1003 753 825 
Q 753 600 887 451 
Q 1022 303 1197 303 
Q 1434 303 1822 616 
z
" transform="scale(0.015625)"/>
       <path id="TimesNewRomanPSMT-70" d="M -6 2578 
L 875 2934 
L 994 2934 
L 994 2266 
Q 1216 2644 1439 2795 
Q 1663 2947 1909 2947 
Q 2341 2947 2628 2609 
Q 2981 2197 2981 1534 
Q 2981 794 2556 309 
Q 2206 -88 1675 -88 
Q 1444 -88 1275 -22 
Q 1150 25 994 166 
L 994 -706 
Q 994 -1000 1030 -1079 
Q 1066 -1159 1155 -1206 
Q 1244 -1253 1478 -1253 
L 1478 -1369 
L -22 -1369 
L -22 -1253 
L 56 -1253 
Q 228 -1256 350 -1188 
Q 409 -1153 442 -1076 
Q 475 -1000 475 -688 
L 475 2019 
Q 475 2297 450 2372 
Q 425 2447 370 2484 
Q 316 2522 222 2522 
Q 147 2522 31 2478 
L -6 2578 
z
M 994 2081 
L 994 1013 
Q 994 666 1022 556 
Q 1066 375 1236 237 
Q 1406 100 1666 100 
Q 1978 100 2172 344 
Q 2425 663 2425 1241 
Q 2425 1897 2138 2250 
Q 1938 2494 1663 2494 
Q 1513 2494 1366 2419 
Q 1253 2363 994 2081 
z
" transform="scale(0.015625)"/>
       <path id="TimesNewRomanPSMT-66" d="M 1319 2638 
L 1319 756 
Q 1319 356 1406 250 
Q 1522 113 1716 113 
L 1975 113 
L 1975 0 
L 266 0 
L 266 113 
L 394 113 
Q 519 113 622 175 
Q 725 238 764 344 
Q 803 450 803 756 
L 803 2638 
L 247 2638 
L 247 2863 
L 803 2863 
L 803 3050 
Q 803 3478 940 3775 
Q 1078 4072 1361 4255 
Q 1644 4438 1997 4438 
Q 2325 4438 2600 4225 
Q 2781 4084 2781 3909 
Q 2781 3816 2700 3733 
Q 2619 3650 2525 3650 
Q 2453 3650 2373 3701 
Q 2294 3753 2178 3923 
Q 2063 4094 1966 4153 
Q 1869 4213 1750 4213 
Q 1606 4213 1506 4136 
Q 1406 4059 1362 3898 
Q 1319 3738 1319 3069 
L 1319 2863 
L 2056 2863 
L 2056 2638 
L 1319 2638 
z
" transform="scale(0.015625)"/>
       <path id="TimesNewRomanPSMT-6c" d="M 1184 4444 
L 1184 647 
Q 1184 378 1223 290 
Q 1263 203 1344 158 
Q 1425 113 1647 113 
L 1647 0 
L 244 0 
L 244 113 
Q 441 113 512 153 
Q 584 194 625 287 
Q 666 381 666 647 
L 666 3247 
Q 666 3731 644 3842 
Q 622 3953 573 3993 
Q 525 4034 450 4034 
Q 369 4034 244 3984 
L 191 4094 
L 1044 4444 
L 1184 4444 
z
" transform="scale(0.015625)"/>
       <path id="TimesNewRomanPSMT-74" d="M 1031 3803 
L 1031 2863 
L 1700 2863 
L 1700 2644 
L 1031 2644 
L 1031 788 
Q 1031 509 1111 412 
Q 1191 316 1316 316 
Q 1419 316 1516 380 
Q 1613 444 1666 569 
L 1788 569 
Q 1678 263 1478 108 
Q 1278 -47 1066 -47 
Q 922 -47 784 33 
Q 647 113 581 261 
Q 516 409 516 719 
L 516 2644 
L 63 2644 
L 63 2747 
Q 234 2816 414 2980 
Q 594 3144 734 3369 
Q 806 3488 934 3803 
L 1031 3803 
z
" transform="scale(0.015625)"/>
       <path id="TimesNewRomanPSMT-68" d="M 1041 4444 
L 1041 2350 
Q 1388 2731 1591 2839 
Q 1794 2947 1997 2947 
Q 2241 2947 2416 2812 
Q 2591 2678 2675 2391 
Q 2734 2191 2734 1659 
L 2734 647 
Q 2734 375 2778 275 
Q 2809 200 2884 156 
Q 2959 113 3159 113 
L 3159 0 
L 1753 0 
L 1753 113 
L 1819 113 
Q 2019 113 2097 173 
Q 2175 234 2206 353 
Q 2216 403 2216 647 
L 2216 1659 
Q 2216 2128 2167 2275 
Q 2119 2422 2012 2495 
Q 1906 2569 1756 2569 
Q 1603 2569 1437 2487 
Q 1272 2406 1041 2159 
L 1041 647 
Q 1041 353 1073 281 
Q 1106 209 1195 161 
Q 1284 113 1503 113 
L 1503 0 
L 84 0 
L 84 113 
Q 275 113 384 172 
Q 447 203 484 290 
Q 522 378 522 647 
L 522 3238 
Q 522 3728 498 3840 
Q 475 3953 426 3993 
Q 378 4034 297 4034 
Q 231 4034 84 3984 
L 41 4094 
L 897 4444 
L 1041 4444 
z
" transform="scale(0.015625)"/>
       <path id="TimesNewRomanPSMT-73" d="M 2050 2947 
L 2050 1972 
L 1947 1972 
Q 1828 2431 1642 2597 
Q 1456 2763 1169 2763 
Q 950 2763 815 2647 
Q 681 2531 681 2391 
Q 681 2216 781 2091 
Q 878 1963 1175 1819 
L 1631 1597 
Q 2266 1288 2266 781 
Q 2266 391 1970 151 
Q 1675 -88 1309 -88 
Q 1047 -88 709 6 
Q 606 38 541 38 
Q 469 38 428 -44 
L 325 -44 
L 325 978 
L 428 978 
Q 516 541 762 319 
Q 1009 97 1316 97 
Q 1531 97 1667 223 
Q 1803 350 1803 528 
Q 1803 744 1651 891 
Q 1500 1038 1047 1263 
Q 594 1488 453 1669 
Q 313 1847 313 2119 
Q 313 2472 555 2709 
Q 797 2947 1181 2947 
Q 1350 2947 1591 2875 
Q 1750 2828 1803 2828 
Q 1853 2828 1881 2850 
Q 1909 2872 1947 2947 
L 2050 2947 
z
" transform="scale(0.015625)"/>
       <path id="STIXNonUnicode-Italic-e23a" d="M 4294 800 
L 4301 800 
Q 5293 4070 5408 4378 
Q 5472 4538 5523 4614 
Q 5830 5088 6253 5088 
Q 6490 5088 6650 4931 
Q 6810 4774 6810 4550 
Q 6810 4378 6720 4272 
Q 6630 4166 6470 4166 
Q 6368 4166 6297 4224 
Q 6227 4282 6198 4349 
Q 6170 4416 6118 4473 
Q 6067 4531 6003 4531 
Q 5939 4531 5881 4508 
Q 5824 4486 5785 4457 
Q 5747 4429 5705 4371 
Q 5664 4314 5638 4275 
Q 5613 4237 5584 4163 
Q 5555 4090 5545 4058 
Q 5536 4026 5510 3952 
Q 5485 3878 5485 3866 
L 4262 -154 
L 4134 -154 
Q 3078 1280 2483 2893 
L 2470 2893 
Q 2406 2579 2358 2361 
Q 2310 2144 2214 1792 
Q 2118 1440 2028 1190 
Q 1939 941 1804 653 
Q 1670 365 1529 185 
Q 1389 6 1203 -115 
Q 1018 -237 813 -237 
Q 576 -237 416 -80 
Q 256 77 256 301 
Q 256 474 345 579 
Q 435 685 595 685 
Q 698 685 768 627 
Q 838 570 867 502 
Q 896 435 947 377 
Q 998 320 1062 320 
Q 1222 320 1369 480 
Q 1517 640 1638 928 
Q 1760 1216 1862 1542 
Q 1965 1869 2057 2288 
Q 2150 2707 2214 3033 
Q 2278 3360 2348 3741 
Q 2419 4122 2458 4294 
L 2630 4294 
Q 2682 4166 2874 3680 
Q 3066 3194 3142 3008 
Q 3219 2822 3392 2422 
Q 3565 2022 3683 1798 
Q 3802 1574 3968 1292 
Q 4134 1011 4294 800 
z
" transform="scale(0.015625)"/>
       <path id="STIXGeneral-Regular-28" d="M 1946 -1030 
L 1869 -1133 
Q 1126 -710 716 32 
Q 307 774 307 1613 
Q 307 3386 1888 4326 
L 1946 4224 
Q 1293 3667 1075 3126 
Q 858 2586 858 1632 
Q 858 685 1082 96 
Q 1306 -493 1946 -1030 
z
" transform="scale(0.015625)"/>
       <path id="STIXGeneral-Regular-30" d="M 3046 2112 
Q 3046 1683 2963 1302 
Q 2880 922 2717 602 
Q 2554 282 2266 96 
Q 1978 -90 1600 -90 
Q 1210 -90 915 108 
Q 621 307 461 640 
Q 301 973 227 1350 
Q 154 1728 154 2150 
Q 154 2746 301 3222 
Q 448 3699 790 4012 
Q 1133 4326 1626 4326 
Q 2253 4326 2649 3712 
Q 3046 3098 3046 2112 
z
M 2432 2080 
Q 2432 3091 2217 3625 
Q 2003 4160 1587 4160 
Q 1190 4160 979 3622 
Q 768 3085 768 2106 
Q 768 1120 979 598 
Q 1190 77 1600 77 
Q 2003 77 2217 598 
Q 2432 1120 2432 2080 
z
" transform="scale(0.015625)"/>
       <path id="STIXGeneral-Regular-2c" d="M 531 -902 
L 467 -781 
Q 998 -422 998 -96 
Q 998 -13 909 -13 
Q 883 -13 822 -25 
Q 762 -38 723 -38 
Q 352 -38 352 288 
Q 352 454 457 553 
Q 563 653 736 653 
Q 954 653 1101 496 
Q 1248 339 1248 96 
Q 1248 -198 1053 -473 
Q 858 -749 531 -902 
z
" transform="scale(0.015625)"/>
       <path id="STIXGeneral-Regular-2e" d="M 1158 275 
Q 1158 134 1052 32 
Q 947 -70 800 -70 
Q 653 -70 550 32 
Q 448 134 448 281 
Q 448 429 553 534 
Q 659 640 806 640 
Q 947 640 1052 531 
Q 1158 422 1158 275 
z
" transform="scale(0.015625)"/>
       <path id="STIXGeneral-Regular-32" d="M 3034 877 
L 2688 0 
L 186 0 
L 186 77 
L 1325 1286 
Q 1773 1754 1965 2144 
Q 2157 2534 2157 2950 
Q 2157 3379 1920 3616 
Q 1683 3853 1267 3853 
Q 922 3853 720 3673 
Q 518 3494 326 3021 
L 192 3053 
Q 301 3648 630 3987 
Q 960 4326 1523 4326 
Q 2054 4326 2380 4006 
Q 2707 3686 2707 3200 
Q 2707 2477 1888 1613 
L 832 486 
L 2330 486 
Q 2541 486 2665 569 
Q 2790 653 2944 915 
L 3034 877 
z
" transform="scale(0.015625)"/>
       <path id="STIXGeneral-Regular-29" d="M 186 4224 
L 262 4326 
Q 992 3891 1408 3148 
Q 1824 2406 1824 1581 
Q 1824 -166 243 -1133 
L 186 -1030 
Q 845 -486 1059 54 
Q 1274 595 1274 1562 
Q 1274 2534 1059 3120 
Q 845 3706 186 4224 
z
" transform="scale(0.015625)"/>
      </defs>
      <use xlink:href="#TimesNewRomanPSMT-4c" transform="translate(0 0.5)"/>
      <use xlink:href="#TimesNewRomanPSMT-6f" transform="translate(61.083984 0.5)"/>
      <use xlink:href="#TimesNewRomanPSMT-61" transform="translate(111.083984 0.5)"/>
      <use xlink:href="#TimesNewRomanPSMT-64" transform="translate(155.46875 0.5)"/>
      <use xlink:href="#TimesNewRomanPSMT-20" transform="translate(205.46875 0.5)"/>
      <use xlink:href="#TimesNewRomanPSMT-70" transform="translate(230.46875 0.5)"/>
      <use xlink:href="#TimesNewRomanPSMT-72" transform="translate(280.46875 0.5)"/>
      <use xlink:href="#TimesNewRomanPSMT-6f" transform="translate(313.769531 0.5)"/>
      <use xlink:href="#TimesNewRomanPSMT-66" transform="translate(363.769531 0.5)"/>
      <use xlink:href="#TimesNewRomanPSMT-69" transform="translate(397.070312 0.5)"/>
      <use xlink:href="#TimesNewRomanPSMT-6c" transform="translate(424.853516 0.5)"/>
      <use xlink:href="#TimesNewRomanPSMT-65" transform="translate(452.636719 0.5)"/>
      <use xlink:href="#TimesNewRomanPSMT-20" transform="translate(497.021484 0.5)"/>
      <use xlink:href="#TimesNewRomanPSMT-77" transform="translate(522.021484 0.5)"/>
      <use xlink:href="#TimesNewRomanPSMT-69" transform="translate(594.238281 0.5)"/>
      <use xlink:href="#TimesNewRomanPSMT-74" transform="translate(622.021484 0.5)"/>
      <use xlink:href="#TimesNewRomanPSMT-68" transform="translate(649.804688 0.5)"/>
      <use xlink:href="#TimesNewRomanPSMT-20" transform="translate(699.804688 0.5)"/>
      <use xlink:href="#TimesNewRomanPSMT-61" transform="translate(724.804688 0.5)"/>
      <use xlink:href="#TimesNewRomanPSMT-20" transform="translate(769.189453 0.5)"/>
      <use xlink:href="#TimesNewRomanPSMT-6e" transform="translate(794.189453 0.5)"/>
      <use xlink:href="#TimesNewRomanPSMT-6f" transform="translate(844.189453 0.5)"/>
      <use xlink:href="#TimesNewRomanPSMT-69" transform="translate(894.189453 0.5)"/>
      <use xlink:href="#TimesNewRomanPSMT-73" transform="translate(921.972656 0.5)"/>
      <use xlink:href="#TimesNewRomanPSMT-65" transform="translate(960.888672 0.5)"/>
      <use xlink:href="#TimesNewRomanPSMT-20" transform="translate(1005.273438 0.5)"/>
      <use xlink:href="#TimesNewRomanPSMT-6d" transform="translate(1030.273438 0.5)"/>
      <use xlink:href="#TimesNewRomanPSMT-6f" transform="translate(1108.056641 0.5)"/>
      <use xlink:href="#TimesNewRomanPSMT-64" transform="translate(1158.056641 0.5)"/>
      <use xlink:href="#TimesNewRomanPSMT-65" transform="translate(1208.056641 0.5)"/>
      <use xlink:href="#TimesNewRomanPSMT-6c" transform="translate(1252.441406 0.5)"/>
      <use xlink:href="#TimesNewRomanPSMT-20" transform="translate(1280.224609 0.5)"/>
      <use xlink:href="#STIXNonUnicode-Italic-e23a" transform="translate(1305.224609 0.5)"/>
      <use xlink:href="#STIXGeneral-Regular-28" transform="translate(1400.924591 0.5)"/>
      <use xlink:href="#STIXGeneral-Regular-30" transform="translate(1434.224579 0.5)"/>
      <use xlink:href="#STIXGeneral-Regular-2c" transform="translate(1484.224564 0.5)"/>
      <use xlink:href="#STIXGeneral-Regular-30" transform="translate(1523.664545 0.5)"/>
      <use xlink:href="#STIXGeneral-Regular-2e" transform="translate(1573.664529 0.5)"/>
      <use xlink:href="#STIXGeneral-Regular-32" transform="translate(1598.664514 0.5)"/>
      <use xlink:href="#STIXGeneral-Regular-29" transform="translate(1648.664499 0.5)"/>
     </g>
    </g>
    <g id="line2d_34">
     <path d="M 56.09 48.36 
L 68.09 48.36 
L 80.09 48.36 
" style="fill: none; stroke: #000000; stroke-width: 1.5; stroke-linecap: square"/>
    </g>
    <g id="text_19">
     <!-- Load profile without a noise model -->
     <g transform="translate(89.69 52.56)scale(0.12 -0.12)">
      <defs>
       <path id="TimesNewRomanPSMT-75" d="M 2709 2863 
L 2709 1128 
Q 2709 631 2732 520 
Q 2756 409 2807 365 
Q 2859 322 2928 322 
Q 3025 322 3147 375 
L 3191 266 
L 2334 -88 
L 2194 -88 
L 2194 519 
Q 1825 119 1631 15 
Q 1438 -88 1222 -88 
Q 981 -88 804 51 
Q 628 191 559 409 
Q 491 628 491 1028 
L 491 2306 
Q 491 2509 447 2587 
Q 403 2666 317 2708 
Q 231 2750 6 2747 
L 6 2863 
L 1009 2863 
L 1009 947 
Q 1009 547 1148 422 
Q 1288 297 1484 297 
Q 1619 297 1789 381 
Q 1959 466 2194 703 
L 2194 2325 
Q 2194 2569 2105 2655 
Q 2016 2741 1734 2747 
L 1734 2863 
L 2709 2863 
z
" transform="scale(0.015625)"/>
      </defs>
      <use xlink:href="#TimesNewRomanPSMT-4c"/>
      <use xlink:href="#TimesNewRomanPSMT-6f" x="61.083984"/>
      <use xlink:href="#TimesNewRomanPSMT-61" x="111.083984"/>
      <use xlink:href="#TimesNewRomanPSMT-64" x="155.46875"/>
      <use xlink:href="#TimesNewRomanPSMT-20" x="205.46875"/>
      <use xlink:href="#TimesNewRomanPSMT-70" x="230.46875"/>
      <use xlink:href="#TimesNewRomanPSMT-72" x="280.46875"/>
      <use xlink:href="#TimesNewRomanPSMT-6f" x="313.769531"/>
      <use xlink:href="#TimesNewRomanPSMT-66" x="363.769531"/>
      <use xlink:href="#TimesNewRomanPSMT-69" x="397.070312"/>
      <use xlink:href="#TimesNewRomanPSMT-6c" x="424.853516"/>
      <use xlink:href="#TimesNewRomanPSMT-65" x="452.636719"/>
      <use xlink:href="#TimesNewRomanPSMT-20" x="497.021484"/>
      <use xlink:href="#TimesNewRomanPSMT-77" x="522.021484"/>
      <use xlink:href="#TimesNewRomanPSMT-69" x="594.238281"/>
      <use xlink:href="#TimesNewRomanPSMT-74" x="622.021484"/>
      <use xlink:href="#TimesNewRomanPSMT-68" x="649.804688"/>
      <use xlink:href="#TimesNewRomanPSMT-6f" x="699.804688"/>
      <use xlink:href="#TimesNewRomanPSMT-75" x="749.804688"/>
      <use xlink:href="#TimesNewRomanPSMT-74" x="799.804688"/>
      <use xlink:href="#TimesNewRomanPSMT-20" x="827.587891"/>
      <use xlink:href="#TimesNewRomanPSMT-61" x="852.587891"/>
      <use xlink:href="#TimesNewRomanPSMT-20" x="896.972656"/>
      <use xlink:href="#TimesNewRomanPSMT-6e" x="921.972656"/>
      <use xlink:href="#TimesNewRomanPSMT-6f" x="971.972656"/>
      <use xlink:href="#TimesNewRomanPSMT-69" x="1021.972656"/>
      <use xlink:href="#TimesNewRomanPSMT-73" x="1049.755859"/>
      <use xlink:href="#TimesNewRomanPSMT-65" x="1088.671875"/>
      <use xlink:href="#TimesNewRomanPSMT-20" x="1133.056641"/>
      <use xlink:href="#TimesNewRomanPSMT-6d" x="1158.056641"/>
      <use xlink:href="#TimesNewRomanPSMT-6f" x="1235.839844"/>
      <use xlink:href="#TimesNewRomanPSMT-64" x="1285.839844"/>
      <use xlink:href="#TimesNewRomanPSMT-65" x="1335.839844"/>
      <use xlink:href="#TimesNewRomanPSMT-6c" x="1380.224609"/>
     </g>
    </g>
   </g>
  </g>
 </g>
 <defs>
  <clipPath id="p3f2caaf3c0">
   <rect x="45.29" y="15.12" width="404.71" height="228.04"/>
  </clipPath>
 </defs>
</svg>
