<?xml version="1.0" encoding="utf-8" standalone="no"?>
<!DOCTYPE svg PUBLIC "-//W3C//DTD SVG 1.1//EN"
  "http://www.w3.org/Graphics/SVG/1.1/DTD/svg11.dtd">
<svg xmlns:xlink="http://www.w3.org/1999/xlink" width="288pt" height="216pt" viewBox="0 0 288 216" xmlns="http://www.w3.org/2000/svg" version="1.1">
 <metadata>
  <rdf:RDF xmlns:dc="http://purl.org/dc/elements/1.1/" xmlns:cc="http://creativecommons.org/ns#" xmlns:rdf="http://www.w3.org/1999/02/22-rdf-syntax-ns#">
   <cc:Work>
    <dc:type rdf:resource="http://purl.org/dc/dcmitype/StillImage"/>
    <dc:date>2025-03-02T03:02:50.362268</dc:date>
    <dc:format>image/svg+xml</dc:format>
    <dc:creator>
     <cc:Agent>
      <dc:title>Matplotlib v3.5.3, https://matplotlib.org/</dc:title>
     </cc:Agent>
    </dc:creator>
   </cc:Work>
  </rdf:RDF>
 </metadata>
 <defs>
  <style type="text/css">*{stroke-linejoin: round; stroke-linecap: butt}</style>
 </defs>
 <g id="figure_1">
  <g id="patch_1">
   <path d="M 0 216 
L 288 216 
L 288 0 
L 0 0 
z
" style="fill: #ffffff"/>
  </g>
  <g id="axes_1">
   <g id="patch_2">
    <path d="M 44.79 178.5 
L 278.28 178.5 
L 278.28 12.96 
L 44.79 12.96 
z
" style="fill: #ffffff"/>
   </g>
   <g id="matplotlib.axis_1">
    <g id="xtick_1">
     <g id="line2d_1">
      <path d="M 52.7163 178.5 
L 52.7163 12.96 
" clip-path="url(#p907b00decd)" style="fill: none; stroke-dasharray: 1.85,0.8; stroke-dashoffset: 0; stroke: #b0b0b0; stroke-opacity: 0.7; stroke-width: 0.5"/>
     </g>
     <g id="line2d_2">
      <defs>
       <path id="mb083dd4673" d="M 0 0 
L 0 3 
" style="stroke: #000000"/>
      </defs>
      <g>
       <use xlink:href="#mb083dd4673" x="52.7163" y="178.5" style="stroke: #000000"/>
      </g>
     </g>
     <g id="text_1">
      <!-- 0 -->
      <g transform="translate(50.4663 191.249375)scale(0.09 -0.09)">
       <defs>
        <path id="TimesNewRomanPSMT-30" d="M 231 2094 
Q 231 2819 450 3342 
Q 669 3866 1031 4122 
Q 1313 4325 1613 4325 
Q 2100 4325 2488 3828 
Q 2972 3213 2972 2159 
Q 2972 1422 2759 906 
Q 2547 391 2217 158 
Q 1888 -75 1581 -75 
Q 975 -75 572 641 
Q 231 1244 231 2094 
z
M 844 2016 
Q 844 1141 1059 588 
Q 1238 122 1591 122 
Q 1759 122 1940 273 
Q 2122 425 2216 781 
Q 2359 1319 2359 2297 
Q 2359 3022 2209 3506 
Q 2097 3866 1919 4016 
Q 1791 4119 1609 4119 
Q 1397 4119 1231 3928 
Q 1006 3669 925 3112 
Q 844 2556 844 2016 
z
" transform="scale(0.015625)"/>
       </defs>
       <use xlink:href="#TimesNewRomanPSMT-30"/>
      </g>
     </g>
    </g>
    <g id="xtick_2">
     <g id="line2d_3">
      <path d="M 106.45393 178.5 
L 106.45393 12.96 
" clip-path="url(#p907b00decd)" style="fill: none; stroke-dasharray: 1.85,0.8; stroke-dashoffset: 0; stroke: #b0b0b0; stroke-opacity: 0.7; stroke-width: 0.5"/>
     </g>
     <g id="line2d_4">
      <g>
       <use xlink:href="#mb083dd4673" x="106.45393" y="178.5" style="stroke: #000000"/>
      </g>
     </g>
     <g id="text_2">
      <!-- 20 -->
      <g transform="translate(101.95393 191.249375)scale(0.09 -0.09)">
       <defs>
        <path id="TimesNewRomanPSMT-32" d="M 2934 816 
L 2638 0 
L 138 0 
L 138 116 
Q 1241 1122 1691 1759 
Q 2141 2397 2141 2925 
Q 2141 3328 1894 3587 
Q 1647 3847 1303 3847 
Q 991 3847 742 3664 
Q 494 3481 375 3128 
L 259 3128 
Q 338 3706 661 4015 
Q 984 4325 1469 4325 
Q 1984 4325 2329 3994 
Q 2675 3663 2675 3213 
Q 2675 2891 2525 2569 
Q 2294 2063 1775 1497 
Q 997 647 803 472 
L 1909 472 
Q 2247 472 2383 497 
Q 2519 522 2628 598 
Q 2738 675 2819 816 
L 2934 816 
z
" transform="scale(0.015625)"/>
       </defs>
       <use xlink:href="#TimesNewRomanPSMT-32"/>
       <use xlink:href="#TimesNewRomanPSMT-30" x="50"/>
      </g>
     </g>
    </g>
    <g id="xtick_3">
     <g id="line2d_5">
      <path d="M 160.191559 178.5 
L 160.191559 12.96 
" clip-path="url(#p907b00decd)" style="fill: none; stroke-dasharray: 1.85,0.8; stroke-dashoffset: 0; stroke: #b0b0b0; stroke-opacity: 0.7; stroke-width: 0.5"/>
     </g>
     <g id="line2d_6">
      <g>
       <use xlink:href="#mb083dd4673" x="160.191559" y="178.5" style="stroke: #000000"/>
      </g>
     </g>
     <g id="text_3">
      <!-- 40 -->
      <g transform="translate(155.691559 191.249375)scale(0.09 -0.09)">
       <defs>
        <path id="TimesNewRomanPSMT-34" d="M 2978 1563 
L 2978 1119 
L 2409 1119 
L 2409 0 
L 1894 0 
L 1894 1119 
L 100 1119 
L 100 1519 
L 2066 4325 
L 2409 4325 
L 2409 1563 
L 2978 1563 
z
M 1894 1563 
L 1894 3666 
L 406 1563 
L 1894 1563 
z
" transform="scale(0.015625)"/>
       </defs>
       <use xlink:href="#TimesNewRomanPSMT-34"/>
       <use xlink:href="#TimesNewRomanPSMT-30" x="50"/>
      </g>
     </g>
    </g>
    <g id="xtick_4">
     <g id="line2d_7">
      <path d="M 213.929189 178.5 
L 213.929189 12.96 
" clip-path="url(#p907b00decd)" style="fill: none; stroke-dasharray: 1.85,0.8; stroke-dashoffset: 0; stroke: #b0b0b0; stroke-opacity: 0.7; stroke-width: 0.5"/>
     </g>
     <g id="line2d_8">
      <g>
       <use xlink:href="#mb083dd4673" x="213.929189" y="178.5" style="stroke: #000000"/>
      </g>
     </g>
     <g id="text_4">
      <!-- 60 -->
      <g transform="translate(209.429189 191.249375)scale(0.09 -0.09)">
       <defs>
        <path id="TimesNewRomanPSMT-36" d="M 2869 4325 
L 2869 4209 
Q 2456 4169 2195 4045 
Q 1934 3922 1679 3669 
Q 1425 3416 1258 3105 
Q 1091 2794 978 2366 
Q 1428 2675 1881 2675 
Q 2316 2675 2634 2325 
Q 2953 1975 2953 1425 
Q 2953 894 2631 456 
Q 2244 -75 1606 -75 
Q 1172 -75 869 213 
Q 275 772 275 1663 
Q 275 2231 503 2743 
Q 731 3256 1154 3653 
Q 1578 4050 1965 4187 
Q 2353 4325 2688 4325 
L 2869 4325 
z
M 925 2138 
Q 869 1716 869 1456 
Q 869 1156 980 804 
Q 1091 453 1309 247 
Q 1469 100 1697 100 
Q 1969 100 2183 356 
Q 2397 613 2397 1088 
Q 2397 1622 2184 2012 
Q 1972 2403 1581 2403 
Q 1463 2403 1327 2353 
Q 1191 2303 925 2138 
z
" transform="scale(0.015625)"/>
       </defs>
       <use xlink:href="#TimesNewRomanPSMT-36"/>
       <use xlink:href="#TimesNewRomanPSMT-30" x="50"/>
      </g>
     </g>
    </g>
    <g id="xtick_5">
     <g id="line2d_9">
      <path d="M 267.666818 178.5 
L 267.666818 12.96 
" clip-path="url(#p907b00decd)" style="fill: none; stroke-dasharray: 1.85,0.8; stroke-dashoffset: 0; stroke: #b0b0b0; stroke-opacity: 0.7; stroke-width: 0.5"/>
     </g>
     <g id="line2d_10">
      <g>
       <use xlink:href="#mb083dd4673" x="267.666818" y="178.5" style="stroke: #000000"/>
      </g>
     </g>
     <g id="text_5">
      <!-- 80 -->
      <g transform="translate(263.166818 191.249375)scale(0.09 -0.09)">
       <defs>
        <path id="TimesNewRomanPSMT-38" d="M 1228 2134 
Q 725 2547 579 2797 
Q 434 3047 434 3316 
Q 434 3728 753 4026 
Q 1072 4325 1600 4325 
Q 2113 4325 2425 4047 
Q 2738 3769 2738 3413 
Q 2738 3175 2569 2928 
Q 2400 2681 1866 2347 
Q 2416 1922 2594 1678 
Q 2831 1359 2831 1006 
Q 2831 559 2490 242 
Q 2150 -75 1597 -75 
Q 994 -75 656 303 
Q 388 606 388 966 
Q 388 1247 577 1523 
Q 766 1800 1228 2134 
z
M 1719 2469 
Q 2094 2806 2194 3001 
Q 2294 3197 2294 3444 
Q 2294 3772 2109 3958 
Q 1925 4144 1606 4144 
Q 1288 4144 1088 3959 
Q 888 3775 888 3528 
Q 888 3366 970 3203 
Q 1053 3041 1206 2894 
L 1719 2469 
z
M 1375 2016 
Q 1116 1797 991 1539 
Q 866 1281 866 981 
Q 866 578 1086 336 
Q 1306 94 1647 94 
Q 1984 94 2187 284 
Q 2391 475 2391 747 
Q 2391 972 2272 1150 
Q 2050 1481 1375 2016 
z
" transform="scale(0.015625)"/>
       </defs>
       <use xlink:href="#TimesNewRomanPSMT-38"/>
       <use xlink:href="#TimesNewRomanPSMT-30" x="50"/>
      </g>
     </g>
    </g>
    <g id="text_6">
     <!-- Training iteration -->
     <g transform="translate(130.078594 203.423906)scale(0.09 -0.09)">
      <defs>
       <path id="TimesNewRomanPSMT-54" d="M 3703 4238 
L 3750 3244 
L 3631 3244 
Q 3597 3506 3538 3619 
Q 3441 3800 3280 3886 
Q 3119 3972 2856 3972 
L 2259 3972 
L 2259 734 
Q 2259 344 2344 247 
Q 2463 116 2709 116 
L 2856 116 
L 2856 0 
L 1059 0 
L 1059 116 
L 1209 116 
Q 1478 116 1591 278 
Q 1659 378 1659 734 
L 1659 3972 
L 1150 3972 
Q 853 3972 728 3928 
Q 566 3869 450 3700 
Q 334 3531 313 3244 
L 194 3244 
L 244 4238 
L 3703 4238 
z
" transform="scale(0.015625)"/>
       <path id="TimesNewRomanPSMT-72" d="M 1038 2947 
L 1038 2303 
Q 1397 2947 1775 2947 
Q 1947 2947 2059 2842 
Q 2172 2738 2172 2600 
Q 2172 2478 2090 2393 
Q 2009 2309 1897 2309 
Q 1788 2309 1652 2417 
Q 1516 2525 1450 2525 
Q 1394 2525 1328 2463 
Q 1188 2334 1038 2041 
L 1038 669 
Q 1038 431 1097 309 
Q 1138 225 1241 169 
Q 1344 113 1538 113 
L 1538 0 
L 72 0 
L 72 113 
Q 291 113 397 181 
Q 475 231 506 341 
Q 522 394 522 644 
L 522 1753 
Q 522 2253 501 2348 
Q 481 2444 426 2487 
Q 372 2531 291 2531 
Q 194 2531 72 2484 
L 41 2597 
L 906 2947 
L 1038 2947 
z
" transform="scale(0.015625)"/>
       <path id="TimesNewRomanPSMT-61" d="M 1822 413 
Q 1381 72 1269 19 
Q 1100 -59 909 -59 
Q 613 -59 420 144 
Q 228 347 228 678 
Q 228 888 322 1041 
Q 450 1253 767 1440 
Q 1084 1628 1822 1897 
L 1822 2009 
Q 1822 2438 1686 2597 
Q 1550 2756 1291 2756 
Q 1094 2756 978 2650 
Q 859 2544 859 2406 
L 866 2225 
Q 866 2081 792 2003 
Q 719 1925 600 1925 
Q 484 1925 411 2006 
Q 338 2088 338 2228 
Q 338 2497 613 2722 
Q 888 2947 1384 2947 
Q 1766 2947 2009 2819 
Q 2194 2722 2281 2516 
Q 2338 2381 2338 1966 
L 2338 994 
Q 2338 584 2353 492 
Q 2369 400 2405 369 
Q 2441 338 2488 338 
Q 2538 338 2575 359 
Q 2641 400 2828 588 
L 2828 413 
Q 2478 -56 2159 -56 
Q 2006 -56 1915 50 
Q 1825 156 1822 413 
z
M 1822 616 
L 1822 1706 
Q 1350 1519 1213 1441 
Q 966 1303 859 1153 
Q 753 1003 753 825 
Q 753 600 887 451 
Q 1022 303 1197 303 
Q 1434 303 1822 616 
z
" transform="scale(0.015625)"/>
       <path id="TimesNewRomanPSMT-69" d="M 928 4444 
Q 1059 4444 1151 4351 
Q 1244 4259 1244 4128 
Q 1244 3997 1151 3903 
Q 1059 3809 928 3809 
Q 797 3809 703 3903 
Q 609 3997 609 4128 
Q 609 4259 701 4351 
Q 794 4444 928 4444 
z
M 1188 2947 
L 1188 647 
Q 1188 378 1227 289 
Q 1266 200 1342 156 
Q 1419 113 1622 113 
L 1622 0 
L 231 0 
L 231 113 
Q 441 113 512 153 
Q 584 194 626 287 
Q 669 381 669 647 
L 669 1750 
Q 669 2216 641 2353 
Q 619 2453 572 2492 
Q 525 2531 444 2531 
Q 356 2531 231 2484 
L 188 2597 
L 1050 2947 
L 1188 2947 
z
" transform="scale(0.015625)"/>
       <path id="TimesNewRomanPSMT-6e" d="M 1034 2341 
Q 1538 2947 1994 2947 
Q 2228 2947 2397 2830 
Q 2566 2713 2666 2444 
Q 2734 2256 2734 1869 
L 2734 647 
Q 2734 375 2778 278 
Q 2813 200 2889 156 
Q 2966 113 3172 113 
L 3172 0 
L 1756 0 
L 1756 113 
L 1816 113 
Q 2016 113 2095 173 
Q 2175 234 2206 353 
Q 2219 400 2219 647 
L 2219 1819 
Q 2219 2209 2117 2386 
Q 2016 2563 1775 2563 
Q 1403 2563 1034 2156 
L 1034 647 
Q 1034 356 1069 288 
Q 1113 197 1189 155 
Q 1266 113 1500 113 
L 1500 0 
L 84 0 
L 84 113 
L 147 113 
Q 366 113 442 223 
Q 519 334 519 647 
L 519 1709 
Q 519 2225 495 2337 
Q 472 2450 423 2490 
Q 375 2531 294 2531 
Q 206 2531 84 2484 
L 38 2597 
L 900 2947 
L 1034 2947 
L 1034 2341 
z
" transform="scale(0.015625)"/>
       <path id="TimesNewRomanPSMT-67" d="M 966 1044 
Q 703 1172 562 1401 
Q 422 1631 422 1909 
Q 422 2334 742 2640 
Q 1063 2947 1563 2947 
Q 1972 2947 2272 2747 
L 2878 2747 
Q 3013 2747 3034 2739 
Q 3056 2731 3066 2713 
Q 3084 2684 3084 2613 
Q 3084 2531 3069 2500 
Q 3059 2484 3036 2475 
Q 3013 2466 2878 2466 
L 2506 2466 
Q 2681 2241 2681 1891 
Q 2681 1491 2375 1206 
Q 2069 922 1553 922 
Q 1341 922 1119 984 
Q 981 866 932 777 
Q 884 688 884 625 
Q 884 572 936 522 
Q 988 472 1138 450 
Q 1225 438 1575 428 
Q 2219 413 2409 384 
Q 2700 344 2873 169 
Q 3047 -6 3047 -263 
Q 3047 -616 2716 -925 
Q 2228 -1381 1444 -1381 
Q 841 -1381 425 -1109 
Q 191 -953 191 -784 
Q 191 -709 225 -634 
Q 278 -519 444 -313 
Q 466 -284 763 25 
Q 600 122 533 198 
Q 466 275 466 372 
Q 466 481 555 628 
Q 644 775 966 1044 
z
M 1509 2797 
Q 1278 2797 1122 2612 
Q 966 2428 966 2047 
Q 966 1553 1178 1281 
Q 1341 1075 1591 1075 
Q 1828 1075 1981 1253 
Q 2134 1431 2134 1813 
Q 2134 2309 1919 2591 
Q 1759 2797 1509 2797 
z
M 934 0 
Q 788 -159 713 -296 
Q 638 -434 638 -550 
Q 638 -700 819 -813 
Q 1131 -1006 1722 -1006 
Q 2284 -1006 2551 -807 
Q 2819 -609 2819 -384 
Q 2819 -222 2659 -153 
Q 2497 -84 2016 -72 
Q 1313 -53 934 0 
z
" transform="scale(0.015625)"/>
       <path id="TimesNewRomanPSMT-20" transform="scale(0.015625)"/>
       <path id="TimesNewRomanPSMT-74" d="M 1031 3803 
L 1031 2863 
L 1700 2863 
L 1700 2644 
L 1031 2644 
L 1031 788 
Q 1031 509 1111 412 
Q 1191 316 1316 316 
Q 1419 316 1516 380 
Q 1613 444 1666 569 
L 1788 569 
Q 1678 263 1478 108 
Q 1278 -47 1066 -47 
Q 922 -47 784 33 
Q 647 113 581 261 
Q 516 409 516 719 
L 516 2644 
L 63 2644 
L 63 2747 
Q 234 2816 414 2980 
Q 594 3144 734 3369 
Q 806 3488 934 3803 
L 1031 3803 
z
" transform="scale(0.015625)"/>
       <path id="TimesNewRomanPSMT-65" d="M 681 1784 
Q 678 1147 991 784 
Q 1303 422 1725 422 
Q 2006 422 2214 576 
Q 2422 731 2563 1106 
L 2659 1044 
Q 2594 616 2278 264 
Q 1963 -88 1488 -88 
Q 972 -88 605 314 
Q 238 716 238 1394 
Q 238 2128 614 2539 
Q 991 2950 1559 2950 
Q 2041 2950 2350 2633 
Q 2659 2316 2659 1784 
L 681 1784 
z
M 681 1966 
L 2006 1966 
Q 1991 2241 1941 2353 
Q 1863 2528 1708 2628 
Q 1553 2728 1384 2728 
Q 1125 2728 920 2526 
Q 716 2325 681 1966 
z
" transform="scale(0.015625)"/>
       <path id="TimesNewRomanPSMT-6f" d="M 1600 2947 
Q 2250 2947 2644 2453 
Q 2978 2031 2978 1484 
Q 2978 1100 2793 706 
Q 2609 313 2286 112 
Q 1963 -88 1566 -88 
Q 919 -88 538 428 
Q 216 863 216 1403 
Q 216 1797 411 2186 
Q 606 2575 925 2761 
Q 1244 2947 1600 2947 
z
M 1503 2744 
Q 1338 2744 1170 2645 
Q 1003 2547 900 2300 
Q 797 2053 797 1666 
Q 797 1041 1045 587 
Q 1294 134 1700 134 
Q 2003 134 2200 384 
Q 2397 634 2397 1244 
Q 2397 2006 2069 2444 
Q 1847 2744 1503 2744 
z
" transform="scale(0.015625)"/>
      </defs>
      <use xlink:href="#TimesNewRomanPSMT-54"/>
      <use xlink:href="#TimesNewRomanPSMT-72" x="57.583984"/>
      <use xlink:href="#TimesNewRomanPSMT-61" x="90.884766"/>
      <use xlink:href="#TimesNewRomanPSMT-69" x="135.269531"/>
      <use xlink:href="#TimesNewRomanPSMT-6e" x="163.052734"/>
      <use xlink:href="#TimesNewRomanPSMT-69" x="213.052734"/>
      <use xlink:href="#TimesNewRomanPSMT-6e" x="240.835938"/>
      <use xlink:href="#TimesNewRomanPSMT-67" x="290.835938"/>
      <use xlink:href="#TimesNewRomanPSMT-20" x="340.835938"/>
      <use xlink:href="#TimesNewRomanPSMT-69" x="365.835938"/>
      <use xlink:href="#TimesNewRomanPSMT-74" x="393.619141"/>
      <use xlink:href="#TimesNewRomanPSMT-65" x="421.402344"/>
      <use xlink:href="#TimesNewRomanPSMT-72" x="465.787109"/>
      <use xlink:href="#TimesNewRomanPSMT-61" x="499.087891"/>
      <use xlink:href="#TimesNewRomanPSMT-74" x="543.472656"/>
      <use xlink:href="#TimesNewRomanPSMT-69" x="571.255859"/>
      <use xlink:href="#TimesNewRomanPSMT-6f" x="599.039062"/>
      <use xlink:href="#TimesNewRomanPSMT-6e" x="649.039062"/>
     </g>
    </g>
   </g>
   <g id="matplotlib.axis_2">
    <g id="ytick_1">
     <g id="line2d_11">
      <path d="M 44.79 178.5 
L 278.28 178.5 
" clip-path="url(#p907b00decd)" style="fill: none; stroke-dasharray: 1.85,0.8; stroke-dashoffset: 0; stroke: #b0b0b0; stroke-opacity: 0.7; stroke-width: 0.5"/>
     </g>
     <g id="line2d_12">
      <defs>
       <path id="m065c130178" d="M 0 0 
L -3 0 
" style="stroke: #000000"/>
      </defs>
      <g>
       <use xlink:href="#m065c130178" x="44.79" y="178.5" style="stroke: #000000"/>
      </g>
     </g>
     <g id="text_7">
      <!-- 0.02 -->
      <g transform="translate(22.54 181.624687)scale(0.09 -0.09)">
       <defs>
        <path id="TimesNewRomanPSMT-2e" d="M 800 606 
Q 947 606 1047 504 
Q 1147 403 1147 259 
Q 1147 116 1045 14 
Q 944 -88 800 -88 
Q 656 -88 554 14 
Q 453 116 453 259 
Q 453 406 554 506 
Q 656 606 800 606 
z
" transform="scale(0.015625)"/>
       </defs>
       <use xlink:href="#TimesNewRomanPSMT-30"/>
       <use xlink:href="#TimesNewRomanPSMT-2e" x="50"/>
       <use xlink:href="#TimesNewRomanPSMT-30" x="75"/>
       <use xlink:href="#TimesNewRomanPSMT-32" x="125"/>
      </g>
     </g>
    </g>
    <g id="ytick_2">
     <g id="line2d_13">
      <path d="M 44.79 157.8075 
L 278.28 157.8075 
" clip-path="url(#p907b00decd)" style="fill: none; stroke-dasharray: 1.85,0.8; stroke-dashoffset: 0; stroke: #b0b0b0; stroke-opacity: 0.7; stroke-width: 0.5"/>
     </g>
     <g id="line2d_14">
      <g>
       <use xlink:href="#m065c130178" x="44.79" y="157.8075" style="stroke: #000000"/>
      </g>
     </g>
     <g id="text_8">
      <!-- 0.03 -->
      <g transform="translate(22.54 160.932187)scale(0.09 -0.09)">
       <defs>
        <path id="TimesNewRomanPSMT-33" d="M 325 3431 
Q 506 3859 782 4092 
Q 1059 4325 1472 4325 
Q 1981 4325 2253 3994 
Q 2459 3747 2459 3466 
Q 2459 3003 1878 2509 
Q 2269 2356 2469 2072 
Q 2669 1788 2669 1403 
Q 2669 853 2319 450 
Q 1863 -75 997 -75 
Q 569 -75 414 31 
Q 259 138 259 259 
Q 259 350 332 419 
Q 406 488 509 488 
Q 588 488 669 463 
Q 722 447 909 348 
Q 1097 250 1169 231 
Q 1284 197 1416 197 
Q 1734 197 1970 444 
Q 2206 691 2206 1028 
Q 2206 1275 2097 1509 
Q 2016 1684 1919 1775 
Q 1784 1900 1550 2001 
Q 1316 2103 1072 2103 
L 972 2103 
L 972 2197 
Q 1219 2228 1467 2375 
Q 1716 2522 1828 2728 
Q 1941 2934 1941 3181 
Q 1941 3503 1739 3701 
Q 1538 3900 1238 3900 
Q 753 3900 428 3381 
L 325 3431 
z
" transform="scale(0.015625)"/>
       </defs>
       <use xlink:href="#TimesNewRomanPSMT-30"/>
       <use xlink:href="#TimesNewRomanPSMT-2e" x="50"/>
       <use xlink:href="#TimesNewRomanPSMT-30" x="75"/>
       <use xlink:href="#TimesNewRomanPSMT-33" x="125"/>
      </g>
     </g>
    </g>
    <g id="ytick_3">
     <g id="line2d_15">
      <path d="M 44.79 137.115 
L 278.28 137.115 
" clip-path="url(#p907b00decd)" style="fill: none; stroke-dasharray: 1.85,0.8; stroke-dashoffset: 0; stroke: #b0b0b0; stroke-opacity: 0.7; stroke-width: 0.5"/>
     </g>
     <g id="line2d_16">
      <g>
       <use xlink:href="#m065c130178" x="44.79" y="137.115" style="stroke: #000000"/>
      </g>
     </g>
     <g id="text_9">
      <!-- 0.04 -->
      <g transform="translate(22.54 140.239688)scale(0.09 -0.09)">
       <use xlink:href="#TimesNewRomanPSMT-30"/>
       <use xlink:href="#TimesNewRomanPSMT-2e" x="50"/>
       <use xlink:href="#TimesNewRomanPSMT-30" x="75"/>
       <use xlink:href="#TimesNewRomanPSMT-34" x="125"/>
      </g>
     </g>
    </g>
    <g id="ytick_4">
     <g id="line2d_17">
      <path d="M 44.79 116.4225 
L 278.28 116.4225 
" clip-path="url(#p907b00decd)" style="fill: none; stroke-dasharray: 1.85,0.8; stroke-dashoffset: 0; stroke: #b0b0b0; stroke-opacity: 0.7; stroke-width: 0.5"/>
     </g>
     <g id="line2d_18">
      <g>
       <use xlink:href="#m065c130178" x="44.79" y="116.4225" style="stroke: #000000"/>
      </g>
     </g>
     <g id="text_10">
      <!-- 0.05 -->
      <g transform="translate(22.54 119.547187)scale(0.09 -0.09)">
       <defs>
        <path id="TimesNewRomanPSMT-35" d="M 2778 4238 
L 2534 3706 
L 1259 3706 
L 981 3138 
Q 1809 3016 2294 2522 
Q 2709 2097 2709 1522 
Q 2709 1188 2573 903 
Q 2438 619 2231 419 
Q 2025 219 1772 97 
Q 1413 -75 1034 -75 
Q 653 -75 479 54 
Q 306 184 306 341 
Q 306 428 378 495 
Q 450 563 559 563 
Q 641 563 702 538 
Q 763 513 909 409 
Q 1144 247 1384 247 
Q 1750 247 2026 523 
Q 2303 800 2303 1197 
Q 2303 1581 2056 1914 
Q 1809 2247 1375 2428 
Q 1034 2569 447 2591 
L 1259 4238 
L 2778 4238 
z
" transform="scale(0.015625)"/>
       </defs>
       <use xlink:href="#TimesNewRomanPSMT-30"/>
       <use xlink:href="#TimesNewRomanPSMT-2e" x="50"/>
       <use xlink:href="#TimesNewRomanPSMT-30" x="75"/>
       <use xlink:href="#TimesNewRomanPSMT-35" x="125"/>
      </g>
     </g>
    </g>
    <g id="ytick_5">
     <g id="line2d_19">
      <path d="M 44.79 95.73 
L 278.28 95.73 
" clip-path="url(#p907b00decd)" style="fill: none; stroke-dasharray: 1.85,0.8; stroke-dashoffset: 0; stroke: #b0b0b0; stroke-opacity: 0.7; stroke-width: 0.5"/>
     </g>
     <g id="line2d_20">
      <g>
       <use xlink:href="#m065c130178" x="44.79" y="95.73" style="stroke: #000000"/>
      </g>
     </g>
     <g id="text_11">
      <!-- 0.06 -->
      <g transform="translate(22.54 98.854687)scale(0.09 -0.09)">
       <use xlink:href="#TimesNewRomanPSMT-30"/>
       <use xlink:href="#TimesNewRomanPSMT-2e" x="50"/>
       <use xlink:href="#TimesNewRomanPSMT-30" x="75"/>
       <use xlink:href="#TimesNewRomanPSMT-36" x="125"/>
      </g>
     </g>
    </g>
    <g id="ytick_6">
     <g id="line2d_21">
      <path d="M 44.79 75.0375 
L 278.28 75.0375 
" clip-path="url(#p907b00decd)" style="fill: none; stroke-dasharray: 1.85,0.8; stroke-dashoffset: 0; stroke: #b0b0b0; stroke-opacity: 0.7; stroke-width: 0.5"/>
     </g>
     <g id="line2d_22">
      <g>
       <use xlink:href="#m065c130178" x="44.79" y="75.0375" style="stroke: #000000"/>
      </g>
     </g>
     <g id="text_12">
      <!-- 0.07 -->
      <g transform="translate(22.54 78.162188)scale(0.09 -0.09)">
       <defs>
        <path id="TimesNewRomanPSMT-37" d="M 644 4238 
L 2916 4238 
L 2916 4119 
L 1503 -88 
L 1153 -88 
L 2419 3728 
L 1253 3728 
Q 900 3728 750 3644 
Q 488 3500 328 3200 
L 238 3234 
L 644 4238 
z
" transform="scale(0.015625)"/>
       </defs>
       <use xlink:href="#TimesNewRomanPSMT-30"/>
       <use xlink:href="#TimesNewRomanPSMT-2e" x="50"/>
       <use xlink:href="#TimesNewRomanPSMT-30" x="75"/>
       <use xlink:href="#TimesNewRomanPSMT-37" x="125"/>
      </g>
     </g>
    </g>
    <g id="ytick_7">
     <g id="line2d_23">
      <path d="M 44.79 54.345 
L 278.28 54.345 
" clip-path="url(#p907b00decd)" style="fill: none; stroke-dasharray: 1.85,0.8; stroke-dashoffset: 0; stroke: #b0b0b0; stroke-opacity: 0.7; stroke-width: 0.5"/>
     </g>
     <g id="line2d_24">
      <g>
       <use xlink:href="#m065c130178" x="44.79" y="54.345" style="stroke: #000000"/>
      </g>
     </g>
     <g id="text_13">
      <!-- 0.08 -->
      <g transform="translate(22.54 57.469688)scale(0.09 -0.09)">
       <use xlink:href="#TimesNewRomanPSMT-30"/>
       <use xlink:href="#TimesNewRomanPSMT-2e" x="50"/>
       <use xlink:href="#TimesNewRomanPSMT-30" x="75"/>
       <use xlink:href="#TimesNewRomanPSMT-38" x="125"/>
      </g>
     </g>
    </g>
    <g id="ytick_8">
     <g id="line2d_25">
      <path d="M 44.79 33.6525 
L 278.28 33.6525 
" clip-path="url(#p907b00decd)" style="fill: none; stroke-dasharray: 1.85,0.8; stroke-dashoffset: 0; stroke: #b0b0b0; stroke-opacity: 0.7; stroke-width: 0.5"/>
     </g>
     <g id="line2d_26">
      <g>
       <use xlink:href="#m065c130178" x="44.79" y="33.6525" style="stroke: #000000"/>
      </g>
     </g>
     <g id="text_14">
      <!-- 0.09 -->
      <g transform="translate(22.54 36.777187)scale(0.09 -0.09)">
       <defs>
        <path id="TimesNewRomanPSMT-39" d="M 338 -88 
L 338 28 
Q 744 34 1094 217 
Q 1444 400 1770 856 
Q 2097 1313 2225 1859 
Q 1734 1544 1338 1544 
Q 891 1544 572 1889 
Q 253 2234 253 2806 
Q 253 3363 572 3797 
Q 956 4325 1575 4325 
Q 2097 4325 2469 3894 
Q 2925 3359 2925 2575 
Q 2925 1869 2578 1258 
Q 2231 647 1613 244 
Q 1109 -88 516 -88 
L 338 -88 
z
M 2275 2091 
Q 2331 2497 2331 2741 
Q 2331 3044 2228 3395 
Q 2125 3747 1936 3934 
Q 1747 4122 1506 4122 
Q 1228 4122 1018 3872 
Q 809 3622 809 3128 
Q 809 2469 1088 2097 
Q 1291 1828 1588 1828 
Q 1731 1828 1928 1897 
Q 2125 1966 2275 2091 
z
" transform="scale(0.015625)"/>
       </defs>
       <use xlink:href="#TimesNewRomanPSMT-30"/>
       <use xlink:href="#TimesNewRomanPSMT-2e" x="50"/>
       <use xlink:href="#TimesNewRomanPSMT-30" x="75"/>
       <use xlink:href="#TimesNewRomanPSMT-39" x="125"/>
      </g>
     </g>
    </g>
    <g id="ytick_9">
     <g id="line2d_27">
      <path d="M 44.79 12.96 
L 278.28 12.96 
" clip-path="url(#p907b00decd)" style="fill: none; stroke-dasharray: 1.85,0.8; stroke-dashoffset: 0; stroke: #b0b0b0; stroke-opacity: 0.7; stroke-width: 0.5"/>
     </g>
     <g id="line2d_28">
      <g>
       <use xlink:href="#m065c130178" x="44.79" y="12.96" style="stroke: #000000"/>
      </g>
     </g>
     <g id="text_15">
      <!-- 0.10 -->
      <g transform="translate(22.54 16.084688)scale(0.09 -0.09)">
       <defs>
        <path id="TimesNewRomanPSMT-31" d="M 750 3822 
L 1781 4325 
L 1884 4325 
L 1884 747 
Q 1884 391 1914 303 
Q 1944 216 2037 169 
Q 2131 122 2419 116 
L 2419 0 
L 825 0 
L 825 116 
Q 1125 122 1212 167 
Q 1300 213 1334 289 
Q 1369 366 1369 747 
L 1369 3034 
Q 1369 3497 1338 3628 
Q 1316 3728 1258 3775 
Q 1200 3822 1119 3822 
Q 1003 3822 797 3725 
L 750 3822 
z
" transform="scale(0.015625)"/>
       </defs>
       <use xlink:href="#TimesNewRomanPSMT-30"/>
       <use xlink:href="#TimesNewRomanPSMT-2e" x="50"/>
       <use xlink:href="#TimesNewRomanPSMT-31" x="75"/>
       <use xlink:href="#TimesNewRomanPSMT-30" x="125"/>
      </g>
     </g>
    </g>
    <g id="text_16">
     <!-- MSE value -->
     <g transform="translate(16.614844 115.852734)rotate(-90)scale(0.09 -0.09)">
      <defs>
       <path id="TimesNewRomanPSMT-4d" d="M 2619 0 
L 981 3566 
L 981 734 
Q 981 344 1066 247 
Q 1181 116 1431 116 
L 1581 116 
L 1581 0 
L 106 0 
L 106 116 
L 256 116 
Q 525 116 638 278 
Q 706 378 706 734 
L 706 3503 
Q 706 3784 644 3909 
Q 600 4000 483 4061 
Q 366 4122 106 4122 
L 106 4238 
L 1306 4238 
L 2844 922 
L 4356 4238 
L 5556 4238 
L 5556 4122 
L 5409 4122 
Q 5138 4122 5025 3959 
Q 4956 3859 4956 3503 
L 4956 734 
Q 4956 344 5044 247 
Q 5159 116 5409 116 
L 5556 116 
L 5556 0 
L 3756 0 
L 3756 116 
L 3906 116 
Q 4178 116 4288 278 
Q 4356 378 4356 734 
L 4356 3566 
L 2722 0 
L 2619 0 
z
" transform="scale(0.015625)"/>
       <path id="TimesNewRomanPSMT-53" d="M 2934 4334 
L 2934 2869 
L 2819 2869 
Q 2763 3291 2617 3541 
Q 2472 3791 2203 3937 
Q 1934 4084 1647 4084 
Q 1322 4084 1109 3886 
Q 897 3688 897 3434 
Q 897 3241 1031 3081 
Q 1225 2847 1953 2456 
Q 2547 2138 2764 1967 
Q 2981 1797 3098 1565 
Q 3216 1334 3216 1081 
Q 3216 600 2842 251 
Q 2469 -97 1881 -97 
Q 1697 -97 1534 -69 
Q 1438 -53 1133 45 
Q 828 144 747 144 
Q 669 144 623 97 
Q 578 50 556 -97 
L 441 -97 
L 441 1356 
L 556 1356 
Q 638 900 775 673 
Q 913 447 1195 297 
Q 1478 147 1816 147 
Q 2206 147 2432 353 
Q 2659 559 2659 841 
Q 2659 997 2573 1156 
Q 2488 1316 2306 1453 
Q 2184 1547 1640 1851 
Q 1097 2156 867 2337 
Q 638 2519 519 2737 
Q 400 2956 400 3219 
Q 400 3675 750 4004 
Q 1100 4334 1641 4334 
Q 1978 4334 2356 4169 
Q 2531 4091 2603 4091 
Q 2684 4091 2736 4139 
Q 2788 4188 2819 4334 
L 2934 4334 
z
" transform="scale(0.015625)"/>
       <path id="TimesNewRomanPSMT-45" d="M 1338 4006 
L 1338 2331 
L 2269 2331 
Q 2631 2331 2753 2441 
Q 2916 2584 2934 2947 
L 3050 2947 
L 3050 1472 
L 2934 1472 
Q 2891 1781 2847 1869 
Q 2791 1978 2662 2040 
Q 2534 2103 2269 2103 
L 1338 2103 
L 1338 706 
Q 1338 425 1363 364 
Q 1388 303 1450 267 
Q 1513 231 1688 231 
L 2406 231 
Q 2766 231 2928 281 
Q 3091 331 3241 478 
Q 3434 672 3638 1063 
L 3763 1063 
L 3397 0 
L 131 0 
L 131 116 
L 281 116 
Q 431 116 566 188 
Q 666 238 702 338 
Q 738 438 738 747 
L 738 3500 
Q 738 3903 656 3997 
Q 544 4122 281 4122 
L 131 4122 
L 131 4238 
L 3397 4238 
L 3444 3309 
L 3322 3309 
Q 3256 3644 3176 3769 
Q 3097 3894 2941 3959 
Q 2816 4006 2500 4006 
L 1338 4006 
z
" transform="scale(0.015625)"/>
       <path id="TimesNewRomanPSMT-76" d="M 53 2863 
L 1400 2863 
L 1400 2747 
L 1313 2747 
Q 1191 2747 1127 2687 
Q 1063 2628 1063 2528 
Q 1063 2419 1128 2269 
L 1794 688 
L 2463 2328 
Q 2534 2503 2534 2594 
Q 2534 2638 2509 2666 
Q 2475 2713 2422 2730 
Q 2369 2747 2206 2747 
L 2206 2863 
L 3141 2863 
L 3141 2747 
Q 2978 2734 2916 2681 
Q 2806 2588 2719 2369 
L 1703 -88 
L 1575 -88 
L 553 2328 
Q 484 2497 421 2570 
Q 359 2644 263 2694 
Q 209 2722 53 2747 
L 53 2863 
z
" transform="scale(0.015625)"/>
       <path id="TimesNewRomanPSMT-6c" d="M 1184 4444 
L 1184 647 
Q 1184 378 1223 290 
Q 1263 203 1344 158 
Q 1425 113 1647 113 
L 1647 0 
L 244 0 
L 244 113 
Q 441 113 512 153 
Q 584 194 625 287 
Q 666 381 666 647 
L 666 3247 
Q 666 3731 644 3842 
Q 622 3953 573 3993 
Q 525 4034 450 4034 
Q 369 4034 244 3984 
L 191 4094 
L 1044 4444 
L 1184 4444 
z
" transform="scale(0.015625)"/>
       <path id="TimesNewRomanPSMT-75" d="M 2709 2863 
L 2709 1128 
Q 2709 631 2732 520 
Q 2756 409 2807 365 
Q 2859 322 2928 322 
Q 3025 322 3147 375 
L 3191 266 
L 2334 -88 
L 2194 -88 
L 2194 519 
Q 1825 119 1631 15 
Q 1438 -88 1222 -88 
Q 981 -88 804 51 
Q 628 191 559 409 
Q 491 628 491 1028 
L 491 2306 
Q 491 2509 447 2587 
Q 403 2666 317 2708 
Q 231 2750 6 2747 
L 6 2863 
L 1009 2863 
L 1009 947 
Q 1009 547 1148 422 
Q 1288 297 1484 297 
Q 1619 297 1789 381 
Q 1959 466 2194 703 
L 2194 2325 
Q 2194 2569 2105 2655 
Q 2016 2741 1734 2747 
L 1734 2863 
L 2709 2863 
z
" transform="scale(0.015625)"/>
      </defs>
      <use xlink:href="#TimesNewRomanPSMT-4d"/>
      <use xlink:href="#TimesNewRomanPSMT-53" x="88.916016"/>
      <use xlink:href="#TimesNewRomanPSMT-45" x="144.53125"/>
      <use xlink:href="#TimesNewRomanPSMT-20" x="205.615234"/>
      <use xlink:href="#TimesNewRomanPSMT-76" x="230.615234"/>
      <use xlink:href="#TimesNewRomanPSMT-61" x="280.615234"/>
      <use xlink:href="#TimesNewRomanPSMT-6c" x="325"/>
      <use xlink:href="#TimesNewRomanPSMT-75" x="352.783203"/>
      <use xlink:href="#TimesNewRomanPSMT-65" x="402.783203"/>
     </g>
    </g>
   </g>
   <g id="line2d_29">
    <path d="M 55.403182 91.239728 
L 58.090063 129.926425 
L 60.776945 136.968083 
L 63.463826 140.158867 
L 66.150708 143.602099 
L 68.837589 146.101753 
L 71.524471 146.004498 
L 74.211352 150.041605 
L 76.898234 151.070022 
L 79.585115 152.818538 
L 82.271997 154.153205 
L 84.958878 155.030567 
L 87.645759 155.912067 
L 90.332641 155.779635 
L 93.019522 157.139132 
L 95.706404 157.507459 
L 98.393285 157.182587 
L 101.080167 158.515184 
L 103.767048 159.02215 
L 106.45393 159.094573 
L 109.140811 159.520839 
L 111.827693 159.808465 
L 114.514574 160.096091 
L 117.201456 160.51201 
L 119.888337 159.657409 
L 122.575219 160.92379 
L 125.2621 156.466626 
L 127.948982 161.182447 
L 130.635863 161.354195 
L 133.322745 161.61492 
L 136.009626 161.821845 
L 138.696507 161.921169 
L 141.383389 161.997731 
L 144.07027 160.536841 
L 146.757152 162.202587 
L 149.444033 162.436412 
L 152.130915 162.103263 
L 154.817796 160.65065 
L 157.504678 162.601952 
L 160.191559 162.837847 
L 162.878441 162.732315 
L 165.565322 162.721969 
L 168.252204 162.959933 
L 170.939085 163.065464 
L 173.625967 163.117196 
L 176.312848 162.926825 
L 178.99973 163.15858 
L 181.686611 163.102711 
L 184.373493 162.357781 
L 187.060374 163.235143 
L 189.747255 163.460691 
L 192.434137 163.528976 
L 195.121018 163.483453 
L 197.8079 163.568292 
L 200.494781 163.744178 
L 203.181663 163.622093 
L 205.868544 163.717278 
L 208.555426 163.804187 
L 211.242307 163.895234 
L 213.929189 163.978003 
L 216.61607 163.71107 
L 219.302952 163.785563 
L 221.989833 163.723486 
L 224.676715 163.632439 
L 227.363596 163.884887 
L 230.050478 164.023527 
L 232.737359 164.120782 
L 235.424241 164.089743 
L 238.111122 164.114574 
L 240.798003 164.238729 
L 243.484885 163.444137 
L 246.171766 163.901441 
L 248.858648 164.323568 
L 251.545529 164.338053 
L 254.232411 164.189067 
L 256.919292 164.424961 
L 259.606174 164.414615 
L 262.293055 164.218037 
L 264.979937 164.215967 
L 267.666818 164.040081 
" clip-path="url(#p907b00decd)" style="fill: none; stroke: #c44c52; stroke-width: 1.5; stroke-linecap: square"/>
   </g>
   <g id="line2d_30">
    <path d="M 58.069239 -1 
L 58.090063 0.943865 
L 60.776945 50.200292 
L 63.463826 76.185934 
L 66.150708 90.945894 
L 68.837589 99.568459 
L 71.524471 105.323043 
L 74.211352 109.604321 
L 76.898234 113.467611 
L 79.585115 116.701849 
L 82.271997 119.687777 
L 84.958878 122.421256 
L 87.645759 124.896079 
L 90.332641 127.052237 
L 93.019522 129.100795 
L 95.706404 130.679633 
L 98.393285 131.95636 
L 101.080167 132.858553 
L 103.767048 133.733846 
L 106.45393 134.375313 
L 109.140811 134.942288 
L 111.827693 135.418215 
L 114.514574 135.796888 
L 117.201456 136.270746 
L 119.888337 136.665973 
L 122.575219 137.036369 
L 125.2621 137.439872 
L 127.948982 137.818545 
L 130.635863 138.131002 
L 133.322745 138.451736 
L 136.009626 138.774539 
L 138.696507 139.076649 
L 141.383389 139.387037 
L 144.07027 139.697424 
L 146.757152 139.997465 
L 149.444033 140.264399 
L 152.130915 140.556163 
L 154.817796 140.847927 
L 157.504678 141.135553 
L 160.191559 141.379724 
L 162.878441 141.671489 
L 165.565322 141.930145 
L 168.252204 142.205355 
L 170.939085 142.472288 
L 173.625967 142.747499 
L 176.312848 143.049609 
L 178.99973 143.306196 
L 181.686611 143.608307 
L 184.373493 143.87524 
L 187.060374 144.098719 
L 189.747255 144.452561 
L 192.434137 144.686386 
L 195.121018 144.947111 
L 197.8079 145.203698 
L 200.494781 145.027812 
L 203.181663 145.704457 
L 205.868544 145.987944 
L 208.555426 146.149346 
L 211.242307 146.389379 
L 213.929189 146.542503 
L 216.61607 146.960491 
L 219.302952 147.146724 
L 221.989833 147.401242 
L 224.676715 147.659898 
L 227.363596 147.864754 
L 230.050478 148.077887 
L 232.737359 148.307573 
L 235.424241 148.458629 
L 238.111122 148.694523 
L 240.798003 148.905587 
L 243.484885 149.118719 
L 246.171766 149.302883 
L 248.858648 149.516015 
L 251.545529 149.532569 
L 254.232411 148.429659 
L 256.919292 149.836749 
L 259.606174 150.186452 
L 262.293055 150.349923 
L 264.979937 150.399585 
L 267.666818 150.71825 
" clip-path="url(#p907b00decd)" style="fill: none; stroke-dasharray: 4.5,7.5,1.5,7.5; stroke-dashoffset: 0; stroke: #5d879e; stroke-width: 1.5"/>
   </g>
   <g id="line2d_31">
    <path d="M 55.403182 131.428701 
L 58.090063 154.333229 
L 60.776945 158.281358 
L 63.463826 158.647616 
L 66.150708 162.181894 
L 68.837589 157.832331 
L 71.524471 162.589537 
L 74.211352 162.740592 
L 76.898234 163.086157 
L 79.585115 163.750386 
L 82.271997 163.702793 
L 84.958878 163.665547 
L 87.645759 164.000765 
L 90.332641 164.12699 
L 93.019522 161.56112 
L 95.706404 164.104228 
L 98.393285 164.273906 
L 101.080167 164.294599 
L 103.767048 164.358745 
L 106.45393 161.074846 
L 109.140811 164.356676 
L 111.827693 162.421928 
L 114.514574 161.581812 
L 117.201456 164.602917 
L 119.888337 164.855366 
L 122.575219 164.532563 
L 125.2621 107.737858 
L 127.948982 164.725003 
L 130.635863 165.196792 
L 133.322745 163.824879 
L 136.009626 165.031252 
L 138.696507 164.102159 
L 141.383389 164.933997 
L 144.07027 164.431169 
L 146.757152 165.360263 
L 149.444033 165.171961 
L 152.130915 164.92572 
L 154.817796 165.254731 
L 157.504678 163.24342 
L 160.191559 164.886404 
L 162.878441 165.254731 
L 165.565322 164.087674 
L 168.252204 163.632439 
L 170.939085 165.196792 
L 173.625967 165.140922 
L 176.312848 164.584294 
L 178.99973 165.349916 
L 181.686611 165.376817 
L 184.373493 164.441516 
L 187.060374 164.710518 
L 189.747255 165.480279 
L 192.434137 165.72652 
L 195.121018 163.07581 
L 197.8079 165.28577 
L 200.494781 165.498902 
L 203.181663 165.803082 
L 205.868544 165.569257 
L 208.555426 165.169892 
L 211.242307 165.687204 
L 213.929189 165.089191 
L 216.61607 165.674789 
L 219.302952 165.486487 
L 221.989833 165.798944 
L 224.676715 164.65051 
L 227.363596 165.904475 
L 230.050478 165.78239 
L 232.737359 165.80722 
L 235.424241 165.2568 
L 238.111122 165.712035 
L 240.798003 165.109883 
L 243.484885 165.126437 
L 246.171766 164.466346 
L 248.858648 166.045184 
L 251.545529 165.78239 
L 254.232411 165.674789 
L 256.919292 165.819636 
L 259.606174 165.649957 
L 262.293055 165.678927 
L 264.979937 165.738935 
L 267.666818 165.47614 
" clip-path="url(#p907b00decd)" style="fill: none; stroke-dasharray: 1.5,2.475; stroke-dashoffset: 0; stroke: #2cb466; stroke-width: 1.5"/>
   </g>
   <g id="line2d_32">
    <path d="M 55.403182 86.865333 
L 58.090063 135.26716 
L 60.776945 146.739082 
L 63.463826 152.48125 
L 66.150708 151.895653 
L 68.837589 156.721144 
L 71.524471 158.314466 
L 74.211352 159.35116 
L 76.898234 160.269908 
L 79.585115 161.058292 
L 82.271997 161.343848 
L 84.958878 156.599058 
L 87.645759 161.898407 
L 90.332641 157.072916 
L 93.019522 162.604022 
L 95.706404 162.680584 
L 98.393285 161.952208 
L 101.080167 162.815085 
L 103.767048 163.090295 
L 106.45393 163.340675 
L 109.140811 160.915514 
L 111.827693 163.570361 
L 114.514574 162.30605 
L 117.201456 163.938688 
L 119.888337 163.735901 
L 122.575219 163.969727 
L 125.2621 164.247006 
L 127.948982 163.946965 
L 130.635863 164.060774 
L 133.322745 163.568292 
L 136.009626 164.520147 
L 138.696507 164.675341 
L 141.383389 164.530493 
L 144.07027 164.745695 
L 146.757152 164.224244 
L 149.444033 164.331845 
L 152.130915 164.853296 
L 154.817796 165.018836 
L 157.504678 164.509801 
L 160.191559 164.907097 
L 162.878441 164.919512 
L 165.565322 164.917443 
L 168.252204 164.547047 
L 170.939085 163.576569 
L 173.625967 164.950551 
L 176.312848 164.989867 
L 178.99973 164.729141 
L 181.686611 163.564154 
L 184.373493 165.372678 
L 187.060374 164.580155 
L 189.747255 164.998144 
L 192.434137 164.828465 
L 195.121018 165.06436 
L 197.8079 165.480279 
L 200.494781 156.210039 
L 203.181663 165.329224 
L 205.868544 165.126437 
L 208.555426 165.186445 
L 211.242307 165.236108 
L 213.929189 165.519595 
L 216.61607 164.824327 
L 219.302952 165.678927 
L 221.989833 165.424409 
L 224.676715 163.468968 
L 227.363596 165.438894 
L 230.050478 164.549116 
L 232.737359 165.668581 
L 235.424241 165.000213 
L 238.111122 165.641681 
L 240.798003 165.320947 
L 243.484885 163.562084 
L 246.171766 164.51187 
L 248.858648 165.600296 
L 251.545529 165.639611 
L 254.232411 165.420271 
L 256.919292 165.691342 
L 259.606174 165.769974 
L 262.293055 165.50511 
L 264.979937 165.881713 
L 267.666818 165.815497 
" clip-path="url(#p907b00decd)" style="fill: none; stroke-dasharray: 9.6,2.4,1.5,2.4; stroke-dashoffset: 0; stroke: #94c6d4; stroke-width: 1.5"/>
   </g>
   <g id="line2d_33">
    <path d="M 55.403182 59.124968 
L 58.090063 115.987958 
L 60.776945 137.241224 
L 63.463826 147.347441 
L 66.150708 152.512289 
L 68.837589 155.510633 
L 71.524471 157.333642 
L 74.211352 158.765563 
L 76.898234 157.695761 
L 79.585115 160.660996 
L 82.271997 161.050015 
L 84.958878 161.499042 
L 87.645759 161.782529 
L 90.332641 161.784599 
L 93.019522 162.993041 
L 95.706404 163.24342 
L 98.393285 144.996773 
L 101.080167 163.557946 
L 103.767048 163.510353 
L 106.45393 163.495868 
L 109.140811 163.54553 
L 111.827693 162.904063 
L 114.514574 163.862125 
L 117.201456 155.62858 
L 119.888337 164.298737 
L 122.575219 163.98835 
L 125.2621 163.671755 
L 127.948982 164.325637 
L 130.635863 163.355159 
L 133.322745 146.917037 
L 136.009626 164.772595 
L 138.696507 164.557393 
L 141.383389 164.667064 
L 144.07027 164.691895 
L 146.757152 163.382059 
L 149.444033 165.09126 
L 152.130915 164.408408 
L 154.817796 164.797427 
L 157.504678 164.857435 
L 160.191559 164.689826 
L 162.878441 165.130576 
L 165.565322 164.507732 
L 168.252204 164.942274 
L 170.939085 165.320947 
L 173.625967 164.973313 
L 176.312848 165.250592 
L 178.99973 164.255283 
L 181.686611 165.432686 
L 184.373493 165.335431 
L 187.060374 165.242315 
L 189.747255 165.393371 
L 192.434137 164.671202 
L 195.121018 165.500971 
L 197.8079 165.134714 
L 200.494781 165.592018 
L 203.181663 165.55891 
L 205.868544 165.457517 
L 208.555426 164.422892 
L 211.242307 165.337501 
L 213.929189 165.550634 
L 216.61607 165.153337 
L 219.302952 165.672719 
L 221.989833 165.314739 
L 224.676715 165.693412 
L 227.363596 165.856882 
L 230.050478 165.685135 
L 232.737359 165.668581 
L 235.424241 164.861573 
L 238.111122 165.403717 
L 240.798003 165.335431 
L 243.484885 166.053461 
L 246.171766 165.705827 
L 248.858648 165.687204 
L 251.545529 165.91896 
L 254.232411 165.111953 
L 256.919292 165.507179 
L 259.606174 165.604434 
L 262.293055 163.400683 
L 264.979937 166.088639 
L 267.666818 165.463725 
" clip-path="url(#p907b00decd)" style="fill: none; stroke-dasharray: 5.55,2.4; stroke-dashoffset: 0; stroke: #c8892b; stroke-width: 1.5"/>
   </g>
   <g id="line2d_34">
    <path d="M 55.403182 105.778278 
L 58.090063 149.25322 
L 60.776945 156.750113 
L 63.463826 157.461935 
L 66.150708 161.47835 
L 68.837589 153.640031 
L 71.524471 161.786668 
L 74.211352 162.659891 
L 76.898234 163.427583 
L 79.585115 162.91027 
L 82.271997 160.998284 
L 84.958878 163.073741 
L 87.645759 164.354607 
L 90.332641 163.742109 
L 93.019522 164.398061 
L 95.706404 163.168927 
L 98.393285 164.211829 
L 101.080167 162.564706 
L 103.767048 162.512975 
L 106.45393 164.249075 
L 109.140811 164.09802 
L 111.827693 163.357229 
L 114.514574 164.747765 
L 117.201456 165.107814 
L 119.888337 164.89675 
L 122.575219 164.383577 
L 125.2621 164.813981 
L 127.948982 163.98835 
L 130.635863 163.615885 
L 133.322745 165.209207 
L 136.009626 165.132645 
L 138.696507 162.258457 
L 141.383389 164.811911 
L 144.07027 165.583742 
L 146.757152 165.370609 
L 149.444033 165.20093 
L 152.130915 164.979521 
L 154.817796 165.223692 
L 157.504678 164.689826 
L 160.191559 165.304393 
L 162.878441 163.560015 
L 165.565322 165.029182 
L 168.252204 164.54084 
L 170.939085 164.600848 
L 173.625967 164.53877 
L 176.312848 165.31267 
L 178.99973 165.738935 
L 181.686611 165.610642 
L 184.373493 165.2837 
L 187.060374 165.151268 
L 189.747255 165.401647 
L 192.434137 164.722934 
L 195.121018 165.486487 
L 197.8079 165.565118 
L 200.494781 164.907097 
L 203.181663 166.038976 
L 205.868544 165.219554 
L 208.555426 160.818259 
L 211.242307 165.827913 
L 213.929189 165.952068 
L 216.61607 165.289908 
L 219.302952 165.443033 
L 221.989833 165.341639 
L 224.676715 164.865712 
L 227.363596 165.881713 
L 230.050478 165.894129 
L 232.737359 165.72445 
L 235.424241 165.954137 
L 238.111122 165.579603 
L 240.798003 166.156924 
L 243.484885 164.859504 
L 246.171766 166.262455 
L 248.858648 165.407855 
L 251.545529 165.548564 
L 254.232411 166.158993 
L 256.919292 165.654096 
L 259.606174 165.755489 
L 262.293055 165.954137 
L 264.979937 165.904475 
L 267.666818 166.1114 
" clip-path="url(#p907b00decd)" style="fill: none; stroke-dasharray: 7.5,3,1.5,3; stroke-dashoffset: 0; stroke: #a24c97; stroke-width: 1.5"/>
   </g>
   <g id="patch_3">
    <path d="M 44.79 178.5 
L 44.79 12.96 
" style="fill: none; stroke: #000000; stroke-width: 1.5; stroke-linejoin: miter; stroke-linecap: square"/>
   </g>
   <g id="patch_4">
    <path d="M 44.79 178.5 
L 278.28 178.5 
" style="fill: none; stroke: #000000; stroke-width: 1.5; stroke-linejoin: miter; stroke-linecap: square"/>
   </g>
   <g id="axes_2">
    <g id="patch_5">
     <path d="M 86.8182 79.176 
L 168.5397 79.176 
L 168.5397 21.237 
L 86.8182 21.237 
z
" style="fill: #ffffff"/>
    </g>
    <g id="matplotlib.axis_3">
     <g id="xtick_6">
      <g id="line2d_35">
       <g>
        <use xlink:href="#mb083dd4673" x="86.8182" y="79.176" style="stroke: #000000"/>
       </g>
      </g>
      <g id="text_17">
       <!-- 0 -->
       <g transform="translate(84.5682 91.925375)scale(0.09 -0.09)">
        <use xlink:href="#TimesNewRomanPSMT-30"/>
       </g>
      </g>
     </g>
     <g id="xtick_7">
      <g id="line2d_36">
       <g>
        <use xlink:href="#mb083dd4673" x="127.67895" y="79.176" style="stroke: #000000"/>
       </g>
      </g>
      <g id="text_18">
       <!-- 10 -->
       <g transform="translate(123.17895 91.925375)scale(0.09 -0.09)">
        <use xlink:href="#TimesNewRomanPSMT-31"/>
        <use xlink:href="#TimesNewRomanPSMT-30" x="50"/>
       </g>
      </g>
     </g>
     <g id="xtick_8">
      <g id="line2d_37">
       <g>
        <use xlink:href="#mb083dd4673" x="168.5397" y="79.176" style="stroke: #000000"/>
       </g>
      </g>
      <g id="text_19">
       <!-- 20 -->
       <g transform="translate(164.0397 91.925375)scale(0.09 -0.09)">
        <use xlink:href="#TimesNewRomanPSMT-32"/>
        <use xlink:href="#TimesNewRomanPSMT-30" x="50"/>
       </g>
      </g>
     </g>
    </g>
    <g id="matplotlib.axis_4">
     <g id="ytick_10">
      <g id="line2d_38">
       <g>
        <use xlink:href="#m065c130178" x="86.8182" y="79.176" style="stroke: #000000"/>
       </g>
      </g>
      <g id="text_20">
       <!-- 0.02 -->
       <g transform="translate(64.5682 82.300688)scale(0.09 -0.09)">
        <use xlink:href="#TimesNewRomanPSMT-30"/>
        <use xlink:href="#TimesNewRomanPSMT-2e" x="50"/>
        <use xlink:href="#TimesNewRomanPSMT-30" x="75"/>
        <use xlink:href="#TimesNewRomanPSMT-32" x="125"/>
       </g>
      </g>
     </g>
     <g id="ytick_11">
      <g id="line2d_39">
       <g>
        <use xlink:href="#m065c130178" x="86.8182" y="58.107273" style="stroke: #000000"/>
       </g>
      </g>
      <g id="text_21">
       <!-- 0.04 -->
       <g transform="translate(64.5682 61.23196)scale(0.09 -0.09)">
        <use xlink:href="#TimesNewRomanPSMT-30"/>
        <use xlink:href="#TimesNewRomanPSMT-2e" x="50"/>
        <use xlink:href="#TimesNewRomanPSMT-30" x="75"/>
        <use xlink:href="#TimesNewRomanPSMT-34" x="125"/>
       </g>
      </g>
     </g>
     <g id="ytick_12">
      <g id="line2d_40">
       <g>
        <use xlink:href="#m065c130178" x="86.8182" y="37.038545" style="stroke: #000000"/>
       </g>
      </g>
      <g id="text_22">
       <!-- 0.06 -->
       <g transform="translate(64.5682 40.163233)scale(0.09 -0.09)">
        <use xlink:href="#TimesNewRomanPSMT-30"/>
        <use xlink:href="#TimesNewRomanPSMT-2e" x="50"/>
        <use xlink:href="#TimesNewRomanPSMT-30" x="75"/>
        <use xlink:href="#TimesNewRomanPSMT-36" x="125"/>
       </g>
      </g>
     </g>
    </g>
    <g id="line2d_41">
     <path d="M 90.904275 34.752589 
L 94.99035 54.447635 
L 99.076425 58.032479 
L 103.1625 59.656878 
L 107.248575 61.409796 
L 111.33465 62.682347 
L 115.420725 62.632835 
L 119.5068 64.68809 
L 123.592875 65.211648 
L 127.67895 66.101801 
L 131.765025 66.781268 
L 135.8511 67.227925 
L 139.937175 67.676689 
L 144.02325 67.609269 
L 148.109325 68.301376 
L 152.1954 68.488888 
L 156.281475 68.323499 
L 160.36755 69.001912 
L 164.453625 69.260004 
L 168.5397 69.296874 
L 172.625775 69.513882 
L 176.71185 69.660309 
L 180.797925 69.806737 
L 184.884 70.018478 
L 188.970075 69.583408 
L 193.05615 70.228112 
L 197.142225 67.95901 
L 201.2283 70.359791 
L 205.314375 70.447226 
L 209.40045 70.579959 
L 213.486525 70.685303 
L 217.5726 70.735868 
L 221.658675 70.774845 
L 225.74475 70.031119 
L 229.830825 70.879135 
L 233.9169 70.998174 
L 238.002975 70.82857 
L 242.08905 70.089058 
L 246.175125 71.082448 
L 250.2612 71.20254 
L 254.347275 71.148815 
L 258.43335 71.143548 
L 262.519425 71.264693 
L 266.6055 71.318418 
L 270.691575 71.344754 
L 274.77765 71.247838 
L 278.863725 71.365823 
L 282.9498 71.33738 
L 287.035875 70.958143 
L 289 71.172845 
" clip-path="url(#pbc36acf6cf)" style="fill: none; stroke: #c44c52; stroke-width: 1.5; stroke-linecap: square"/>
    </g>
    <g id="line2d_42">
     <path d="M 96.655058 -1 
L 99.076425 13.859785 
L 103.1625 27.088839 
L 107.248575 34.603001 
L 111.33465 38.99267 
L 115.420725 41.922276 
L 119.5068 44.101836 
L 123.592875 46.068602 
L 127.67895 47.715123 
L 131.765025 49.235232 
L 135.8511 50.626821 
L 139.937175 51.886731 
L 144.02325 52.984412 
L 148.109325 54.027314 
L 152.1954 54.831086 
L 156.281475 55.481056 
L 160.36755 55.940354 
L 164.453625 56.385958 
L 168.5397 56.712523 
L 172.625775 57.001165 
L 176.71185 57.243455 
L 180.797925 57.436234 
L 184.884 57.677471 
L 188.970075 57.878677 
L 193.05615 58.067242 
L 197.142225 58.272662 
L 201.2283 58.465441 
L 205.314375 58.62451 
L 209.40045 58.787793 
L 213.486525 58.952129 
L 217.5726 59.10593 
L 221.658675 59.263946 
L 225.74475 59.421961 
L 229.830825 59.57471 
L 233.9169 59.710603 
L 238.002975 59.859137 
L 242.08905 60.007672 
L 246.175125 60.1541 
L 250.2612 60.278405 
L 254.347275 60.42694 
L 258.43335 60.558619 
L 262.519425 60.698726 
L 266.6055 60.834619 
L 270.691575 60.974727 
L 274.77765 61.128528 
L 278.863725 61.259154 
L 282.9498 61.412956 
L 287.035875 61.548849 
L 289 61.603538 
" clip-path="url(#pbc36acf6cf)" style="fill: none; stroke-dasharray: 4.5,7.5,1.5,7.5; stroke-dashoffset: 0; stroke: #5d879e; stroke-width: 1.5"/>
    </g>
    <g id="line2d_43">
     <path d="M 90.904275 55.21243 
L 94.99035 66.872917 
L 99.076425 68.882873 
L 103.1625 69.069332 
L 107.248575 70.868601 
L 111.33465 68.654278 
L 115.420725 71.076128 
L 119.5068 71.153029 
L 123.592875 71.328953 
L 127.67895 71.667106 
L 131.765025 71.642877 
L 135.8511 71.623915 
L 139.937175 71.794571 
L 144.02325 71.858831 
L 148.109325 70.55257 
L 152.1954 71.847243 
L 156.281475 71.933625 
L 160.36755 71.944159 
L 164.453625 71.976816 
L 168.5397 70.305012 
L 172.625775 71.975762 
L 176.71185 70.990799 
L 180.797925 70.563104 
L 184.884 72.101121 
L 188.970075 72.229641 
L 193.05615 72.065305 
L 197.142225 43.151637 
L 201.2283 72.163274 
L 205.314375 72.403458 
L 209.40045 71.705029 
L 213.486525 72.319183 
L 217.5726 71.84619 
L 221.658675 72.269671 
L 225.74475 72.013686 
L 229.830825 72.486679 
L 233.9169 72.390816 
L 238.002975 72.265457 
L 242.08905 72.432954 
L 246.175125 71.409014 
L 250.2612 72.245442 
L 254.347275 72.432954 
L 258.43335 71.838816 
L 262.519425 71.60706 
L 266.6055 72.403458 
L 270.691575 72.375015 
L 274.77765 72.09164 
L 278.863725 72.481412 
L 282.9498 72.495107 
L 287.035875 72.018953 
L 289 72.084782 
" clip-path="url(#pbc36acf6cf)" style="fill: none; stroke-dasharray: 1.5,2.475; stroke-dashoffset: 0; stroke: #2cb466; stroke-width: 1.5"/>
    </g>
    <g id="line2d_44">
     <path d="M 90.904275 18.403256 
L 94.99035 47.351687 
L 99.076425 58.171532 
L 103.1625 63.316516 
L 107.248575 65.945893 
L 111.33465 67.472322 
L 115.420725 68.400399 
L 119.5068 69.129377 
L 123.592875 68.584751 
L 127.67895 70.094325 
L 131.765025 70.292371 
L 135.8511 70.520967 
L 139.937175 70.665288 
L 144.02325 70.666341 
L 148.109325 71.281548 
L 152.1954 71.409014 
L 156.281475 62.119812 
L 160.36755 71.569136 
L 164.453625 71.544907 
L 168.5397 71.537533 
L 172.625775 71.562815 
L 176.71185 71.23625 
L 180.797925 71.723991 
L 184.884 67.532368 
L 188.970075 71.946266 
L 193.05615 71.788251 
L 197.142225 71.627075 
L 201.2283 71.959961 
L 205.314375 71.465899 
L 209.40045 63.097401 
L 213.486525 72.187503 
L 217.5726 72.077946 
L 221.658675 72.133778 
L 225.74475 72.146419 
L 229.830825 71.479594 
L 233.9169 72.349732 
L 238.002975 72.002098 
L 242.08905 72.200144 
L 246.175125 72.230694 
L 250.2612 72.145366 
L 254.347275 72.369748 
L 258.43335 72.052663 
L 262.519425 72.273885 
L 266.6055 72.466664 
L 270.691575 72.289686 
L 274.77765 72.430847 
L 278.863725 71.924144 
L 282.9498 72.523549 
L 287.035875 72.474038 
L 289 72.451251 
" clip-path="url(#pbc36acf6cf)" style="fill: none; stroke-dasharray: 9.6,2.4,1.5,2.4; stroke-dashoffset: 0; stroke: #94c6d4; stroke-width: 1.5"/>
    </g>
    <g id="line2d_45">
     <path d="M 90.904275 42.154032 
L 94.99035 64.28673 
L 99.076425 68.10333 
L 103.1625 68.465712 
L 107.248575 70.510432 
L 111.33465 66.520016 
L 115.420725 70.667394 
L 119.5068 71.111945 
L 123.592875 71.50277 
L 127.67895 71.23941 
L 131.765025 70.266035 
L 135.8511 71.322632 
L 139.937175 71.974709 
L 144.02325 71.662892 
L 148.109325 71.996831 
L 152.1954 71.37109 
L 156.281475 71.902022 
L 160.36755 71.063487 
L 164.453625 71.037151 
L 168.5397 71.920984 
L 172.625775 71.844083 
L 176.71185 71.466953 
L 180.797925 72.174862 
L 184.884 72.35816 
L 188.970075 72.250709 
L 193.05615 71.989457 
L 197.142225 72.208572 
L 201.2283 71.788251 
L 205.314375 71.598632 
L 209.40045 72.409778 
L 213.486525 72.370801 
L 217.5726 70.907578 
L 221.658675 72.207518 
L 225.74475 72.60045 
L 229.830825 72.491946 
L 233.9169 72.405564 
L 238.002975 72.292847 
L 242.08905 72.417152 
L 246.175125 72.145366 
L 250.2612 72.458236 
L 254.347275 71.570189 
L 258.43335 72.318129 
L 262.519425 72.069518 
L 266.6055 72.100068 
L 270.691575 72.068465 
L 274.77765 72.46245 
L 278.863725 72.679458 
L 282.9498 72.614145 
L 287.035875 72.447702 
L 289 72.415294 
" clip-path="url(#pbc36acf6cf)" style="fill: none; stroke-dasharray: 5.55,2.4; stroke-dashoffset: 0; stroke: #c8892b; stroke-width: 1.5"/>
    </g>
    <g id="line2d_46">
     <path d="M 90.904275 32.525624 
L 94.99035 57.166554 
L 99.076425 63.006805 
L 103.1625 65.930091 
L 107.248575 65.631969 
L 111.33465 68.088582 
L 115.420725 68.899728 
L 119.5068 69.4275 
L 123.592875 69.895226 
L 127.67895 70.296585 
L 131.765025 70.441959 
L 135.8511 68.02643 
L 139.937175 70.72428 
L 144.02325 68.267666 
L 148.109325 71.083502 
L 152.1954 71.122479 
L 156.281475 70.751669 
L 160.36755 71.190952 
L 164.453625 71.331059 
L 168.5397 71.458525 
L 172.625775 70.223898 
L 176.71185 71.575457 
L 180.797925 70.931807 
L 184.884 71.762968 
L 188.970075 71.659732 
L 193.05615 71.77877 
L 197.142225 71.91993 
L 201.2283 71.767182 
L 205.314375 71.825121 
L 209.40045 71.574403 
L 213.486525 72.058984 
L 217.5726 72.137992 
L 221.658675 72.064251 
L 225.74475 72.173808 
L 229.830825 71.908343 
L 233.9169 71.963121 
L 238.002975 72.228587 
L 242.08905 72.312862 
L 246.175125 72.053717 
L 250.2612 72.255977 
L 254.347275 72.262297 
L 258.43335 72.261244 
L 262.519425 72.072679 
L 266.6055 71.578617 
L 270.691575 72.278099 
L 274.77765 72.298114 
L 278.863725 72.165381 
L 282.9498 71.572296 
L 287.035875 72.493 
L 289 72.299059 
" clip-path="url(#pbc36acf6cf)" style="fill: none; stroke-dasharray: 7.5,3,1.5,3; stroke-dashoffset: 0; stroke: #a24c97; stroke-width: 1.5"/>
    </g>
    <g id="patch_6">
     <path d="M 86.8182 79.176 
L 86.8182 21.237 
" style="fill: none; stroke: #000000; stroke-width: 1.5; stroke-linejoin: miter; stroke-linecap: square"/>
    </g>
    <g id="patch_7">
     <path d="M 168.5397 79.176 
L 168.5397 21.237 
" style="fill: none; stroke: #000000; stroke-width: 1.5; stroke-linejoin: miter; stroke-linecap: square"/>
    </g>
    <g id="patch_8">
     <path d="M 86.8182 79.176 
L 168.5397 79.176 
" style="fill: none; stroke: #000000; stroke-width: 1.5; stroke-linejoin: miter; stroke-linecap: square"/>
    </g>
    <g id="patch_9">
     <path d="M 86.8182 21.237 
L 168.5397 21.237 
" style="fill: none; stroke: #000000; stroke-width: 1.5; stroke-linejoin: miter; stroke-linecap: square"/>
    </g>
   </g>
   <g id="legend_1">
    <g id="patch_10">
     <path d="M 185.08 90.4 
L 272.68 90.4 
Q 274.28 90.4 274.28 88.8 
L 274.28 18.56 
Q 274.28 16.96 272.68 16.96 
L 185.08 16.96 
Q 183.48 16.96 183.48 18.56 
L 183.48 88.8 
Q 183.48 90.4 185.08 90.4 
z
" style="fill: #ffffff; opacity: 0.8; stroke: #000000; stroke-linejoin: miter"/>
    </g>
    <g id="line2d_47">
     <path d="M 186.68 23.44 
L 194.68 23.44 
L 202.68 23.44 
" style="fill: none; stroke: #c44c52; stroke-width: 1.5; stroke-linecap: square"/>
    </g>
    <g id="text_23">
     <!-- SGD ($\zeta$=1e-2) -->
     <g transform="translate(209.08 26.24)scale(0.08 -0.08)">
      <defs>
       <path id="TimesNewRomanPSMT-47" d="M 3928 4334 
L 4038 2997 
L 3928 2997 
Q 3763 3497 3500 3750 
Q 3122 4116 2528 4116 
Q 1719 4116 1297 3475 
Q 944 2934 944 2188 
Q 944 1581 1178 1081 
Q 1413 581 1792 348 
Q 2172 116 2572 116 
Q 2806 116 3025 175 
Q 3244 234 3447 350 
L 3447 1575 
Q 3447 1894 3398 1992 
Q 3350 2091 3248 2142 
Q 3147 2194 2891 2194 
L 2891 2313 
L 4531 2313 
L 4531 2194 
L 4453 2194 
Q 4209 2194 4119 2031 
Q 4056 1916 4056 1575 
L 4056 278 
Q 3697 84 3347 -6 
Q 2997 -97 2569 -97 
Q 1341 -97 703 691 
Q 225 1281 225 2053 
Q 225 2613 494 3125 
Q 813 3734 1369 4063 
Q 1834 4334 2469 4334 
Q 2700 4334 2889 4296 
Q 3078 4259 3425 4131 
Q 3600 4066 3659 4066 
Q 3719 4066 3761 4120 
Q 3803 4175 3813 4334 
L 3928 4334 
z
" transform="scale(0.015625)"/>
       <path id="TimesNewRomanPSMT-44" d="M 109 0 
L 109 116 
L 269 116 
Q 538 116 650 288 
Q 719 391 719 750 
L 719 3488 
Q 719 3884 631 3984 
Q 509 4122 269 4122 
L 109 4122 
L 109 4238 
L 1834 4238 
Q 2784 4238 3279 4022 
Q 3775 3806 4076 3303 
Q 4378 2800 4378 2141 
Q 4378 1256 3841 663 
Q 3238 0 2003 0 
L 109 0 
z
M 1319 306 
Q 1716 219 1984 219 
Q 2709 219 3187 728 
Q 3666 1238 3666 2109 
Q 3666 2988 3187 3494 
Q 2709 4000 1959 4000 
Q 1678 4000 1319 3909 
L 1319 306 
z
" transform="scale(0.015625)"/>
       <path id="TimesNewRomanPSMT-28" d="M 1988 -1253 
L 1988 -1369 
Q 1516 -1131 1200 -813 
Q 750 -359 506 256 
Q 263 872 263 1534 
Q 263 2503 741 3301 
Q 1219 4100 1988 4444 
L 1988 4313 
Q 1603 4100 1356 3731 
Q 1109 3363 987 2797 
Q 866 2231 866 1616 
Q 866 947 969 400 
Q 1050 -31 1165 -292 
Q 1281 -553 1476 -793 
Q 1672 -1034 1988 -1253 
z
" transform="scale(0.015625)"/>
       <path id="DejaVuSans-Oblique-3b6" d="M 1966 397 
Q 2378 394 2578 159 
Q 2794 -88 2722 -463 
Q 2650 -822 2372 -1072 
Q 2069 -1344 1559 -1344 
Q 1606 -1109 1650 -872 
Q 1863 -888 2022 -750 
Q 2144 -641 2166 -525 
Q 2197 -359 2125 -222 
Q 2050 -91 1872 -91 
Q -22 -91 316 1669 
Q 616 3206 2609 4284 
L 947 4284 
L 1059 4863 
L 3778 4863 
L 3666 4284 
Q 1181 3147 894 1669 
Q 647 397 1966 397 
z
" transform="scale(0.015625)"/>
       <path id="TimesNewRomanPSMT-3d" d="M 116 2759 
L 3488 2759 
L 3488 2503 
L 116 2503 
L 116 2759 
z
M 116 1741 
L 3488 1741 
L 3488 1484 
L 116 1484 
L 116 1741 
z
" transform="scale(0.015625)"/>
       <path id="TimesNewRomanPSMT-2d" d="M 259 1672 
L 1875 1672 
L 1875 1200 
L 259 1200 
L 259 1672 
z
" transform="scale(0.015625)"/>
       <path id="TimesNewRomanPSMT-29" d="M 144 4313 
L 144 4444 
Q 619 4209 934 3891 
Q 1381 3434 1625 2820 
Q 1869 2206 1869 1541 
Q 1869 572 1392 -226 
Q 916 -1025 144 -1369 
L 144 -1253 
Q 528 -1038 776 -670 
Q 1025 -303 1145 264 
Q 1266 831 1266 1447 
Q 1266 2113 1163 2663 
Q 1084 3094 967 3353 
Q 850 3613 656 3853 
Q 463 4094 144 4313 
z
" transform="scale(0.015625)"/>
      </defs>
      <use xlink:href="#TimesNewRomanPSMT-53" transform="translate(0 0.015625)"/>
      <use xlink:href="#TimesNewRomanPSMT-47" transform="translate(55.615234 0.015625)"/>
      <use xlink:href="#TimesNewRomanPSMT-44" transform="translate(127.832031 0.015625)"/>
      <use xlink:href="#TimesNewRomanPSMT-20" transform="translate(200.048828 0.015625)"/>
      <use xlink:href="#TimesNewRomanPSMT-28" transform="translate(225.048828 0.015625)"/>
      <use xlink:href="#DejaVuSans-Oblique-3b6" transform="translate(258.349609 0.015625)"/>
      <use xlink:href="#TimesNewRomanPSMT-3d" transform="translate(312.744141 0.015625)"/>
      <use xlink:href="#TimesNewRomanPSMT-31" transform="translate(369.140625 0.015625)"/>
      <use xlink:href="#TimesNewRomanPSMT-65" transform="translate(419.140625 0.015625)"/>
      <use xlink:href="#TimesNewRomanPSMT-2d" transform="translate(463.525391 0.015625)"/>
      <use xlink:href="#TimesNewRomanPSMT-32" transform="translate(496.826172 0.015625)"/>
      <use xlink:href="#TimesNewRomanPSMT-29" transform="translate(546.826172 0.015625)"/>
     </g>
    </g>
    <g id="line2d_48">
     <path d="M 186.68 35.28 
L 194.68 35.28 
L 202.68 35.28 
" style="fill: none; stroke-dasharray: 4.5,7.5,1.5,7.5; stroke-dashoffset: 0; stroke: #5d879e; stroke-width: 1.5"/>
    </g>
    <g id="text_24">
     <!-- SGD ($\zeta$=1e-3) -->
     <g transform="translate(209.08 38.08)scale(0.08 -0.08)">
      <use xlink:href="#TimesNewRomanPSMT-53" transform="translate(0 0.015625)"/>
      <use xlink:href="#TimesNewRomanPSMT-47" transform="translate(55.615234 0.015625)"/>
      <use xlink:href="#TimesNewRomanPSMT-44" transform="translate(127.832031 0.015625)"/>
      <use xlink:href="#TimesNewRomanPSMT-20" transform="translate(200.048828 0.015625)"/>
      <use xlink:href="#TimesNewRomanPSMT-28" transform="translate(225.048828 0.015625)"/>
      <use xlink:href="#DejaVuSans-Oblique-3b6" transform="translate(258.349609 0.015625)"/>
      <use xlink:href="#TimesNewRomanPSMT-3d" transform="translate(312.744141 0.015625)"/>
      <use xlink:href="#TimesNewRomanPSMT-31" transform="translate(369.140625 0.015625)"/>
      <use xlink:href="#TimesNewRomanPSMT-65" transform="translate(419.140625 0.015625)"/>
      <use xlink:href="#TimesNewRomanPSMT-2d" transform="translate(463.525391 0.015625)"/>
      <use xlink:href="#TimesNewRomanPSMT-33" transform="translate(496.826172 0.015625)"/>
      <use xlink:href="#TimesNewRomanPSMT-29" transform="translate(546.826172 0.015625)"/>
     </g>
    </g>
    <g id="line2d_49">
     <path d="M 186.68 47.12 
L 194.68 47.12 
L 202.68 47.12 
" style="fill: none; stroke-dasharray: 1.5,2.475; stroke-dashoffset: 0; stroke: #2cb466; stroke-width: 1.5"/>
    </g>
    <g id="text_25">
     <!-- Adam ($\zeta$=1e-3) -->
     <g transform="translate(209.08 49.92)scale(0.08 -0.08)">
      <defs>
       <path id="TimesNewRomanPSMT-41" d="M 2928 1419 
L 1288 1419 
L 1000 750 
Q 894 503 894 381 
Q 894 284 986 211 
Q 1078 138 1384 116 
L 1384 0 
L 50 0 
L 50 116 
Q 316 163 394 238 
Q 553 388 747 847 
L 2238 4334 
L 2347 4334 
L 3822 809 
Q 4000 384 4145 257 
Q 4291 131 4550 116 
L 4550 0 
L 2878 0 
L 2878 116 
Q 3131 128 3220 200 
Q 3309 272 3309 375 
Q 3309 513 3184 809 
L 2928 1419 
z
M 2841 1650 
L 2122 3363 
L 1384 1650 
L 2841 1650 
z
" transform="scale(0.015625)"/>
       <path id="TimesNewRomanPSMT-64" d="M 2222 322 
Q 2013 103 1813 7 
Q 1613 -88 1381 -88 
Q 913 -88 563 304 
Q 213 697 213 1313 
Q 213 1928 600 2439 
Q 988 2950 1597 2950 
Q 1975 2950 2222 2709 
L 2222 3238 
Q 2222 3728 2198 3840 
Q 2175 3953 2125 3993 
Q 2075 4034 2000 4034 
Q 1919 4034 1784 3984 
L 1744 4094 
L 2597 4444 
L 2738 4444 
L 2738 1134 
Q 2738 631 2761 520 
Q 2784 409 2836 365 
Q 2888 322 2956 322 
Q 3041 322 3181 375 
L 3216 266 
L 2366 -88 
L 2222 -88 
L 2222 322 
z
M 2222 541 
L 2222 2016 
Q 2203 2228 2109 2403 
Q 2016 2578 1861 2667 
Q 1706 2756 1559 2756 
Q 1284 2756 1069 2509 
Q 784 2184 784 1559 
Q 784 928 1059 592 
Q 1334 256 1672 256 
Q 1956 256 2222 541 
z
" transform="scale(0.015625)"/>
       <path id="TimesNewRomanPSMT-6d" d="M 1050 2338 
Q 1363 2650 1419 2697 
Q 1559 2816 1721 2881 
Q 1884 2947 2044 2947 
Q 2313 2947 2506 2790 
Q 2700 2634 2766 2338 
Q 3088 2713 3309 2830 
Q 3531 2947 3766 2947 
Q 3994 2947 4170 2830 
Q 4347 2713 4450 2447 
Q 4519 2266 4519 1878 
L 4519 647 
Q 4519 378 4559 278 
Q 4591 209 4675 161 
Q 4759 113 4950 113 
L 4950 0 
L 3538 0 
L 3538 113 
L 3597 113 
Q 3781 113 3884 184 
Q 3956 234 3988 344 
Q 4000 397 4000 647 
L 4000 1878 
Q 4000 2228 3916 2372 
Q 3794 2572 3525 2572 
Q 3359 2572 3192 2489 
Q 3025 2406 2788 2181 
L 2781 2147 
L 2788 2013 
L 2788 647 
Q 2788 353 2820 281 
Q 2853 209 2943 161 
Q 3034 113 3253 113 
L 3253 0 
L 1806 0 
L 1806 113 
Q 2044 113 2133 169 
Q 2222 225 2256 338 
Q 2272 391 2272 647 
L 2272 1878 
Q 2272 2228 2169 2381 
Q 2031 2581 1784 2581 
Q 1616 2581 1450 2491 
Q 1191 2353 1050 2181 
L 1050 647 
Q 1050 366 1089 281 
Q 1128 197 1204 155 
Q 1281 113 1516 113 
L 1516 0 
L 100 0 
L 100 113 
Q 297 113 375 155 
Q 453 197 493 289 
Q 534 381 534 647 
L 534 1741 
Q 534 2213 506 2350 
Q 484 2453 437 2492 
Q 391 2531 309 2531 
Q 222 2531 100 2484 
L 53 2597 
L 916 2947 
L 1050 2947 
L 1050 2338 
z
" transform="scale(0.015625)"/>
      </defs>
      <use xlink:href="#TimesNewRomanPSMT-41" transform="translate(0 0.015625)"/>
      <use xlink:href="#TimesNewRomanPSMT-64" transform="translate(72.216797 0.015625)"/>
      <use xlink:href="#TimesNewRomanPSMT-61" transform="translate(122.216797 0.015625)"/>
      <use xlink:href="#TimesNewRomanPSMT-6d" transform="translate(166.601562 0.015625)"/>
      <use xlink:href="#TimesNewRomanPSMT-20" transform="translate(244.384766 0.015625)"/>
      <use xlink:href="#TimesNewRomanPSMT-28" transform="translate(269.384766 0.015625)"/>
      <use xlink:href="#DejaVuSans-Oblique-3b6" transform="translate(302.685547 0.015625)"/>
      <use xlink:href="#TimesNewRomanPSMT-3d" transform="translate(357.080078 0.015625)"/>
      <use xlink:href="#TimesNewRomanPSMT-31" transform="translate(413.476562 0.015625)"/>
      <use xlink:href="#TimesNewRomanPSMT-65" transform="translate(463.476562 0.015625)"/>
      <use xlink:href="#TimesNewRomanPSMT-2d" transform="translate(507.861328 0.015625)"/>
      <use xlink:href="#TimesNewRomanPSMT-33" transform="translate(541.162109 0.015625)"/>
      <use xlink:href="#TimesNewRomanPSMT-29" transform="translate(591.162109 0.015625)"/>
     </g>
    </g>
    <g id="line2d_50">
     <path d="M 186.68 58.96 
L 194.68 58.96 
L 202.68 58.96 
" style="fill: none; stroke-dasharray: 9.6,2.4,1.5,2.4; stroke-dashoffset: 0; stroke: #94c6d4; stroke-width: 1.5"/>
    </g>
    <g id="text_26">
     <!-- Adam ($\zeta$=1e-4) -->
     <g transform="translate(209.08 61.76)scale(0.08 -0.08)">
      <use xlink:href="#TimesNewRomanPSMT-41" transform="translate(0 0.015625)"/>
      <use xlink:href="#TimesNewRomanPSMT-64" transform="translate(72.216797 0.015625)"/>
      <use xlink:href="#TimesNewRomanPSMT-61" transform="translate(122.216797 0.015625)"/>
      <use xlink:href="#TimesNewRomanPSMT-6d" transform="translate(166.601562 0.015625)"/>
      <use xlink:href="#TimesNewRomanPSMT-20" transform="translate(244.384766 0.015625)"/>
      <use xlink:href="#TimesNewRomanPSMT-28" transform="translate(269.384766 0.015625)"/>
      <use xlink:href="#DejaVuSans-Oblique-3b6" transform="translate(302.685547 0.015625)"/>
      <use xlink:href="#TimesNewRomanPSMT-3d" transform="translate(357.080078 0.015625)"/>
      <use xlink:href="#TimesNewRomanPSMT-31" transform="translate(413.476562 0.015625)"/>
      <use xlink:href="#TimesNewRomanPSMT-65" transform="translate(463.476562 0.015625)"/>
      <use xlink:href="#TimesNewRomanPSMT-2d" transform="translate(507.861328 0.015625)"/>
      <use xlink:href="#TimesNewRomanPSMT-34" transform="translate(541.162109 0.015625)"/>
      <use xlink:href="#TimesNewRomanPSMT-29" transform="translate(591.162109 0.015625)"/>
     </g>
    </g>
    <g id="line2d_51">
     <path d="M 186.68 70.8 
L 194.68 70.8 
L 202.68 70.8 
" style="fill: none; stroke-dasharray: 5.55,2.4; stroke-dashoffset: 0; stroke: #c8892b; stroke-width: 1.5"/>
    </g>
    <g id="text_27">
     <!-- RMSprop ($\zeta$=1e-4) -->
     <g transform="translate(209.08 73.6)scale(0.08 -0.08)">
      <defs>
       <path id="TimesNewRomanPSMT-52" d="M 4325 0 
L 3194 0 
L 1759 1981 
Q 1600 1975 1500 1975 
Q 1459 1975 1412 1976 
Q 1366 1978 1316 1981 
L 1316 750 
Q 1316 350 1403 253 
Q 1522 116 1759 116 
L 1925 116 
L 1925 0 
L 109 0 
L 109 116 
L 269 116 
Q 538 116 653 291 
Q 719 388 719 750 
L 719 3488 
Q 719 3888 631 3984 
Q 509 4122 269 4122 
L 109 4122 
L 109 4238 
L 1653 4238 
Q 2328 4238 2648 4139 
Q 2969 4041 3192 3777 
Q 3416 3513 3416 3147 
Q 3416 2756 3161 2468 
Q 2906 2181 2372 2063 
L 3247 847 
Q 3547 428 3762 290 
Q 3978 153 4325 116 
L 4325 0 
z
M 1316 2178 
Q 1375 2178 1419 2176 
Q 1463 2175 1491 2175 
Q 2097 2175 2405 2437 
Q 2713 2700 2713 3106 
Q 2713 3503 2464 3751 
Q 2216 4000 1806 4000 
Q 1625 4000 1316 3941 
L 1316 2178 
z
" transform="scale(0.015625)"/>
       <path id="TimesNewRomanPSMT-70" d="M -6 2578 
L 875 2934 
L 994 2934 
L 994 2266 
Q 1216 2644 1439 2795 
Q 1663 2947 1909 2947 
Q 2341 2947 2628 2609 
Q 2981 2197 2981 1534 
Q 2981 794 2556 309 
Q 2206 -88 1675 -88 
Q 1444 -88 1275 -22 
Q 1150 25 994 166 
L 994 -706 
Q 994 -1000 1030 -1079 
Q 1066 -1159 1155 -1206 
Q 1244 -1253 1478 -1253 
L 1478 -1369 
L -22 -1369 
L -22 -1253 
L 56 -1253 
Q 228 -1256 350 -1188 
Q 409 -1153 442 -1076 
Q 475 -1000 475 -688 
L 475 2019 
Q 475 2297 450 2372 
Q 425 2447 370 2484 
Q 316 2522 222 2522 
Q 147 2522 31 2478 
L -6 2578 
z
M 994 2081 
L 994 1013 
Q 994 666 1022 556 
Q 1066 375 1236 237 
Q 1406 100 1666 100 
Q 1978 100 2172 344 
Q 2425 663 2425 1241 
Q 2425 1897 2138 2250 
Q 1938 2494 1663 2494 
Q 1513 2494 1366 2419 
Q 1253 2363 994 2081 
z
" transform="scale(0.015625)"/>
      </defs>
      <use xlink:href="#TimesNewRomanPSMT-52" transform="translate(0 0.015625)"/>
      <use xlink:href="#TimesNewRomanPSMT-4d" transform="translate(66.699219 0.015625)"/>
      <use xlink:href="#TimesNewRomanPSMT-53" transform="translate(155.615234 0.015625)"/>
      <use xlink:href="#TimesNewRomanPSMT-70" transform="translate(211.230469 0.015625)"/>
      <use xlink:href="#TimesNewRomanPSMT-72" transform="translate(261.230469 0.015625)"/>
      <use xlink:href="#TimesNewRomanPSMT-6f" transform="translate(294.53125 0.015625)"/>
      <use xlink:href="#TimesNewRomanPSMT-70" transform="translate(344.53125 0.015625)"/>
      <use xlink:href="#TimesNewRomanPSMT-20" transform="translate(394.53125 0.015625)"/>
      <use xlink:href="#TimesNewRomanPSMT-28" transform="translate(419.53125 0.015625)"/>
      <use xlink:href="#DejaVuSans-Oblique-3b6" transform="translate(452.832031 0.015625)"/>
      <use xlink:href="#TimesNewRomanPSMT-3d" transform="translate(507.226562 0.015625)"/>
      <use xlink:href="#TimesNewRomanPSMT-31" transform="translate(563.623047 0.015625)"/>
      <use xlink:href="#TimesNewRomanPSMT-65" transform="translate(613.623047 0.015625)"/>
      <use xlink:href="#TimesNewRomanPSMT-2d" transform="translate(658.007812 0.015625)"/>
      <use xlink:href="#TimesNewRomanPSMT-34" transform="translate(691.308594 0.015625)"/>
      <use xlink:href="#TimesNewRomanPSMT-29" transform="translate(741.308594 0.015625)"/>
     </g>
    </g>
    <g id="line2d_52">
     <path d="M 186.68 82.64 
L 194.68 82.64 
L 202.68 82.64 
" style="fill: none; stroke-dasharray: 7.5,3,1.5,3; stroke-dashoffset: 0; stroke: #a24c97; stroke-width: 1.5"/>
    </g>
    <g id="text_28">
     <!-- RMSprop ($\zeta$=1e-5) -->
     <g transform="translate(209.08 85.44)scale(0.08 -0.08)">
      <use xlink:href="#TimesNewRomanPSMT-52" transform="translate(0 0.015625)"/>
      <use xlink:href="#TimesNewRomanPSMT-4d" transform="translate(66.699219 0.015625)"/>
      <use xlink:href="#TimesNewRomanPSMT-53" transform="translate(155.615234 0.015625)"/>
      <use xlink:href="#TimesNewRomanPSMT-70" transform="translate(211.230469 0.015625)"/>
      <use xlink:href="#TimesNewRomanPSMT-72" transform="translate(261.230469 0.015625)"/>
      <use xlink:href="#TimesNewRomanPSMT-6f" transform="translate(294.53125 0.015625)"/>
      <use xlink:href="#TimesNewRomanPSMT-70" transform="translate(344.53125 0.015625)"/>
      <use xlink:href="#TimesNewRomanPSMT-20" transform="translate(394.53125 0.015625)"/>
      <use xlink:href="#TimesNewRomanPSMT-28" transform="translate(419.53125 0.015625)"/>
      <use xlink:href="#DejaVuSans-Oblique-3b6" transform="translate(452.832031 0.015625)"/>
      <use xlink:href="#TimesNewRomanPSMT-3d" transform="translate(507.226562 0.015625)"/>
      <use xlink:href="#TimesNewRomanPSMT-31" transform="translate(563.623047 0.015625)"/>
      <use xlink:href="#TimesNewRomanPSMT-65" transform="translate(613.623047 0.015625)"/>
      <use xlink:href="#TimesNewRomanPSMT-2d" transform="translate(658.007812 0.015625)"/>
      <use xlink:href="#TimesNewRomanPSMT-35" transform="translate(691.308594 0.015625)"/>
      <use xlink:href="#TimesNewRomanPSMT-29" transform="translate(741.308594 0.015625)"/>
     </g>
    </g>
   </g>
  </g>
 </g>
 <defs>
  <clipPath id="p907b00decd">
   <rect x="44.79" y="12.96" width="233.49" height="165.54"/>
  </clipPath>
  <clipPath id="pbc36acf6cf">
   <rect x="86.8182" y="21.237" width="81.7215" height="57.939"/>
  </clipPath>
 </defs>
</svg>
